solid CATIA STL
  facet normal  0.000000e+000  0.000000e+000 -1.000000e+000
    outer loop
      vertex  1.500000e+001 -5.400000e+001 -2.000000e+001
      vertex -4.052017e+000 -5.211861e+001 -2.000000e+001
      vertex -1.568520e+000 -5.138993e+001 -2.000000e+001
    endloop
  endfacet
  facet normal  0.000000e+000  0.000000e+000 -1.000000e+000
    outer loop
      vertex  1.500000e+001 -5.400000e+001 -2.000000e+001
      vertex -1.568520e+000 -5.138993e+001 -2.000000e+001
      vertex  2.179128e-001 -4.951713e+001 -2.000000e+001
    endloop
  endfacet
  facet normal  0.000000e+000  0.000000e+000 -1.000000e+000
    outer loop
      vertex  1.500000e+001 -5.400000e+001 -2.000000e+001
      vertex  2.179128e-001 -4.951713e+001 -2.000000e+001
      vertex  1.500000e+001 -2.300000e+001 -2.000000e+001
    endloop
  endfacet
  facet normal  0.000000e+000  0.000000e+000 -9.999999e-001
    outer loop
      vertex -1.500000e+001 -5.400000e+001 -2.000000e+001
      vertex -1.500000e+001 -2.300000e+001 -2.000000e+001
      vertex -9.168608e+000 -4.723798e+001 -2.000000e+001
    endloop
  endfacet
  facet normal  0.000000e+000  -0.000000e+000 -1.000000e+000
    outer loop
      vertex -1.500000e+001 -5.400000e+001 -2.000000e+001
      vertex -9.168608e+000 -4.723798e+001 -2.000000e+001
      vertex -8.439930e+000 -4.972148e+001 -2.000000e+001
    endloop
  endfacet
  facet normal  0.000000e+000  -0.000000e+000 -1.000000e+000
    outer loop
      vertex -1.500000e+001 -5.400000e+001 -2.000000e+001
      vertex -8.439930e+000 -4.972148e+001 -2.000000e+001
      vertex -6.567128e+000 -5.150791e+001 -2.000000e+001
    endloop
  endfacet
  facet normal  0.000000e+000  -0.000000e+000 -1.000000e+000
    outer loop
      vertex -1.500000e+001 -5.400000e+001 -2.000000e+001
      vertex -6.567128e+000 -5.150791e+001 -2.000000e+001
      vertex -4.052017e+000 -5.211861e+001 -2.000000e+001
    endloop
  endfacet
  facet normal  0.000000e+000  -0.000000e+000 -1.000000e+000
    outer loop
      vertex -1.500000e+001 -5.400000e+001 -2.000000e+001
      vertex -4.052017e+000 -5.211861e+001 -2.000000e+001
      vertex  1.500000e+001 -5.400000e+001 -2.000000e+001
    endloop
  endfacet
  facet normal  -0.000000e+000  0.000000e+000 -1.000000e+000
    outer loop
      vertex -1.500000e+001 -2.300000e+001 -2.000000e+001
      vertex  1.500000e+001 -2.300000e+001 -2.000000e+001
      vertex -1.772872e+000 -4.273209e+001 -2.000000e+001
    endloop
  endfacet
  facet normal  0.000000e+000  0.000000e+000 -1.000000e+000
    outer loop
      vertex -1.500000e+001 -2.300000e+001 -2.000000e+001
      vertex -1.772872e+000 -4.273209e+001 -2.000000e+001
      vertex -4.287983e+000 -4.212139e+001 -2.000000e+001
    endloop
  endfacet
  facet normal  -0.000000e+000  0.000000e+000 -9.999999e-001
    outer loop
      vertex -1.500000e+001 -2.300000e+001 -2.000000e+001
      vertex -4.287983e+000 -4.212139e+001 -2.000000e+001
      vertex -6.771480e+000 -4.285007e+001 -2.000000e+001
    endloop
  endfacet
  facet normal  -0.000000e+000  0.000000e+000 -1.000000e+000
    outer loop
      vertex -1.500000e+001 -2.300000e+001 -2.000000e+001
      vertex -6.771480e+000 -4.285007e+001 -2.000000e+001
      vertex -8.557913e+000 -4.472287e+001 -2.000000e+001
    endloop
  endfacet
  facet normal  -0.000000e+000  0.000000e+000 -9.999999e-001
    outer loop
      vertex -1.500000e+001 -2.300000e+001 -2.000000e+001
      vertex -8.557913e+000 -4.472287e+001 -2.000000e+001
      vertex -9.168608e+000 -4.723798e+001 -2.000000e+001
    endloop
  endfacet
  facet normal  0.000000e+000  0.000000e+000 -1.000000e+000
    outer loop
      vertex  1.500000e+001 -2.300000e+001 -2.000000e+001
      vertex  2.179128e-001 -4.951713e+001 -2.000000e+001
      vertex  8.286078e-001 -4.700202e+001 -2.000000e+001
    endloop
  endfacet
  facet normal  0.000000e+000  0.000000e+000 -1.000000e+000
    outer loop
      vertex  1.500000e+001 -2.300000e+001 -2.000000e+001
      vertex  8.286078e-001 -4.700202e+001 -2.000000e+001
      vertex  9.992988e-002 -4.451852e+001 -2.000000e+001
    endloop
  endfacet
  facet normal  0.000000e+000  0.000000e+000 -1.000000e+000
    outer loop
      vertex  1.500000e+001 -2.300000e+001 -2.000000e+001
      vertex  9.992988e-002 -4.451852e+001 -2.000000e+001
      vertex -1.772872e+000 -4.273209e+001 -2.000000e+001
    endloop
  endfacet
  facet normal  0.000000e+000  0.000000e+000  1.000000e+000
    outer loop
      vertex -1.500000e+001 -3.712000e+001 -5.000000e+000
      vertex -1.500000e+001 -5.700000e+001 -5.000000e+000
      vertex -9.168608e+000 -4.723798e+001 -5.000000e+000
    endloop
  endfacet
  facet normal  0.000000e+000  -0.000000e+000  1.000000e+000
    outer loop
      vertex -1.500000e+001 -3.712000e+001 -5.000000e+000
      vertex -9.168608e+000 -4.723798e+001 -5.000000e+000
      vertex -8.557913e+000 -4.472287e+001 -5.000000e+000
    endloop
  endfacet
  facet normal  0.000000e+000  -0.000000e+000  1.000000e+000
    outer loop
      vertex -1.500000e+001 -3.712000e+001 -5.000000e+000
      vertex -8.557913e+000 -4.472287e+001 -5.000000e+000
      vertex -6.771480e+000 -4.285007e+001 -5.000000e+000
    endloop
  endfacet
  facet normal  0.000000e+000  -0.000000e+000  1.000000e+000
    outer loop
      vertex -1.500000e+001 -3.712000e+001 -5.000000e+000
      vertex -6.771480e+000 -4.285007e+001 -5.000000e+000
      vertex -4.287983e+000 -4.212139e+001 -5.000000e+000
    endloop
  endfacet
  facet normal  0.000000e+000  -0.000000e+000  1.000000e+000
    outer loop
      vertex -1.500000e+001 -3.712000e+001 -5.000000e+000
      vertex -4.287983e+000 -4.212139e+001 -5.000000e+000
      vertex  1.500000e+001 -3.712000e+001 -5.000000e+000
    endloop
  endfacet
  facet normal  -0.000000e+000  0.000000e+000  1.000000e+000
    outer loop
      vertex  1.500000e+001 -3.712000e+001 -5.000000e+000
      vertex -4.287983e+000 -4.212139e+001 -5.000000e+000
      vertex -1.772872e+000 -4.273209e+001 -5.000000e+000
    endloop
  endfacet
  facet normal  -0.000000e+000  0.000000e+000  1.000000e+000
    outer loop
      vertex  1.500000e+001 -3.712000e+001 -5.000000e+000
      vertex -1.772872e+000 -4.273209e+001 -5.000000e+000
      vertex  9.992988e-002 -4.451852e+001 -5.000000e+000
    endloop
  endfacet
  facet normal  -0.000000e+000  0.000000e+000  9.999999e-001
    outer loop
      vertex  1.500000e+001 -3.712000e+001 -5.000000e+000
      vertex  9.992988e-002 -4.451852e+001 -5.000000e+000
      vertex  8.286078e-001 -4.700202e+001 -5.000000e+000
    endloop
  endfacet
  facet normal  -0.000000e+000  0.000000e+000  9.999999e-001
    outer loop
      vertex  1.500000e+001 -3.712000e+001 -5.000000e+000
      vertex  8.286078e-001 -4.700202e+001 -5.000000e+000
      vertex  2.179128e-001 -4.951713e+001 -5.000000e+000
    endloop
  endfacet
  facet normal  -0.000000e+000  0.000000e+000  1.000000e+000
    outer loop
      vertex  1.500000e+001 -3.712000e+001 -5.000000e+000
      vertex  2.179128e-001 -4.951713e+001 -5.000000e+000
      vertex  1.500000e+001 -5.700000e+001 -5.000000e+000
    endloop
  endfacet
  facet normal  0.000000e+000  0.000000e+000  1.000000e+000
    outer loop
      vertex  1.500000e+001 -5.700000e+001 -5.000000e+000
      vertex  2.179128e-001 -4.951713e+001 -5.000000e+000
      vertex -1.568520e+000 -5.138993e+001 -5.000000e+000
    endloop
  endfacet
  facet normal  0.000000e+000  0.000000e+000  1.000000e+000
    outer loop
      vertex  1.500000e+001 -5.700000e+001 -5.000000e+000
      vertex -1.568520e+000 -5.138993e+001 -5.000000e+000
      vertex -4.052017e+000 -5.211861e+001 -5.000000e+000
    endloop
  endfacet
  facet normal  0.000000e+000  0.000000e+000  1.000000e+000
    outer loop
      vertex  1.500000e+001 -5.700000e+001 -5.000000e+000
      vertex -4.052017e+000 -5.211861e+001 -5.000000e+000
      vertex -6.567128e+000 -5.150791e+001 -5.000000e+000
    endloop
  endfacet
  facet normal  0.000000e+000  0.000000e+000  1.000000e+000
    outer loop
      vertex -1.500000e+001 -5.700000e+001 -5.000000e+000
      vertex  1.500000e+001 -5.700000e+001 -5.000000e+000
      vertex -6.567128e+000 -5.150791e+001 -5.000000e+000
    endloop
  endfacet
  facet normal  0.000000e+000  0.000000e+000  9.999999e-001
    outer loop
      vertex -1.500000e+001 -5.700000e+001 -5.000000e+000
      vertex -6.567128e+000 -5.150791e+001 -5.000000e+000
      vertex -8.439930e+000 -4.972148e+001 -5.000000e+000
    endloop
  endfacet
  facet normal  0.000000e+000  0.000000e+000  1.000000e+000
    outer loop
      vertex -1.500000e+001 -5.700000e+001 -5.000000e+000
      vertex -8.439930e+000 -4.972148e+001 -5.000000e+000
      vertex -9.168608e+000 -4.723798e+001 -5.000000e+000
    endloop
  endfacet
  facet normal  6.902241e-001  7.235956e-001  -0.000000e+000
    outer loop
      vertex -6.567128e+000 -5.150791e+001 -5.000000e+000
      vertex -8.439930e+000 -4.972148e+001 -2.000000e+001
      vertex -8.439930e+000 -4.972148e+001 -5.000000e+000
    endloop
  endfacet
  facet normal  9.595497e-001  2.815394e-001  0.000000e+000
    outer loop
      vertex -8.439930e+000 -4.972148e+001 -5.000000e+000
      vertex -8.439930e+000 -4.972148e+001 -2.000000e+001
      vertex -9.168608e+000 -4.723798e+001 -2.000000e+001
    endloop
  endfacet
  facet normal  9.595497e-001  2.815394e-001  -0.000000e+000
    outer loop
      vertex -8.439930e+000 -4.972148e+001 -5.000000e+000
      vertex -9.168608e+000 -4.723798e+001 -2.000000e+001
      vertex -9.168608e+000 -4.723798e+001 -5.000000e+000
    endloop
  endfacet
  facet normal  9.717640e-001 -2.359544e-001  0.000000e+000
    outer loop
      vertex -9.168608e+000 -4.723798e+001 -5.000000e+000
      vertex -9.168608e+000 -4.723798e+001 -2.000000e+001
      vertex -8.557913e+000 -4.472287e+001 -2.000000e+001
    endloop
  endfacet
  facet normal  9.717640e-001 -2.359544e-001  0.000000e+000
    outer loop
      vertex -9.168608e+000 -4.723798e+001 -5.000000e+000
      vertex -8.557913e+000 -4.472287e+001 -2.000000e+001
      vertex -8.557913e+000 -4.472287e+001 -5.000000e+000
    endloop
  endfacet
  facet normal  6.902241e-001  7.235956e-001  0.000000e+000
    outer loop
      vertex -8.439930e+000 -4.972148e+001 -2.000000e+001
      vertex -6.567128e+000 -5.150791e+001 -5.000000e+000
      vertex -6.567128e+000 -5.150791e+001 -2.000000e+001
    endloop
  endfacet
  facet normal  2.359544e-001  9.717641e-001  -0.000000e+000
    outer loop
      vertex -6.567128e+000 -5.150791e+001 -2.000000e+001
      vertex -6.567128e+000 -5.150791e+001 -5.000000e+000
      vertex -4.052017e+000 -5.211861e+001 -5.000000e+000
    endloop
  endfacet
  facet normal  2.359544e-001  9.717641e-001  0.000000e+000
    outer loop
      vertex -6.567128e+000 -5.150791e+001 -2.000000e+001
      vertex -4.052017e+000 -5.211861e+001 -5.000000e+000
      vertex -4.052017e+000 -5.211861e+001 -2.000000e+001
    endloop
  endfacet
  facet normal -2.815388e-001  9.595498e-001  0.000000e+000
    outer loop
      vertex -4.052017e+000 -5.211861e+001 -2.000000e+001
      vertex -4.052017e+000 -5.211861e+001 -5.000000e+000
      vertex -1.568520e+000 -5.138993e+001 -5.000000e+000
    endloop
  endfacet
  facet normal -2.815388e-001  9.595498e-001  0.000000e+000
    outer loop
      vertex -4.052017e+000 -5.211861e+001 -2.000000e+001
      vertex -1.568520e+000 -5.138993e+001 -5.000000e+000
      vertex -1.568520e+000 -5.138993e+001 -2.000000e+001
    endloop
  endfacet
  facet normal -7.235953e-001  6.902245e-001  0.000000e+000
    outer loop
      vertex -1.568520e+000 -5.138993e+001 -2.000000e+001
      vertex -1.568520e+000 -5.138993e+001 -5.000000e+000
      vertex  2.179128e-001 -4.951713e+001 -5.000000e+000
    endloop
  endfacet
  facet normal -7.235953e-001  6.902245e-001  0.000000e+000
    outer loop
      vertex -1.568520e+000 -5.138993e+001 -2.000000e+001
      vertex  2.179128e-001 -4.951713e+001 -5.000000e+000
      vertex  2.179128e-001 -4.951713e+001 -2.000000e+001
    endloop
  endfacet
  facet normal -6.902249e-001 -7.235949e-001  0.000000e+000
    outer loop
      vertex -1.772872e+000 -4.273209e+001 -5.000000e+000
      vertex  9.992988e-002 -4.451852e+001 -2.000000e+001
      vertex  9.992988e-002 -4.451852e+001 -5.000000e+000
    endloop
  endfacet
  facet normal -9.595496e-001 -2.815395e-001  -0.000000e+000
    outer loop
      vertex  9.992988e-002 -4.451852e+001 -5.000000e+000
      vertex  9.992988e-002 -4.451852e+001 -2.000000e+001
      vertex  8.286078e-001 -4.700202e+001 -2.000000e+001
    endloop
  endfacet
  facet normal -9.595496e-001 -2.815395e-001  0.000000e+000
    outer loop
      vertex  9.992988e-002 -4.451852e+001 -5.000000e+000
      vertex  8.286078e-001 -4.700202e+001 -2.000000e+001
      vertex  8.286078e-001 -4.700202e+001 -5.000000e+000
    endloop
  endfacet
  facet normal -9.717640e-001  2.359545e-001  0.000000e+000
    outer loop
      vertex  8.286078e-001 -4.700202e+001 -5.000000e+000
      vertex  8.286078e-001 -4.700202e+001 -2.000000e+001
      vertex  2.179128e-001 -4.951713e+001 -2.000000e+001
    endloop
  endfacet
  facet normal -9.717640e-001  2.359545e-001  0.000000e+000
    outer loop
      vertex  8.286078e-001 -4.700202e+001 -5.000000e+000
      vertex  2.179128e-001 -4.951713e+001 -2.000000e+001
      vertex  2.179128e-001 -4.951713e+001 -5.000000e+000
    endloop
  endfacet
  facet normal -6.902249e-001 -7.235949e-001  -0.000000e+000
    outer loop
      vertex  9.992988e-002 -4.451852e+001 -2.000000e+001
      vertex -1.772872e+000 -4.273209e+001 -5.000000e+000
      vertex -1.772872e+000 -4.273209e+001 -2.000000e+001
    endloop
  endfacet
  facet normal -2.359544e-001 -9.717641e-001  0.000000e+000
    outer loop
      vertex -1.772872e+000 -4.273209e+001 -2.000000e+001
      vertex -1.772872e+000 -4.273209e+001 -5.000000e+000
      vertex -4.287983e+000 -4.212139e+001 -5.000000e+000
    endloop
  endfacet
  facet normal -2.359544e-001 -9.717641e-001  -0.000000e+000
    outer loop
      vertex -1.772872e+000 -4.273209e+001 -2.000000e+001
      vertex -4.287983e+000 -4.212139e+001 -5.000000e+000
      vertex -4.287983e+000 -4.212139e+001 -2.000000e+001
    endloop
  endfacet
  facet normal  2.815402e-001 -9.595494e-001  0.000000e+000
    outer loop
      vertex -4.287983e+000 -4.212139e+001 -2.000000e+001
      vertex -4.287983e+000 -4.212139e+001 -5.000000e+000
      vertex -6.771480e+000 -4.285007e+001 -5.000000e+000
    endloop
  endfacet
  facet normal  2.815402e-001 -9.595494e-001  0.000000e+000
    outer loop
      vertex -4.287983e+000 -4.212139e+001 -2.000000e+001
      vertex -6.771480e+000 -4.285007e+001 -5.000000e+000
      vertex -6.771480e+000 -4.285007e+001 -2.000000e+001
    endloop
  endfacet
  facet normal  7.235953e-001 -6.902245e-001  0.000000e+000
    outer loop
      vertex -6.771480e+000 -4.285007e+001 -2.000000e+001
      vertex -6.771480e+000 -4.285007e+001 -5.000000e+000
      vertex -8.557913e+000 -4.472287e+001 -5.000000e+000
    endloop
  endfacet
  facet normal  7.235953e-001 -6.902245e-001  0.000000e+000
    outer loop
      vertex -6.771480e+000 -4.285007e+001 -2.000000e+001
      vertex -8.557913e+000 -4.472287e+001 -5.000000e+000
      vertex -8.557913e+000 -4.472287e+001 -2.000000e+001
    endloop
  endfacet
  facet normal  0.000000e+000  1.000000e+000  0.000000e+000
    outer loop
      vertex  4.445682e+000  0.000000e+000 -3.455165e+001
      vertex  5.614093e+000  0.000000e+000 -2.576627e+001
      vertex  6.284540e+000  0.000000e+000 -3.478892e+001
    endloop
  endfacet
  facet normal  2.656608e-016  1.000000e+000  2.550660e-017
    outer loop
      vertex  7.916646e+000 -3.608225e-016 -5.090663e+001
      vertex  6.423056e+000  0.000000e+000 -4.949657e+001
      vertex  5.554318e+000  0.000000e+000 -4.044835e+001
    endloop
  endfacet
  facet normal  -0.000000e+000  1.000000e+000  -0.000000e+000
    outer loop
      vertex  7.632748e+000  0.000000e+000 -6.606172e+001
      vertex  6.284540e+000  0.000000e+000 -6.478892e+001
      vertex  5.614093e+000  0.000000e+000 -5.576627e+001
    endloop
  endfacet
  facet normal  3.652393e-016  1.000000e+000 -1.100742e-016
    outer loop
      vertex -1.500000e+001  0.000000e+000 -7.750000e+001
      vertex  1.703824e+000  0.000000e+000 -2.207470e+001
      vertex  2.083354e+000 -3.608225e-016 -2.409337e+001
    endloop
  endfacet
  facet normal -1.806494e-016  1.000000e+000  6.454106e-017
    outer loop
      vertex -1.500000e+001  0.000000e+000 -7.750000e+001
      vertex  2.083354e+000 -3.608225e-016 -2.409337e+001
      vertex  3.576944e+000  0.000000e+000 -2.550343e+001
    endloop
  endfacet
  facet normal  0.000000e+000  1.000000e+000  0.000000e+000
    outer loop
      vertex -1.500000e+001  0.000000e+000 -7.750000e+001
      vertex  3.576944e+000  0.000000e+000 -2.550343e+001
      vertex  2.024665e+000  0.000000e+000 -3.711610e+001
    endloop
  endfacet
  facet normal -1.274379e-015  9.999999e-001  5.372405e-016
    outer loop
      vertex -1.500000e+001  0.000000e+000 -7.750000e+001
      vertex  2.024665e+000  0.000000e+000 -3.711610e+001
      vertex  2.367252e+000  1.415534e-015 -3.893828e+001
    endloop
  endfacet
  facet normal  7.123866e-016  1.000000e+000 -3.575497e-016
    outer loop
      vertex -1.500000e+001  0.000000e+000 -7.750000e+001
      vertex  2.367252e+000  1.415534e-015 -3.893828e+001
      vertex  3.715460e+000  0.000000e+000 -4.021108e+001
    endloop
  endfacet
  facet normal  0.000000e+000  1.000000e+000  0.000000e+000
    outer loop
      vertex -1.500000e+001  0.000000e+000 -7.750000e+001
      vertex  3.715460e+000  0.000000e+000 -4.021108e+001
      vertex  2.583321e+000  0.000000e+000 -5.021848e+001
    endloop
  endfacet
  facet normal  0.000000e+000  1.000000e+000  0.000000e+000
    outer loop
      vertex -1.500000e+001  0.000000e+000 -7.750000e+001
      vertex  2.583321e+000  0.000000e+000 -5.021848e+001
      vertex  1.703824e+000  0.000000e+000 -5.207470e+001
    endloop
  endfacet
  facet normal  2.115332e-016  1.000000e+000 -1.389724e-016
    outer loop
      vertex -1.500000e+001  0.000000e+000 -7.750000e+001
      vertex  1.703824e+000  0.000000e+000 -5.207470e+001
      vertex  2.083354e+000 -3.608225e-016 -5.409337e+001
    endloop
  endfacet
  facet normal -1.344129e-016  1.000000e+000  1.135168e-016
    outer loop
      vertex -1.500000e+001  0.000000e+000 -7.750000e+001
      vertex  2.083354e+000 -3.608225e-016 -5.409337e+001
      vertex  3.576944e+000  0.000000e+000 -5.550343e+001
    endloop
  endfacet
  facet normal  0.000000e+000  1.000000e+000  0.000000e+000
    outer loop
      vertex -1.500000e+001  0.000000e+000 -7.750000e+001
      vertex  3.576944e+000  0.000000e+000 -5.550343e+001
      vertex  2.818554e+000  0.000000e+000 -6.544056e+001
    endloop
  endfacet
  facet normal  0.000000e+000  1.000000e+000  0.000000e+000
    outer loop
      vertex -1.500000e+001  0.000000e+000 -7.750000e+001
      vertex  2.818554e+000  0.000000e+000 -6.544056e+001
      vertex  2.024665e+000  0.000000e+000 -6.711610e+001
    endloop
  endfacet
  facet normal  0.000000e+000  1.000000e+000  0.000000e+000
    outer loop
      vertex -1.500000e+001  0.000000e+000 -7.750000e+001
      vertex  2.024665e+000  0.000000e+000 -6.711610e+001
      vertex  2.367252e+000  0.000000e+000 -6.893828e+001
    endloop
  endfacet
  facet normal  0.000000e+000  1.000000e+000  0.000000e+000
    outer loop
      vertex -1.500000e+001  0.000000e+000 -7.750000e+001
      vertex  2.367252e+000  0.000000e+000 -6.893828e+001
      vertex  3.715460e+000  0.000000e+000 -7.021108e+001
    endloop
  endfacet
  facet normal  0.000000e+000  1.000000e+000  0.000000e+000
    outer loop
      vertex -1.500000e+001  0.000000e+000 -7.750000e+001
      vertex  3.715460e+000  0.000000e+000 -7.021108e+001
      vertex  5.554318e+000  0.000000e+000 -7.044834e+001
    endloop
  endfacet
  facet normal  0.000000e+000  1.000000e+000  0.000000e+000
    outer loop
      vertex -1.500000e+001  0.000000e+000 -7.750000e+001
      vertex  5.554318e+000  0.000000e+000 -7.044834e+001
      vertex  1.500000e+001  0.000000e+000 -7.750000e+001
    endloop
  endfacet
  facet normal  0.000000e+000  1.000000e+000  -0.000000e+000
    outer loop
      vertex  1.500000e+001  0.000000e+000  0.000000e+000
      vertex  1.500000e+001  0.000000e+000 -7.750000e+001
      vertex  8.296176e+000  0.000000e+000 -2.292530e+001
    endloop
  endfacet
  facet normal -3.720472e-016  1.000000e+000  1.087942e-016
    outer loop
      vertex  1.500000e+001  0.000000e+000  0.000000e+000
      vertex  8.296176e+000  0.000000e+000 -2.292530e+001
      vertex  7.916646e+000 -3.608225e-016 -2.090663e+001
    endloop
  endfacet
  facet normal  1.706903e-016  1.000000e+000 -7.509017e-017
    outer loop
      vertex  1.500000e+001  0.000000e+000  0.000000e+000
      vertex  7.916646e+000 -3.608225e-016 -2.090663e+001
      vertex  6.423056e+000  0.000000e+000 -1.949657e+001
    endloop
  endfacet
  facet normal  0.000000e+000  1.000000e+000  -0.000000e+000
    outer loop
      vertex  1.500000e+001  0.000000e+000  0.000000e+000
      vertex  6.423056e+000  0.000000e+000 -1.949657e+001
      vertex  4.385907e+000  0.000000e+000 -1.923373e+001
    endloop
  endfacet
  facet normal  0.000000e+000  1.000000e+000  -0.000000e+000
    outer loop
      vertex  1.500000e+001  0.000000e+000  0.000000e+000
      vertex  4.385907e+000  0.000000e+000 -1.923373e+001
      vertex -1.500000e+001  0.000000e+000  0.000000e+000
    endloop
  endfacet
  facet normal  0.000000e+000  1.000000e+000  0.000000e+000
    outer loop
      vertex -1.500000e+001  0.000000e+000  0.000000e+000
      vertex  4.385907e+000  0.000000e+000 -1.923373e+001
      vertex  2.583321e+000  0.000000e+000 -2.021848e+001
    endloop
  endfacet
  facet normal  0.000000e+000  1.000000e+000  0.000000e+000
    outer loop
      vertex -1.500000e+001  0.000000e+000  0.000000e+000
      vertex  2.583321e+000  0.000000e+000 -2.021848e+001
      vertex  1.703824e+000  0.000000e+000 -2.207470e+001
    endloop
  endfacet
  facet normal  0.000000e+000  1.000000e+000  0.000000e+000
    outer loop
      vertex -1.500000e+001  0.000000e+000  0.000000e+000
      vertex  1.703824e+000  0.000000e+000 -2.207470e+001
      vertex -1.500000e+001  0.000000e+000 -7.750000e+001
    endloop
  endfacet
  facet normal  -0.000000e+000  1.000000e+000  0.000000e+000
    outer loop
      vertex  1.500000e+001  0.000000e+000 -7.750000e+001
      vertex  5.554318e+000  0.000000e+000 -7.044834e+001
      vertex  7.181446e+000  0.000000e+000 -6.955944e+001
    endloop
  endfacet
  facet normal  -0.000000e+000  1.000000e+000  0.000000e+000
    outer loop
      vertex  1.500000e+001  0.000000e+000 -7.750000e+001
      vertex  7.181446e+000  0.000000e+000 -6.955944e+001
      vertex  7.975336e+000  0.000000e+000 -6.788390e+001
    endloop
  endfacet
  facet normal  -0.000000e+000  1.000000e+000  -0.000000e+000
    outer loop
      vertex  1.500000e+001  0.000000e+000 -7.750000e+001
      vertex  7.975336e+000  0.000000e+000 -6.788390e+001
      vertex  7.632748e+000  0.000000e+000 -6.606172e+001
    endloop
  endfacet
  facet normal  -0.000000e+000  1.000000e+000  -0.000000e+000
    outer loop
      vertex  1.500000e+001  0.000000e+000 -7.750000e+001
      vertex  7.632748e+000  0.000000e+000 -6.606172e+001
      vertex  5.614093e+000  0.000000e+000 -5.576627e+001
    endloop
  endfacet
  facet normal  -0.000000e+000  1.000000e+000  0.000000e+000
    outer loop
      vertex  1.500000e+001  0.000000e+000 -7.750000e+001
      vertex  5.614093e+000  0.000000e+000 -5.576627e+001
      vertex  7.416679e+000  0.000000e+000 -5.478152e+001
    endloop
  endfacet
  facet normal  -0.000000e+000  1.000000e+000  0.000000e+000
    outer loop
      vertex  1.500000e+001  0.000000e+000 -7.750000e+001
      vertex  7.416679e+000  0.000000e+000 -5.478152e+001
      vertex  8.296176e+000  0.000000e+000 -5.292530e+001
    endloop
  endfacet
  facet normal  2.108226e-015  1.000000e+000  5.751109e-016
    outer loop
      vertex  1.500000e+001  0.000000e+000 -7.750000e+001
      vertex  8.296176e+000  0.000000e+000 -5.292530e+001
      vertex  7.916646e+000 -3.608225e-016 -5.090663e+001
    endloop
  endfacet
  facet normal -1.187572e-015  1.000000e+000 -3.027511e-016
    outer loop
      vertex  1.500000e+001  0.000000e+000 -7.750000e+001
      vertex  7.916646e+000 -3.608225e-016 -5.090663e+001
      vertex  5.554318e+000  0.000000e+000 -4.044835e+001
    endloop
  endfacet
  facet normal  -0.000000e+000  1.000000e+000  0.000000e+000
    outer loop
      vertex  1.500000e+001  0.000000e+000 -7.750000e+001
      vertex  5.554318e+000  0.000000e+000 -4.044835e+001
      vertex  7.181446e+000  0.000000e+000 -3.955944e+001
    endloop
  endfacet
  facet normal  -0.000000e+000  1.000000e+000  0.000000e+000
    outer loop
      vertex  1.500000e+001  0.000000e+000 -7.750000e+001
      vertex  7.181446e+000  0.000000e+000 -3.955944e+001
      vertex  7.975336e+000  0.000000e+000 -3.788390e+001
    endloop
  endfacet
  facet normal  -0.000000e+000  1.000000e+000  -0.000000e+000
    outer loop
      vertex  1.500000e+001  0.000000e+000 -7.750000e+001
      vertex  7.975336e+000  0.000000e+000 -3.788390e+001
      vertex  7.416679e+000  0.000000e+000 -2.478152e+001
    endloop
  endfacet
  facet normal  -0.000000e+000  1.000000e+000  0.000000e+000
    outer loop
      vertex  1.500000e+001  0.000000e+000 -7.750000e+001
      vertex  7.416679e+000  0.000000e+000 -2.478152e+001
      vertex  8.296176e+000  0.000000e+000 -2.292530e+001
    endloop
  endfacet
  facet normal  0.000000e+000  1.000000e+000  -0.000000e+000
    outer loop
      vertex  5.614093e+000  0.000000e+000 -2.576627e+001
      vertex  4.445682e+000  0.000000e+000 -3.455165e+001
      vertex  3.576944e+000  0.000000e+000 -2.550343e+001
    endloop
  endfacet
  facet normal  0.000000e+000  1.000000e+000  0.000000e+000
    outer loop
      vertex  3.576944e+000  0.000000e+000 -2.550343e+001
      vertex  4.445682e+000  0.000000e+000 -3.455165e+001
      vertex  2.818554e+000  0.000000e+000 -3.544056e+001
    endloop
  endfacet
  facet normal  0.000000e+000  1.000000e+000  -0.000000e+000
    outer loop
      vertex  3.576944e+000  0.000000e+000 -2.550343e+001
      vertex  2.818554e+000  0.000000e+000 -3.544056e+001
      vertex  2.024665e+000  0.000000e+000 -3.711610e+001
    endloop
  endfacet
  facet normal  0.000000e+000  1.000000e+000  0.000000e+000
    outer loop
      vertex  2.583321e+000  0.000000e+000 -5.021848e+001
      vertex  3.715460e+000  0.000000e+000 -4.021108e+001
      vertex  4.385907e+000  0.000000e+000 -4.923373e+001
    endloop
  endfacet
  facet normal  0.000000e+000  1.000000e+000  -0.000000e+000
    outer loop
      vertex  4.385907e+000  0.000000e+000 -4.923373e+001
      vertex  3.715460e+000  0.000000e+000 -4.021108e+001
      vertex  5.554318e+000  0.000000e+000 -4.044835e+001
    endloop
  endfacet
  facet normal  0.000000e+000  1.000000e+000  0.000000e+000
    outer loop
      vertex  4.385907e+000  0.000000e+000 -4.923373e+001
      vertex  5.554318e+000  0.000000e+000 -4.044835e+001
      vertex  6.423056e+000  0.000000e+000 -4.949657e+001
    endloop
  endfacet
  facet normal  0.000000e+000  1.000000e+000  0.000000e+000
    outer loop
      vertex  2.818554e+000  0.000000e+000 -6.544056e+001
      vertex  3.576944e+000  0.000000e+000 -5.550343e+001
      vertex  4.445682e+000  0.000000e+000 -6.455166e+001
    endloop
  endfacet
  facet normal  0.000000e+000  1.000000e+000  -0.000000e+000
    outer loop
      vertex  4.445682e+000  0.000000e+000 -6.455166e+001
      vertex  3.576944e+000  0.000000e+000 -5.550343e+001
      vertex  5.614093e+000  0.000000e+000 -5.576627e+001
    endloop
  endfacet
  facet normal  0.000000e+000  1.000000e+000  0.000000e+000
    outer loop
      vertex  4.445682e+000  0.000000e+000 -6.455166e+001
      vertex  5.614093e+000  0.000000e+000 -5.576627e+001
      vertex  6.284540e+000  0.000000e+000 -6.478892e+001
    endloop
  endfacet
  facet normal -1.129148e-015  1.000000e+000 -8.390376e-017
    outer loop
      vertex  6.284540e+000  0.000000e+000 -3.478892e+001
      vertex  5.614093e+000  0.000000e+000 -2.576627e+001
      vertex  7.632748e+000  1.415534e-015 -3.606172e+001
    endloop
  endfacet
  facet normal -6.784461e-017  1.000000e+000  1.241888e-016
    outer loop
      vertex  7.632748e+000  1.415534e-015 -3.606172e+001
      vertex  5.614093e+000  0.000000e+000 -2.576627e+001
      vertex  7.416679e+000  0.000000e+000 -2.478152e+001
    endloop
  endfacet
  facet normal  5.343770e-015  1.000000e+000  2.278466e-016
    outer loop
      vertex  7.632748e+000  1.415534e-015 -3.606172e+001
      vertex  7.416679e+000  0.000000e+000 -2.478152e+001
      vertex  7.975336e+000  0.000000e+000 -3.788390e+001
    endloop
  endfacet
  facet normal  -0.000000e+000 -1.000000e+000  0.000000e+000
    outer loop
      vertex -1.500000e+001 -2.000000e+001 -7.450000e+001
      vertex  3.715460e+000 -2.000000e+001 -7.021108e+001
      vertex  2.367252e+000 -2.000000e+001 -6.893828e+001
    endloop
  endfacet
  facet normal  0.000000e+000 -1.000000e+000  0.000000e+000
    outer loop
      vertex  5.614093e+000 -2.000000e+001 -5.576627e+001
      vertex  3.576944e+000 -2.000000e+001 -5.550343e+001
      vertex  4.445682e+000 -2.000000e+001 -6.455166e+001
    endloop
  endfacet
  facet normal  0.000000e+000 -1.000000e+000  0.000000e+000
    outer loop
      vertex  5.554318e+000 -2.000000e+001 -4.044835e+001
      vertex  3.715460e+000 -2.000000e+001 -4.021108e+001
      vertex  4.385907e+000 -2.000000e+001 -4.923373e+001
    endloop
  endfacet
  facet normal  0.000000e+000 -1.000000e+000  0.000000e+000
    outer loop
      vertex  5.576984e+000 -2.000000e+001 -2.577303e+001
      vertex  3.559924e+000 -2.000000e+001 -2.549530e+001
      vertex  4.445682e+000 -2.000000e+001 -3.455165e+001
    endloop
  endfacet
  facet normal  0.000000e+000 -1.000000e+000  0.000000e+000
    outer loop
      vertex  2.083354e+000 -2.000000e+001 -5.409337e+001
      vertex  4.445682e+000 -2.000000e+001 -6.455166e+001
      vertex  3.576944e+000 -2.000000e+001 -5.550343e+001
    endloop
  endfacet
  facet normal  0.000000e+000 -1.000000e+000  -0.000000e+000
    outer loop
      vertex  1.500000e+001 -2.000000e+001 -7.450000e+001
      vertex  1.500000e+001 -2.000000e+001 -2.300000e+001
      vertex  7.975336e+000 -2.000000e+001 -6.788390e+001
    endloop
  endfacet
  facet normal  0.000000e+000 -1.000000e+000  -0.000000e+000
    outer loop
      vertex  1.500000e+001 -2.000000e+001 -7.450000e+001
      vertex  7.975336e+000 -2.000000e+001 -6.788390e+001
      vertex  7.181446e+000 -2.000000e+001 -6.955944e+001
    endloop
  endfacet
  facet normal  0.000000e+000 -1.000000e+000  -0.000000e+000
    outer loop
      vertex  1.500000e+001 -2.000000e+001 -7.450000e+001
      vertex  7.181446e+000 -2.000000e+001 -6.955944e+001
      vertex  5.554318e+000 -2.000000e+001 -7.044834e+001
    endloop
  endfacet
  facet normal  -0.000000e+000 -1.000000e+000  -0.000000e+000
    outer loop
      vertex  1.500000e+001 -2.000000e+001 -7.450000e+001
      vertex  5.554318e+000 -2.000000e+001 -7.044834e+001
      vertex  3.715460e+000 -2.000000e+001 -7.021108e+001
    endloop
  endfacet
  facet normal  0.000000e+000 -1.000000e+000  -0.000000e+000
    outer loop
      vertex  1.500000e+001 -2.000000e+001 -7.450000e+001
      vertex  3.715460e+000 -2.000000e+001 -7.021108e+001
      vertex -1.500000e+001 -2.000000e+001 -7.450000e+001
    endloop
  endfacet
  facet normal  0.000000e+000 -1.000000e+000  0.000000e+000
    outer loop
      vertex -1.500000e+001 -2.000000e+001 -2.300000e+001
      vertex -1.500000e+001 -2.000000e+001 -7.450000e+001
      vertex  2.367252e+000 -2.000000e+001 -6.893828e+001
    endloop
  endfacet
  facet normal  0.000000e+000 -1.000000e+000  0.000000e+000
    outer loop
      vertex -1.500000e+001 -2.000000e+001 -2.300000e+001
      vertex  2.367252e+000 -2.000000e+001 -6.893828e+001
      vertex  2.024665e+000 -2.000000e+001 -6.711610e+001
    endloop
  endfacet
  facet normal  0.000000e+000 -1.000000e+000  0.000000e+000
    outer loop
      vertex -1.500000e+001 -2.000000e+001 -2.300000e+001
      vertex  2.024665e+000 -2.000000e+001 -6.711610e+001
      vertex  2.818554e+000 -2.000000e+001 -6.544056e+001
    endloop
  endfacet
  facet normal  0.000000e+000 -1.000000e+000  0.000000e+000
    outer loop
      vertex -1.500000e+001 -2.000000e+001 -2.300000e+001
      vertex  2.818554e+000 -2.000000e+001 -6.544056e+001
      vertex  4.445682e+000 -2.000000e+001 -6.455166e+001
    endloop
  endfacet
  facet normal  0.000000e+000 -1.000000e+000  0.000000e+000
    outer loop
      vertex -1.500000e+001 -2.000000e+001 -2.300000e+001
      vertex  4.445682e+000 -2.000000e+001 -6.455166e+001
      vertex  2.083354e+000 -2.000000e+001 -5.409337e+001
    endloop
  endfacet
  facet normal  0.000000e+000 -9.999999e-001  0.000000e+000
    outer loop
      vertex -1.500000e+001 -2.000000e+001 -2.300000e+001
      vertex  2.083354e+000 -2.000000e+001 -5.409337e+001
      vertex  1.703824e+000 -2.000000e+001 -5.207470e+001
    endloop
  endfacet
  facet normal  0.000000e+000 -1.000000e+000  0.000000e+000
    outer loop
      vertex -1.500000e+001 -2.000000e+001 -2.300000e+001
      vertex  1.703824e+000 -2.000000e+001 -5.207470e+001
      vertex  2.583321e+000 -2.000000e+001 -5.021848e+001
    endloop
  endfacet
  facet normal  0.000000e+000 -1.000000e+000  0.000000e+000
    outer loop
      vertex -1.500000e+001 -2.000000e+001 -2.300000e+001
      vertex  2.583321e+000 -2.000000e+001 -5.021848e+001
      vertex  4.385907e+000 -2.000000e+001 -4.923373e+001
    endloop
  endfacet
  facet normal  0.000000e+000 -1.000000e+000  0.000000e+000
    outer loop
      vertex -1.500000e+001 -2.000000e+001 -2.300000e+001
      vertex  4.385907e+000 -2.000000e+001 -4.923373e+001
      vertex  3.715460e+000 -2.000000e+001 -4.021108e+001
    endloop
  endfacet
  facet normal  0.000000e+000 -1.000000e+000  0.000000e+000
    outer loop
      vertex -1.500000e+001 -2.000000e+001 -2.300000e+001
      vertex  3.715460e+000 -2.000000e+001 -4.021108e+001
      vertex  2.367252e+000 -2.000000e+001 -3.893828e+001
    endloop
  endfacet
  facet normal  0.000000e+000 -1.000000e+000  0.000000e+000
    outer loop
      vertex -1.500000e+001 -2.000000e+001 -2.300000e+001
      vertex  2.367252e+000 -2.000000e+001 -3.893828e+001
      vertex  2.024665e+000 -2.000000e+001 -3.711610e+001
    endloop
  endfacet
  facet normal  0.000000e+000 -9.999999e-001  0.000000e+000
    outer loop
      vertex -1.500000e+001 -2.000000e+001 -2.300000e+001
      vertex  2.024665e+000 -2.000000e+001 -3.711610e+001
      vertex  2.818554e+000 -2.000000e+001 -3.544056e+001
    endloop
  endfacet
  facet normal  0.000000e+000 -1.000000e+000  0.000000e+000
    outer loop
      vertex -1.500000e+001 -2.000000e+001 -2.300000e+001
      vertex  2.818554e+000 -2.000000e+001 -3.544056e+001
      vertex  4.445682e+000 -2.000000e+001 -3.455165e+001
    endloop
  endfacet
  facet normal  0.000000e+000 -9.999999e-001  0.000000e+000
    outer loop
      vertex -1.500000e+001 -2.000000e+001 -2.300000e+001
      vertex  4.445682e+000 -2.000000e+001 -3.455165e+001
      vertex  3.559924e+000 -2.000000e+001 -2.549530e+001
    endloop
  endfacet
  facet normal  0.000000e+000 -1.000000e+000  0.000000e+000
    outer loop
      vertex -1.500000e+001 -2.000000e+001 -2.300000e+001
      vertex  3.559924e+000 -2.000000e+001 -2.549530e+001
      vertex  2.083354e+000 -2.000000e+001 -2.409337e+001
    endloop
  endfacet
  facet normal  0.000000e+000 -1.000000e+000  0.000000e+000
    outer loop
      vertex -1.500000e+001 -2.000000e+001 -2.300000e+001
      vertex  2.083354e+000 -2.000000e+001 -2.409337e+001
      vertex  1.714326e+000 -2.000000e+001 -2.300000e+001
    endloop
  endfacet
  facet normal  0.000000e+000 -1.000000e+000  -0.000000e+000
    outer loop
      vertex  1.500000e+001 -2.000000e+001 -2.300000e+001
      vertex  8.285674e+000 -2.000000e+001 -2.300000e+001
      vertex  7.377490e+000 -2.000000e+001 -2.482232e+001
    endloop
  endfacet
  facet normal  0.000000e+000 -1.000000e+000  -0.000000e+000
    outer loop
      vertex  1.500000e+001 -2.000000e+001 -2.300000e+001
      vertex  7.377490e+000 -2.000000e+001 -2.482232e+001
      vertex  5.576984e+000 -2.000000e+001 -2.577303e+001
    endloop
  endfacet
  facet normal  0.000000e+000 -1.000000e+000  -0.000000e+000
    outer loop
      vertex  1.500000e+001 -2.000000e+001 -2.300000e+001
      vertex  5.576984e+000 -2.000000e+001 -2.577303e+001
      vertex  4.445682e+000 -2.000000e+001 -3.455165e+001
    endloop
  endfacet
  facet normal  0.000000e+000 -1.000000e+000  0.000000e+000
    outer loop
      vertex  1.500000e+001 -2.000000e+001 -2.300000e+001
      vertex  4.445682e+000 -2.000000e+001 -3.455165e+001
      vertex  6.284540e+000 -2.000000e+001 -3.478892e+001
    endloop
  endfacet
  facet normal  0.000000e+000 -1.000000e+000  0.000000e+000
    outer loop
      vertex  1.500000e+001 -2.000000e+001 -2.300000e+001
      vertex  6.284540e+000 -2.000000e+001 -3.478892e+001
      vertex  7.632748e+000 -2.000000e+001 -3.606172e+001
    endloop
  endfacet
  facet normal  0.000000e+000 -1.000000e+000  0.000000e+000
    outer loop
      vertex  1.500000e+001 -2.000000e+001 -2.300000e+001
      vertex  7.632748e+000 -2.000000e+001 -3.606172e+001
      vertex  7.975336e+000 -2.000000e+001 -3.788390e+001
    endloop
  endfacet
  facet normal  0.000000e+000 -1.000000e+000  -0.000000e+000
    outer loop
      vertex  1.500000e+001 -2.000000e+001 -2.300000e+001
      vertex  7.975336e+000 -2.000000e+001 -3.788390e+001
      vertex  6.423056e+000 -2.000000e+001 -4.949657e+001
    endloop
  endfacet
  facet normal  0.000000e+000 -1.000000e+000  0.000000e+000
    outer loop
      vertex  1.500000e+001 -2.000000e+001 -2.300000e+001
      vertex  6.423056e+000 -2.000000e+001 -4.949657e+001
      vertex  7.916646e+000 -2.000000e+001 -5.090663e+001
    endloop
  endfacet
  facet normal  0.000000e+000 -1.000000e+000  0.000000e+000
    outer loop
      vertex  1.500000e+001 -2.000000e+001 -2.300000e+001
      vertex  7.916646e+000 -2.000000e+001 -5.090663e+001
      vertex  8.296176e+000 -2.000000e+001 -5.292530e+001
    endloop
  endfacet
  facet normal  0.000000e+000 -1.000000e+000  -0.000000e+000
    outer loop
      vertex  1.500000e+001 -2.000000e+001 -2.300000e+001
      vertex  8.296176e+000 -2.000000e+001 -5.292530e+001
      vertex  6.284540e+000 -2.000000e+001 -6.478892e+001
    endloop
  endfacet
  facet normal  0.000000e+000 -1.000000e+000  0.000000e+000
    outer loop
      vertex  1.500000e+001 -2.000000e+001 -2.300000e+001
      vertex  6.284540e+000 -2.000000e+001 -6.478892e+001
      vertex  7.632748e+000 -2.000000e+001 -6.606172e+001
    endloop
  endfacet
  facet normal  0.000000e+000 -1.000000e+000  0.000000e+000
    outer loop
      vertex  1.500000e+001 -2.000000e+001 -2.300000e+001
      vertex  7.632748e+000 -2.000000e+001 -6.606172e+001
      vertex  7.975336e+000 -2.000000e+001 -6.788390e+001
    endloop
  endfacet
  facet normal  0.000000e+000 -1.000000e+000  0.000000e+000
    outer loop
      vertex  5.614093e+000 -2.000000e+001 -5.576627e+001
      vertex  4.445682e+000 -2.000000e+001 -6.455166e+001
      vertex  7.416679e+000 -2.000000e+001 -5.478152e+001
    endloop
  endfacet
  facet normal  0.000000e+000 -1.000000e+000  0.000000e+000
    outer loop
      vertex  7.416679e+000 -2.000000e+001 -5.478152e+001
      vertex  4.445682e+000 -2.000000e+001 -6.455166e+001
      vertex  6.284540e+000 -2.000000e+001 -6.478892e+001
    endloop
  endfacet
  facet normal  0.000000e+000 -1.000000e+000  0.000000e+000
    outer loop
      vertex  7.416679e+000 -2.000000e+001 -5.478152e+001
      vertex  6.284540e+000 -2.000000e+001 -6.478892e+001
      vertex  8.296176e+000 -2.000000e+001 -5.292530e+001
    endloop
  endfacet
  facet normal  0.000000e+000 -9.999999e-001  0.000000e+000
    outer loop
      vertex  5.554318e+000 -2.000000e+001 -4.044835e+001
      vertex  4.385907e+000 -2.000000e+001 -4.923373e+001
      vertex  7.181446e+000 -2.000000e+001 -3.955944e+001
    endloop
  endfacet
  facet normal  0.000000e+000 -9.999999e-001  0.000000e+000
    outer loop
      vertex  7.181446e+000 -2.000000e+001 -3.955944e+001
      vertex  4.385907e+000 -2.000000e+001 -4.923373e+001
      vertex  6.423056e+000 -2.000000e+001 -4.949657e+001
    endloop
  endfacet
  facet normal  0.000000e+000 -1.000000e+000  0.000000e+000
    outer loop
      vertex  7.181446e+000 -2.000000e+001 -3.955944e+001
      vertex  6.423056e+000 -2.000000e+001 -4.949657e+001
      vertex  7.975336e+000 -2.000000e+001 -3.788390e+001
    endloop
  endfacet
  facet normal  9.036936e-001  0.000000e+000 -4.281797e-001
    outer loop
      vertex  2.583321e+000  0.000000e+000 -5.021848e+001
      vertex  1.703824e+000 -2.000000e+001 -5.207470e+001
      vertex  1.703824e+000  0.000000e+000 -5.207470e+001
    endloop
  endfacet
  facet normal  9.827812e-001  0.000000e+000  1.847728e-001
    outer loop
      vertex  1.703824e+000  0.000000e+000 -5.207470e+001
      vertex  1.703824e+000 -2.000000e+001 -5.207470e+001
      vertex  2.083354e+000 -2.000000e+001 -5.409337e+001
    endloop
  endfacet
  facet normal  9.827812e-001  -0.000000e+000  1.847728e-001
    outer loop
      vertex  1.703824e+000  0.000000e+000 -5.207470e+001
      vertex  2.083354e+000 -2.000000e+001 -5.409337e+001
      vertex  2.083354e+000 -3.608225e-016 -5.409337e+001
    endloop
  endfacet
  facet normal  9.036936e-001  0.000000e+000 -4.281797e-001
    outer loop
      vertex  1.703824e+000 -2.000000e+001 -5.207470e+001
      vertex  2.583321e+000  0.000000e+000 -5.021848e+001
      vertex  2.583321e+000 -2.000000e+001 -5.021848e+001
    endloop
  endfacet
  facet normal  4.794253e-001  0.000000e+000 -8.775826e-001
    outer loop
      vertex  2.583321e+000 -2.000000e+001 -5.021848e+001
      vertex  2.583321e+000  0.000000e+000 -5.021848e+001
      vertex  4.385907e+000  0.000000e+000 -4.923373e+001
    endloop
  endfacet
  facet normal  4.794253e-001  0.000000e+000 -8.775826e-001
    outer loop
      vertex  2.583321e+000 -2.000000e+001 -5.021848e+001
      vertex  4.385907e+000  0.000000e+000 -4.923373e+001
      vertex  4.385907e+000 -2.000000e+001 -4.923373e+001
    endloop
  endfacet
  facet normal -1.279665e-001  0.000000e+000 -9.917785e-001
    outer loop
      vertex  4.385907e+000 -2.000000e+001 -4.923373e+001
      vertex  4.385907e+000  0.000000e+000 -4.923373e+001
      vertex  6.423056e+000  0.000000e+000 -4.949657e+001
    endloop
  endfacet
  facet normal -1.279665e-001  -0.000000e+000 -9.917785e-001
    outer loop
      vertex  4.385907e+000 -2.000000e+001 -4.923373e+001
      vertex  6.423056e+000  0.000000e+000 -4.949657e+001
      vertex  6.423056e+000 -2.000000e+001 -4.949657e+001
    endloop
  endfacet
  facet normal -6.864797e-001  0.000000e+000 -7.271490e-001
    outer loop
      vertex  6.423056e+000 -2.000000e+001 -4.949657e+001
      vertex  6.423056e+000  0.000000e+000 -4.949657e+001
      vertex  7.916646e+000 -3.608225e-016 -5.090663e+001
    endloop
  endfacet
  facet normal -6.864797e-001  -0.000000e+000 -7.271490e-001
    outer loop
      vertex  6.423056e+000 -2.000000e+001 -4.949657e+001
      vertex  7.916646e+000 -3.608225e-016 -5.090663e+001
      vertex  7.916646e+000 -2.000000e+001 -5.090663e+001
    endloop
  endfacet
  facet normal -9.036936e-001  0.000000e+000  4.281797e-001
    outer loop
      vertex  7.416679e+000  0.000000e+000 -5.478152e+001
      vertex  8.296176e+000 -2.000000e+001 -5.292530e+001
      vertex  8.296176e+000  0.000000e+000 -5.292530e+001
    endloop
  endfacet
  facet normal -9.827812e-001  -0.000000e+000 -1.847729e-001
    outer loop
      vertex  8.296176e+000  0.000000e+000 -5.292530e+001
      vertex  8.296176e+000 -2.000000e+001 -5.292530e+001
      vertex  7.916646e+000 -2.000000e+001 -5.090663e+001
    endloop
  endfacet
  facet normal -9.827812e-001  0.000000e+000 -1.847729e-001
    outer loop
      vertex  8.296176e+000  0.000000e+000 -5.292530e+001
      vertex  7.916646e+000 -2.000000e+001 -5.090663e+001
      vertex  7.916646e+000 -3.608225e-016 -5.090663e+001
    endloop
  endfacet
  facet normal -9.036936e-001  0.000000e+000  4.281797e-001
    outer loop
      vertex  8.296176e+000 -2.000000e+001 -5.292530e+001
      vertex  7.416679e+000  0.000000e+000 -5.478152e+001
      vertex  7.416679e+000 -2.000000e+001 -5.478152e+001
    endloop
  endfacet
  facet normal -4.794253e-001  0.000000e+000  8.775827e-001
    outer loop
      vertex  7.416679e+000 -2.000000e+001 -5.478152e+001
      vertex  7.416679e+000  0.000000e+000 -5.478152e+001
      vertex  5.614093e+000  0.000000e+000 -5.576627e+001
    endloop
  endfacet
  facet normal -4.794253e-001  0.000000e+000  8.775827e-001
    outer loop
      vertex  7.416679e+000 -2.000000e+001 -5.478152e+001
      vertex  5.614093e+000  0.000000e+000 -5.576627e+001
      vertex  5.614093e+000 -2.000000e+001 -5.576627e+001
    endloop
  endfacet
  facet normal  1.279665e-001  -0.000000e+000  9.917785e-001
    outer loop
      vertex  5.614093e+000 -2.000000e+001 -5.576627e+001
      vertex  5.614093e+000  0.000000e+000 -5.576627e+001
      vertex  3.576944e+000  0.000000e+000 -5.550343e+001
    endloop
  endfacet
  facet normal  1.279665e-001  0.000000e+000  9.917785e-001
    outer loop
      vertex  5.614093e+000 -2.000000e+001 -5.576627e+001
      vertex  3.576944e+000  0.000000e+000 -5.550343e+001
      vertex  3.576944e+000 -2.000000e+001 -5.550343e+001
    endloop
  endfacet
  facet normal  6.864797e-001  -0.000000e+000  7.271490e-001
    outer loop
      vertex  3.576944e+000 -2.000000e+001 -5.550343e+001
      vertex  3.576944e+000  0.000000e+000 -5.550343e+001
      vertex  2.083354e+000 -3.608225e-016 -5.409337e+001
    endloop
  endfacet
  facet normal  6.864797e-001  0.000000e+000  7.271490e-001
    outer loop
      vertex  3.576944e+000 -2.000000e+001 -5.550343e+001
      vertex  2.083354e+000 -3.608225e-016 -5.409337e+001
      vertex  2.083354e+000 -2.000000e+001 -5.409337e+001
    endloop
  endfacet
  facet normal  0.000000e+000 -9.659258e-001 -2.588193e-001
    outer loop
      vertex -1.500000e+001 -2.040192e+001 -2.150000e+001
      vertex -1.500000e+001 -2.000000e+001 -2.300000e+001
      vertex  1.714326e+000 -2.000000e+001 -2.300000e+001
    endloop
  endfacet
  facet normal  0.000000e+000 -9.659258e-001 -2.588193e-001
    outer loop
      vertex -1.500000e+001 -2.040192e+001 -2.150000e+001
      vertex  1.714326e+000 -2.000000e+001 -2.300000e+001
      vertex  8.285674e+000 -2.000000e+001 -2.300000e+001
    endloop
  endfacet
  facet normal  0.000000e+000 -9.659258e-001 -2.588193e-001
    outer loop
      vertex -1.500000e+001 -2.040192e+001 -2.150000e+001
      vertex  8.285674e+000 -2.000000e+001 -2.300000e+001
      vertex  1.500000e+001 -2.000000e+001 -2.300000e+001
    endloop
  endfacet
  facet normal  0.000000e+000 -9.659258e-001 -2.588193e-001
    outer loop
      vertex -1.500000e+001 -2.040192e+001 -2.150000e+001
      vertex  1.500000e+001 -2.000000e+001 -2.300000e+001
      vertex  1.500000e+001 -2.040192e+001 -2.150000e+001
    endloop
  endfacet
  facet normal  0.000000e+000 -2.588193e-001 -9.659258e-001
    outer loop
      vertex -1.500000e+001 -2.300000e+001 -2.000000e+001
      vertex -1.500000e+001 -2.150000e+001 -2.040192e+001
      vertex  1.500000e+001 -2.300000e+001 -2.000000e+001
    endloop
  endfacet
  facet normal  0.000000e+000 -2.588193e-001 -9.659258e-001
    outer loop
      vertex  1.500000e+001 -2.300000e+001 -2.000000e+001
      vertex -1.500000e+001 -2.150000e+001 -2.040192e+001
      vertex  1.500000e+001 -2.150000e+001 -2.040192e+001
    endloop
  endfacet
  facet normal  0.000000e+000 -7.071068e-001 -7.071068e-001
    outer loop
      vertex -1.500000e+001 -2.150000e+001 -2.040192e+001
      vertex -1.500000e+001 -2.040192e+001 -2.150000e+001
      vertex  1.500000e+001 -2.150000e+001 -2.040192e+001
    endloop
  endfacet
  facet normal  0.000000e+000 -7.071068e-001 -7.071068e-001
    outer loop
      vertex  1.500000e+001 -2.150000e+001 -2.040192e+001
      vertex -1.500000e+001 -2.040192e+001 -2.150000e+001
      vertex  1.500000e+001 -2.040192e+001 -2.150000e+001
    endloop
  endfacet
  facet normal  9.036645e-001 -8.031324e-003 -4.281659e-001
    outer loop
      vertex  1.948653e+000 -2.000000e+001 -2.118283e+001
      vertex  1.703824e+000  0.000000e+000 -2.207470e+001
      vertex  2.583321e+000  0.000000e+000 -2.021848e+001
    endloop
  endfacet
  facet normal  7.732866e-001  6.032137e-003 -6.340278e-001
    outer loop
      vertex  2.583321e+000  0.000000e+000 -2.021848e+001
      vertex  3.110349e+000 -2.000000e+001 -1.976598e+001
      vertex  1.948653e+000 -2.000000e+001 -2.118283e+001
    endloop
  endfacet
  facet normal  4.794128e-001 -7.221821e-003 -8.775598e-001
    outer loop
      vertex  3.110349e+000 -2.000000e+001 -1.976598e+001
      vertex  2.583321e+000  0.000000e+000 -2.021848e+001
      vertex  4.385907e+000  0.000000e+000 -1.923373e+001
    endloop
  endfacet
  facet normal  3.197865e-001  4.819493e-003 -9.474774e-001
    outer loop
      vertex  4.385907e+000  0.000000e+000 -1.923373e+001
      vertex  4.846351e+000 -2.000000e+001 -1.918005e+001
      vertex  3.110349e+000 -2.000000e+001 -1.976598e+001
    endloop
  endfacet
  facet normal -1.279645e-001 -5.607556e-003 -9.917629e-001
    outer loop
      vertex  4.846351e+000 -2.000000e+001 -1.918005e+001
      vertex  4.385907e+000  0.000000e+000 -1.923373e+001
      vertex  6.423056e+000  0.000000e+000 -1.949657e+001
    endloop
  endfacet
  facet normal  9.917675e-001  6.437580e-003 -1.278899e-001
    outer loop
      vertex  1.948653e+000 -2.000000e+001 -2.118283e+001
      vertex  1.714326e+000 -2.000000e+001 -2.300000e+001
      vertex  1.703824e+000  0.000000e+000 -2.207470e+001
    endloop
  endfacet
  facet normal  9.473913e-001 -1.429608e-002  3.197581e-001
    outer loop
      vertex  1.703824e+000  0.000000e+000 -2.207470e+001
      vertex  1.714326e+000 -2.000000e+001 -2.300000e+001
      vertex  2.083354e+000 -2.000000e+001 -2.409337e+001
    endloop
  endfacet
  facet normal  9.827812e-001  -0.000000e+000  1.847730e-001
    outer loop
      vertex  1.703824e+000  0.000000e+000 -2.207470e+001
      vertex  2.083354e+000 -2.000000e+001 -2.409337e+001
      vertex  2.083354e+000 -3.608225e-016 -2.409337e+001
    endloop
  endfacet
  facet normal -2.309091e-001  2.805503e-003 -9.729713e-001
    outer loop
      vertex  4.846351e+000 -2.000000e+001 -1.918005e+001
      vertex  6.423056e+000  0.000000e+000 -1.949657e+001
      vertex  6.629050e+000 -2.000000e+001 -1.960313e+001
    endloop
  endfacet
  facet normal -6.864766e-001 -3.196412e-003 -7.271448e-001
    outer loop
      vertex  6.629050e+000 -2.000000e+001 -1.960313e+001
      vertex  6.423056e+000  0.000000e+000 -1.949657e+001
      vertex  7.916646e+000 -3.608225e-016 -2.090663e+001
    endloop
  endfacet
  facet normal -7.114335e-001  -0.000000e+000 -7.027535e-001
    outer loop
      vertex  6.629050e+000 -2.000000e+001 -1.960313e+001
      vertex  7.916646e+000 -3.608225e-016 -2.090663e+001
      vertex  7.916646e+000 -2.000000e+001 -2.090663e+001
    endloop
  endfacet
  facet normal -9.036931e-001 -1.124796e-003  4.281795e-001
    outer loop
      vertex  7.416679e+000  0.000000e+000 -2.478152e+001
      vertex  8.285674e+000 -2.000000e+001 -2.300000e+001
      vertex  8.296176e+000  0.000000e+000 -2.292530e+001
    endloop
  endfacet
  facet normal -9.848143e-001  1.165571e-003 -1.736074e-001
    outer loop
      vertex  8.296176e+000  0.000000e+000 -2.292530e+001
      vertex  8.285674e+000 -2.000000e+001 -2.300000e+001
      vertex  7.916646e+000 -2.000000e+001 -2.090663e+001
    endloop
  endfacet
  facet normal -9.827812e-001  0.000000e+000 -1.847731e-001
    outer loop
      vertex  8.296176e+000  0.000000e+000 -2.292530e+001
      vertex  7.916646e+000 -2.000000e+001 -2.090663e+001
      vertex  7.916646e+000 -3.608225e-016 -2.090663e+001
    endloop
  endfacet
  facet normal -8.950113e-001  8.436239e-004  4.460429e-001
    outer loop
      vertex  8.285674e+000 -2.000000e+001 -2.300000e+001
      vertex  7.416679e+000  0.000000e+000 -2.478152e+001
      vertex  7.377490e+000 -2.000000e+001 -2.482232e+001
    endloop
  endfacet
  facet normal -4.794251e-001 -8.512010e-004  8.775824e-001
    outer loop
      vertex  7.377490e+000 -2.000000e+001 -2.482232e+001
      vertex  7.416679e+000  0.000000e+000 -2.478152e+001
      vertex  5.614093e+000  0.000000e+000 -2.576627e+001
    endloop
  endfacet
  facet normal -4.669280e-001  5.674833e-004  8.842951e-001
    outer loop
      vertex  7.377490e+000 -2.000000e+001 -2.482232e+001
      vertex  5.614093e+000  0.000000e+000 -2.576627e+001
      vertex  5.576984e+000 -2.000000e+001 -2.577303e+001
    endloop
  endfacet
  facet normal  1.279665e-001 -5.726382e-004  9.917783e-001
    outer loop
      vertex  5.576984e+000 -2.000000e+001 -2.577303e+001
      vertex  5.614093e+000  0.000000e+000 -2.576627e+001
      vertex  3.576944e+000  0.000000e+000 -2.550343e+001
    endloop
  endfacet
  facet normal  1.364040e-001  2.862922e-004  9.906533e-001
    outer loop
      vertex  5.576984e+000 -2.000000e+001 -2.577303e+001
      vertex  3.576944e+000  0.000000e+000 -2.550343e+001
      vertex  3.559924e+000 -2.000000e+001 -2.549530e+001
    endloop
  endfacet
  facet normal  6.864802e-001 -2.888565e-004  7.271485e-001
    outer loop
      vertex  3.559924e+000 -2.000000e+001 -2.549530e+001
      vertex  3.576944e+000  0.000000e+000 -2.550343e+001
      vertex  2.083354e+000 -3.608225e-016 -2.409337e+001
    endloop
  endfacet
  facet normal  6.885406e-001  0.000000e+000  7.251978e-001
    outer loop
      vertex  3.559924e+000 -2.000000e+001 -2.549530e+001
      vertex  2.083354e+000 -3.608225e-016 -2.409337e+001
      vertex  2.083354e+000 -2.000000e+001 -2.409337e+001
    endloop
  endfacet
  facet normal  0.000000e+000  9.999999e-001  0.000000e+000
    outer loop
      vertex  4.846351e+000 -2.000000e+001 -1.918005e+001
      vertex  6.629050e+000 -2.000000e+001 -1.960313e+001
      vertex  3.110349e+000 -2.000000e+001 -1.976598e+001
    endloop
  endfacet
  facet normal  -0.000000e+000  1.000000e+000  0.000000e+000
    outer loop
      vertex  3.110349e+000 -2.000000e+001 -1.976598e+001
      vertex  6.629050e+000 -2.000000e+001 -1.960313e+001
      vertex  7.916646e+000 -2.000000e+001 -2.090663e+001
    endloop
  endfacet
  facet normal  0.000000e+000  1.000000e+000  0.000000e+000
    outer loop
      vertex  3.110349e+000 -2.000000e+001 -1.976598e+001
      vertex  7.916646e+000 -2.000000e+001 -2.090663e+001
      vertex  1.948653e+000 -2.000000e+001 -2.118283e+001
    endloop
  endfacet
  facet normal  -0.000000e+000  1.000000e+000  0.000000e+000
    outer loop
      vertex  1.948653e+000 -2.000000e+001 -2.118283e+001
      vertex  7.916646e+000 -2.000000e+001 -2.090663e+001
      vertex  8.285674e+000 -2.000000e+001 -2.300000e+001
    endloop
  endfacet
  facet normal  0.000000e+000  1.000000e+000  0.000000e+000
    outer loop
      vertex  1.948653e+000 -2.000000e+001 -2.118283e+001
      vertex  8.285674e+000 -2.000000e+001 -2.300000e+001
      vertex  1.714326e+000 -2.000000e+001 -2.300000e+001
    endloop
  endfacet
  facet normal  9.036933e-001  0.000000e+000 -4.281805e-001
    outer loop
      vertex  2.818554e+000  0.000000e+000 -6.544056e+001
      vertex  2.024665e+000 -2.000000e+001 -6.711610e+001
      vertex  2.024665e+000  0.000000e+000 -6.711610e+001
    endloop
  endfacet
  facet normal  9.827814e-001  0.000000e+000  1.847724e-001
    outer loop
      vertex  2.024665e+000  0.000000e+000 -6.711610e+001
      vertex  2.024665e+000 -2.000000e+001 -6.711610e+001
      vertex  2.367252e+000 -2.000000e+001 -6.893828e+001
    endloop
  endfacet
  facet normal  9.827814e-001  -0.000000e+000  1.847724e-001
    outer loop
      vertex  2.024665e+000  0.000000e+000 -6.711610e+001
      vertex  2.367252e+000 -2.000000e+001 -6.893828e+001
      vertex  2.367252e+000  0.000000e+000 -6.893828e+001
    endloop
  endfacet
  facet normal  9.036933e-001  0.000000e+000 -4.281805e-001
    outer loop
      vertex  2.024665e+000 -2.000000e+001 -6.711610e+001
      vertex  2.818554e+000  0.000000e+000 -6.544056e+001
      vertex  2.818554e+000 -2.000000e+001 -6.544056e+001
    endloop
  endfacet
  facet normal  4.794242e-001  0.000000e+000 -8.775833e-001
    outer loop
      vertex  2.818554e+000 -2.000000e+001 -6.544056e+001
      vertex  2.818554e+000  0.000000e+000 -6.544056e+001
      vertex  4.445682e+000  0.000000e+000 -6.455166e+001
    endloop
  endfacet
  facet normal  4.794242e-001  0.000000e+000 -8.775833e-001
    outer loop
      vertex  2.818554e+000 -2.000000e+001 -6.544056e+001
      vertex  4.445682e+000  0.000000e+000 -6.455166e+001
      vertex  4.445682e+000 -2.000000e+001 -6.455166e+001
    endloop
  endfacet
  facet normal -1.279644e-001  0.000000e+000 -9.917788e-001
    outer loop
      vertex  4.445682e+000 -2.000000e+001 -6.455166e+001
      vertex  4.445682e+000  0.000000e+000 -6.455166e+001
      vertex  6.284540e+000  0.000000e+000 -6.478892e+001
    endloop
  endfacet
  facet normal -1.279644e-001  -0.000000e+000 -9.917788e-001
    outer loop
      vertex  4.445682e+000 -2.000000e+001 -6.455166e+001
      vertex  6.284540e+000  0.000000e+000 -6.478892e+001
      vertex  6.284540e+000 -2.000000e+001 -6.478892e+001
    endloop
  endfacet
  facet normal -6.864800e-001  0.000000e+000 -7.271486e-001
    outer loop
      vertex  6.284540e+000 -2.000000e+001 -6.478892e+001
      vertex  6.284540e+000  0.000000e+000 -6.478892e+001
      vertex  7.632748e+000  0.000000e+000 -6.606172e+001
    endloop
  endfacet
  facet normal -6.864800e-001  -0.000000e+000 -7.271486e-001
    outer loop
      vertex  6.284540e+000 -2.000000e+001 -6.478892e+001
      vertex  7.632748e+000  0.000000e+000 -6.606172e+001
      vertex  7.632748e+000 -2.000000e+001 -6.606172e+001
    endloop
  endfacet
  facet normal -9.036931e-001  0.000000e+000  4.281806e-001
    outer loop
      vertex  7.181446e+000  0.000000e+000 -6.955944e+001
      vertex  7.975336e+000 -2.000000e+001 -6.788390e+001
      vertex  7.975336e+000  0.000000e+000 -6.788390e+001
    endloop
  endfacet
  facet normal -9.827814e-001  -0.000000e+000 -1.847725e-001
    outer loop
      vertex  7.975336e+000  0.000000e+000 -6.788390e+001
      vertex  7.975336e+000 -2.000000e+001 -6.788390e+001
      vertex  7.632748e+000 -2.000000e+001 -6.606172e+001
    endloop
  endfacet
  facet normal -9.827814e-001  0.000000e+000 -1.847725e-001
    outer loop
      vertex  7.975336e+000  0.000000e+000 -6.788390e+001
      vertex  7.632748e+000 -2.000000e+001 -6.606172e+001
      vertex  7.632748e+000  0.000000e+000 -6.606172e+001
    endloop
  endfacet
  facet normal -9.036931e-001  0.000000e+000  4.281806e-001
    outer loop
      vertex  7.975336e+000 -2.000000e+001 -6.788390e+001
      vertex  7.181446e+000  0.000000e+000 -6.955944e+001
      vertex  7.181446e+000 -2.000000e+001 -6.955944e+001
    endloop
  endfacet
  facet normal -4.794242e-001  0.000000e+000  8.775833e-001
    outer loop
      vertex  7.181446e+000 -2.000000e+001 -6.955944e+001
      vertex  7.181446e+000  0.000000e+000 -6.955944e+001
      vertex  5.554318e+000  0.000000e+000 -7.044834e+001
    endloop
  endfacet
  facet normal -4.794242e-001  0.000000e+000  8.775833e-001
    outer loop
      vertex  7.181446e+000 -2.000000e+001 -6.955944e+001
      vertex  5.554318e+000  0.000000e+000 -7.044834e+001
      vertex  5.554318e+000 -2.000000e+001 -7.044834e+001
    endloop
  endfacet
  facet normal  1.279644e-001  -0.000000e+000  9.917788e-001
    outer loop
      vertex  5.554318e+000 -2.000000e+001 -7.044834e+001
      vertex  5.554318e+000  0.000000e+000 -7.044834e+001
      vertex  3.715460e+000  0.000000e+000 -7.021108e+001
    endloop
  endfacet
  facet normal  1.279644e-001  0.000000e+000  9.917788e-001
    outer loop
      vertex  5.554318e+000 -2.000000e+001 -7.044834e+001
      vertex  3.715460e+000  0.000000e+000 -7.021108e+001
      vertex  3.715460e+000 -2.000000e+001 -7.021108e+001
    endloop
  endfacet
  facet normal  6.864802e-001  -0.000000e+000  7.271485e-001
    outer loop
      vertex  3.715460e+000 -2.000000e+001 -7.021108e+001
      vertex  3.715460e+000  0.000000e+000 -7.021108e+001
      vertex  2.367252e+000  0.000000e+000 -6.893828e+001
    endloop
  endfacet
  facet normal  6.864802e-001  0.000000e+000  7.271485e-001
    outer loop
      vertex  3.715460e+000 -2.000000e+001 -7.021108e+001
      vertex  2.367252e+000  0.000000e+000 -6.893828e+001
      vertex  2.367252e+000 -2.000000e+001 -6.893828e+001
    endloop
  endfacet
  facet normal  9.036936e-001  0.000000e+000 -4.281797e-001
    outer loop
      vertex  2.818554e+000  0.000000e+000 -3.544056e+001
      vertex  2.024665e+000 -2.000000e+001 -3.711610e+001
      vertex  2.024665e+000  0.000000e+000 -3.711610e+001
    endloop
  endfacet
  facet normal  9.827812e-001  0.000000e+000  1.847727e-001
    outer loop
      vertex  2.024665e+000  0.000000e+000 -3.711610e+001
      vertex  2.024665e+000 -2.000000e+001 -3.711610e+001
      vertex  2.367252e+000 -2.000000e+001 -3.893828e+001
    endloop
  endfacet
  facet normal  9.827812e-001  -0.000000e+000  1.847727e-001
    outer loop
      vertex  2.024665e+000  0.000000e+000 -3.711610e+001
      vertex  2.367252e+000 -2.000000e+001 -3.893828e+001
      vertex  2.367252e+000  1.415534e-015 -3.893828e+001
    endloop
  endfacet
  facet normal  9.036936e-001  0.000000e+000 -4.281797e-001
    outer loop
      vertex  2.024665e+000 -2.000000e+001 -3.711610e+001
      vertex  2.818554e+000  0.000000e+000 -3.544056e+001
      vertex  2.818554e+000 -2.000000e+001 -3.544056e+001
    endloop
  endfacet
  facet normal  4.794258e-001  0.000000e+000 -8.775824e-001
    outer loop
      vertex  2.818554e+000 -2.000000e+001 -3.544056e+001
      vertex  2.818554e+000  0.000000e+000 -3.544056e+001
      vertex  4.445682e+000  0.000000e+000 -3.455165e+001
    endloop
  endfacet
  facet normal  4.794258e-001  0.000000e+000 -8.775824e-001
    outer loop
      vertex  2.818554e+000 -2.000000e+001 -3.544056e+001
      vertex  4.445682e+000  0.000000e+000 -3.455165e+001
      vertex  4.445682e+000 -2.000000e+001 -3.455165e+001
    endloop
  endfacet
  facet normal -1.279684e-001  0.000000e+000 -9.917782e-001
    outer loop
      vertex  4.445682e+000 -2.000000e+001 -3.455165e+001
      vertex  4.445682e+000  0.000000e+000 -3.455165e+001
      vertex  6.284540e+000  0.000000e+000 -3.478892e+001
    endloop
  endfacet
  facet normal -1.279684e-001  -0.000000e+000 -9.917782e-001
    outer loop
      vertex  4.445682e+000 -2.000000e+001 -3.455165e+001
      vertex  6.284540e+000  0.000000e+000 -3.478892e+001
      vertex  6.284540e+000 -2.000000e+001 -3.478892e+001
    endloop
  endfacet
  facet normal -6.864790e-001  0.000000e+000 -7.271497e-001
    outer loop
      vertex  6.284540e+000 -2.000000e+001 -3.478892e+001
      vertex  6.284540e+000  0.000000e+000 -3.478892e+001
      vertex  7.632748e+000  1.415534e-015 -3.606172e+001
    endloop
  endfacet
  facet normal -6.864790e-001  -0.000000e+000 -7.271497e-001
    outer loop
      vertex  6.284540e+000 -2.000000e+001 -3.478892e+001
      vertex  7.632748e+000  1.415534e-015 -3.606172e+001
      vertex  7.632748e+000 -2.000000e+001 -3.606172e+001
    endloop
  endfacet
  facet normal -9.036935e-001  0.000000e+000  4.281798e-001
    outer loop
      vertex  7.181446e+000  0.000000e+000 -3.955944e+001
      vertex  7.975336e+000 -2.000000e+001 -3.788390e+001
      vertex  7.975336e+000  0.000000e+000 -3.788390e+001
    endloop
  endfacet
  facet normal -9.827812e-001  -0.000000e+000 -1.847728e-001
    outer loop
      vertex  7.975336e+000  0.000000e+000 -3.788390e+001
      vertex  7.975336e+000 -2.000000e+001 -3.788390e+001
      vertex  7.632748e+000 -2.000000e+001 -3.606172e+001
    endloop
  endfacet
  facet normal -9.827812e-001  0.000000e+000 -1.847728e-001
    outer loop
      vertex  7.975336e+000  0.000000e+000 -3.788390e+001
      vertex  7.632748e+000 -2.000000e+001 -3.606172e+001
      vertex  7.632748e+000  1.415534e-015 -3.606172e+001
    endloop
  endfacet
  facet normal -9.036935e-001  0.000000e+000  4.281798e-001
    outer loop
      vertex  7.975336e+000 -2.000000e+001 -3.788390e+001
      vertex  7.181446e+000  0.000000e+000 -3.955944e+001
      vertex  7.181446e+000 -2.000000e+001 -3.955944e+001
    endloop
  endfacet
  facet normal -4.794258e-001  0.000000e+000  8.775824e-001
    outer loop
      vertex  7.181446e+000 -2.000000e+001 -3.955944e+001
      vertex  7.181446e+000  0.000000e+000 -3.955944e+001
      vertex  5.554318e+000  0.000000e+000 -4.044835e+001
    endloop
  endfacet
  facet normal -4.794258e-001  0.000000e+000  8.775824e-001
    outer loop
      vertex  7.181446e+000 -2.000000e+001 -3.955944e+001
      vertex  5.554318e+000  0.000000e+000 -4.044835e+001
      vertex  5.554318e+000 -2.000000e+001 -4.044835e+001
    endloop
  endfacet
  facet normal  1.279684e-001  -0.000000e+000  9.917783e-001
    outer loop
      vertex  5.554318e+000 -2.000000e+001 -4.044835e+001
      vertex  5.554318e+000  0.000000e+000 -4.044835e+001
      vertex  3.715460e+000  0.000000e+000 -4.021108e+001
    endloop
  endfacet
  facet normal  1.279684e-001  0.000000e+000  9.917783e-001
    outer loop
      vertex  5.554318e+000 -2.000000e+001 -4.044835e+001
      vertex  3.715460e+000  0.000000e+000 -4.021108e+001
      vertex  3.715460e+000 -2.000000e+001 -4.021108e+001
    endloop
  endfacet
  facet normal  6.864791e-001  -0.000000e+000  7.271496e-001
    outer loop
      vertex  3.715460e+000 -2.000000e+001 -4.021108e+001
      vertex  3.715460e+000  0.000000e+000 -4.021108e+001
      vertex  2.367252e+000  1.415534e-015 -3.893828e+001
    endloop
  endfacet
  facet normal  6.864791e-001  0.000000e+000  7.271496e-001
    outer loop
      vertex  3.715460e+000 -2.000000e+001 -4.021108e+001
      vertex  2.367252e+000  1.415534e-015 -3.893828e+001
      vertex  2.367252e+000 -2.000000e+001 -3.893828e+001
    endloop
  endfacet
  facet normal  -0.000000e+000  0.000000e+000  1.000000e+000
    outer loop
      vertex  1.500000e+001  0.000000e+000  0.000000e+000
      vertex -1.500000e+001  0.000000e+000  0.000000e+000
      vertex  1.500000e+001 -3.712000e+001  0.000000e+000
    endloop
  endfacet
  facet normal  2.960595e-017  2.392722e-017  1.000000e+000
    outer loop
      vertex  1.500000e+001 -3.712000e+001  0.000000e+000
      vertex -1.500000e+001  0.000000e+000  0.000000e+000
      vertex -1.500000e+001 -3.712000e+001  8.881784e-016
    endloop
  endfacet
  facet normal  0.000000e+000 -1.000000e+000  0.000000e+000
    outer loop
      vertex -1.500000e+001 -5.700000e+001 -1.700000e+001
      vertex  1.500000e+001 -5.700000e+001 -1.700000e+001
      vertex -1.500000e+001 -5.700000e+001 -5.000000e+000
    endloop
  endfacet
  facet normal  0.000000e+000 -1.000000e+000  0.000000e+000
    outer loop
      vertex -1.500000e+001 -5.700000e+001 -5.000000e+000
      vertex  1.500000e+001 -5.700000e+001 -1.700000e+001
      vertex  1.500000e+001 -5.700000e+001 -5.000000e+000
    endloop
  endfacet
  facet normal  1.000000e+000  0.000000e+000  0.000000e+000
    outer loop
      vertex  1.500000e+001 -2.300000e+001 -2.000000e+001
      vertex  1.500000e+001 -2.150000e+001 -2.040192e+001
      vertex  1.500000e+001 -3.712000e+001 -5.000000e+000
    endloop
  endfacet
  facet normal  1.000000e+000  0.000000e+000  0.000000e+000
    outer loop
      vertex  1.500000e+001 -2.300000e+001 -2.000000e+001
      vertex  1.500000e+001 -3.712000e+001 -5.000000e+000
      vertex  1.500000e+001 -5.700000e+001 -5.000000e+000
    endloop
  endfacet
  facet normal  1.000000e+000  0.000000e+000  0.000000e+000
    outer loop
      vertex  1.500000e+001 -2.300000e+001 -2.000000e+001
      vertex  1.500000e+001 -5.700000e+001 -5.000000e+000
      vertex  1.500000e+001 -5.700000e+001 -1.700000e+001
    endloop
  endfacet
  facet normal  1.000000e+000  0.000000e+000  0.000000e+000
    outer loop
      vertex  1.500000e+001 -2.300000e+001 -2.000000e+001
      vertex  1.500000e+001 -5.700000e+001 -1.700000e+001
      vertex  1.500000e+001 -5.659808e+001 -1.850000e+001
    endloop
  endfacet
  facet normal  1.000000e+000  0.000000e+000  0.000000e+000
    outer loop
      vertex  1.500000e+001 -2.300000e+001 -2.000000e+001
      vertex  1.500000e+001 -5.659808e+001 -1.850000e+001
      vertex  1.500000e+001 -5.550000e+001 -1.959808e+001
    endloop
  endfacet
  facet normal  9.999999e-001  0.000000e+000  0.000000e+000
    outer loop
      vertex  1.500000e+001 -2.300000e+001 -2.000000e+001
      vertex  1.500000e+001 -5.550000e+001 -1.959808e+001
      vertex  1.500000e+001 -5.400000e+001 -2.000000e+001
    endloop
  endfacet
  facet normal  9.999999e-001  -0.000000e+000  0.000000e+000
    outer loop
      vertex  1.500000e+001  0.000000e+000  0.000000e+000
      vertex  1.500000e+001 -3.712000e+001  0.000000e+000
      vertex  1.500000e+001 -3.712000e+001 -5.000000e+000
    endloop
  endfacet
  facet normal  1.000000e+000  -0.000000e+000  0.000000e+000
    outer loop
      vertex  1.500000e+001  0.000000e+000  0.000000e+000
      vertex  1.500000e+001 -3.712000e+001 -5.000000e+000
      vertex  1.500000e+001 -2.150000e+001 -2.040192e+001
    endloop
  endfacet
  facet normal  1.000000e+000  -0.000000e+000  0.000000e+000
    outer loop
      vertex  1.500000e+001  0.000000e+000  0.000000e+000
      vertex  1.500000e+001 -2.150000e+001 -2.040192e+001
      vertex  1.500000e+001 -2.040192e+001 -2.150000e+001
    endloop
  endfacet
  facet normal  1.000000e+000  -0.000000e+000  0.000000e+000
    outer loop
      vertex  1.500000e+001  0.000000e+000  0.000000e+000
      vertex  1.500000e+001 -2.040192e+001 -2.150000e+001
      vertex  1.500000e+001 -2.000000e+001 -2.300000e+001
    endloop
  endfacet
  facet normal  1.000000e+000  -0.000000e+000  0.000000e+000
    outer loop
      vertex  1.500000e+001  0.000000e+000  0.000000e+000
      vertex  1.500000e+001 -2.000000e+001 -2.300000e+001
      vertex  1.500000e+001 -2.000000e+001 -7.450000e+001
    endloop
  endfacet
  facet normal  1.000000e+000  -0.000000e+000  0.000000e+000
    outer loop
      vertex  1.500000e+001  0.000000e+000  0.000000e+000
      vertex  1.500000e+001 -2.000000e+001 -7.450000e+001
      vertex  1.500000e+001  0.000000e+000 -7.750000e+001
    endloop
  endfacet
  facet normal  1.000000e+000  -0.000000e+000  -0.000000e+000
    outer loop
      vertex  1.500000e+001 -2.000000e+001 -7.450000e+001
      vertex  1.500000e+001 -1.959808e+001 -7.600000e+001
      vertex  1.500000e+001  0.000000e+000 -7.750000e+001
    endloop
  endfacet
  facet normal  1.000000e+000  0.000000e+000  0.000000e+000
    outer loop
      vertex  1.500000e+001  0.000000e+000 -7.750000e+001
      vertex  1.500000e+001 -1.959808e+001 -7.600000e+001
      vertex  1.500000e+001 -1.850000e+001 -7.709808e+001
    endloop
  endfacet
  facet normal  1.000000e+000  0.000000e+000  0.000000e+000
    outer loop
      vertex  1.500000e+001  0.000000e+000 -7.750000e+001
      vertex  1.500000e+001 -1.850000e+001 -7.709808e+001
      vertex  1.500000e+001 -1.700000e+001 -7.750000e+001
    endloop
  endfacet
  facet normal -9.999999e-001  0.000000e+000  0.000000e+000
    outer loop
      vertex -1.500000e+001 -2.300000e+001 -2.000000e+001
      vertex -1.500000e+001 -5.400000e+001 -2.000000e+001
      vertex -1.500000e+001 -5.550000e+001 -1.959808e+001
    endloop
  endfacet
  facet normal -1.000000e+000  0.000000e+000  0.000000e+000
    outer loop
      vertex -1.500000e+001 -2.300000e+001 -2.000000e+001
      vertex -1.500000e+001 -5.550000e+001 -1.959808e+001
      vertex -1.500000e+001 -5.659808e+001 -1.850000e+001
    endloop
  endfacet
  facet normal -1.000000e+000  0.000000e+000  0.000000e+000
    outer loop
      vertex -1.500000e+001 -2.300000e+001 -2.000000e+001
      vertex -1.500000e+001 -5.659808e+001 -1.850000e+001
      vertex -1.500000e+001 -5.700000e+001 -1.700000e+001
    endloop
  endfacet
  facet normal -1.000000e+000  0.000000e+000  0.000000e+000
    outer loop
      vertex -1.500000e+001 -2.300000e+001 -2.000000e+001
      vertex -1.500000e+001 -5.700000e+001 -1.700000e+001
      vertex -1.500000e+001 -5.700000e+001 -5.000000e+000
    endloop
  endfacet
  facet normal -1.000000e+000  0.000000e+000  0.000000e+000
    outer loop
      vertex -1.500000e+001 -2.300000e+001 -2.000000e+001
      vertex -1.500000e+001 -5.700000e+001 -5.000000e+000
      vertex -1.500000e+001 -3.712000e+001 -5.000000e+000
    endloop
  endfacet
  facet normal -1.000000e+000  0.000000e+000  0.000000e+000
    outer loop
      vertex -1.500000e+001 -2.300000e+001 -2.000000e+001
      vertex -1.500000e+001 -3.712000e+001 -5.000000e+000
      vertex -1.500000e+001 -2.150000e+001 -2.040192e+001
    endloop
  endfacet
  facet normal -1.000000e+000  0.000000e+000  0.000000e+000
    outer loop
      vertex -1.500000e+001  0.000000e+000  0.000000e+000
      vertex -1.500000e+001  0.000000e+000 -7.750000e+001
      vertex -1.500000e+001 -2.000000e+001 -7.450000e+001
    endloop
  endfacet
  facet normal -1.000000e+000  0.000000e+000  0.000000e+000
    outer loop
      vertex -1.500000e+001  0.000000e+000  0.000000e+000
      vertex -1.500000e+001 -2.000000e+001 -7.450000e+001
      vertex -1.500000e+001 -2.000000e+001 -2.300000e+001
    endloop
  endfacet
  facet normal -1.000000e+000  0.000000e+000  0.000000e+000
    outer loop
      vertex -1.500000e+001  0.000000e+000  0.000000e+000
      vertex -1.500000e+001 -2.000000e+001 -2.300000e+001
      vertex -1.500000e+001 -2.040192e+001 -2.150000e+001
    endloop
  endfacet
  facet normal -1.000000e+000  0.000000e+000  0.000000e+000
    outer loop
      vertex -1.500000e+001  0.000000e+000  0.000000e+000
      vertex -1.500000e+001 -2.040192e+001 -2.150000e+001
      vertex -1.500000e+001 -2.150000e+001 -2.040192e+001
    endloop
  endfacet
  facet normal -1.000000e+000  0.000000e+000  0.000000e+000
    outer loop
      vertex -1.500000e+001  0.000000e+000  0.000000e+000
      vertex -1.500000e+001 -2.150000e+001 -2.040192e+001
      vertex -1.500000e+001 -3.712000e+001 -5.000000e+000
    endloop
  endfacet
  facet normal -9.999999e-001  0.000000e+000  0.000000e+000
    outer loop
      vertex -1.500000e+001  0.000000e+000  0.000000e+000
      vertex -1.500000e+001 -3.712000e+001 -5.000000e+000
      vertex -1.500000e+001 -3.712000e+001  8.881784e-016
    endloop
  endfacet
  facet normal -1.000000e+000  0.000000e+000  0.000000e+000
    outer loop
      vertex -1.500000e+001 -1.700000e+001 -7.750000e+001
      vertex -1.500000e+001 -1.850000e+001 -7.709808e+001
      vertex -1.500000e+001  0.000000e+000 -7.750000e+001
    endloop
  endfacet
  facet normal -1.000000e+000  0.000000e+000  0.000000e+000
    outer loop
      vertex -1.500000e+001  0.000000e+000 -7.750000e+001
      vertex -1.500000e+001 -1.850000e+001 -7.709808e+001
      vertex -1.500000e+001 -1.959808e+001 -7.600000e+001
    endloop
  endfacet
  facet normal -1.000000e+000  0.000000e+000  0.000000e+000
    outer loop
      vertex -1.500000e+001  0.000000e+000 -7.750000e+001
      vertex -1.500000e+001 -1.959808e+001 -7.600000e+001
      vertex -1.500000e+001 -2.000000e+001 -7.450000e+001
    endloop
  endfacet
  facet normal  0.000000e+000 -1.000000e+000  -0.000000e+000
    outer loop
      vertex  1.500000e+001 -3.712000e+001 -5.000000e+000
      vertex  1.500000e+001 -3.712000e+001  0.000000e+000
      vertex -1.500000e+001 -3.712000e+001 -5.000000e+000
    endloop
  endfacet
  facet normal  0.000000e+000 -1.000000e+000  0.000000e+000
    outer loop
      vertex -1.500000e+001 -3.712000e+001 -5.000000e+000
      vertex  1.500000e+001 -3.712000e+001  0.000000e+000
      vertex -1.500000e+001 -3.712000e+001  8.881784e-016
    endloop
  endfacet
  facet normal  -0.000000e+000 -2.588193e-001 -9.659258e-001
    outer loop
      vertex -1.500000e+001 -5.400000e+001 -2.000000e+001
      vertex  1.500000e+001 -5.400000e+001 -2.000000e+001
      vertex -1.500000e+001 -5.550000e+001 -1.959808e+001
    endloop
  endfacet
  facet normal  0.000000e+000 -2.588193e-001 -9.659258e-001
    outer loop
      vertex -1.500000e+001 -5.550000e+001 -1.959808e+001
      vertex  1.500000e+001 -5.400000e+001 -2.000000e+001
      vertex  1.500000e+001 -5.550000e+001 -1.959808e+001
    endloop
  endfacet
  facet normal  -0.000000e+000 -7.071068e-001 -7.071068e-001
    outer loop
      vertex -1.500000e+001 -5.550000e+001 -1.959808e+001
      vertex  1.500000e+001 -5.550000e+001 -1.959808e+001
      vertex -1.500000e+001 -5.659808e+001 -1.850000e+001
    endloop
  endfacet
  facet normal  0.000000e+000 -7.071068e-001 -7.071068e-001
    outer loop
      vertex -1.500000e+001 -5.659808e+001 -1.850000e+001
      vertex  1.500000e+001 -5.550000e+001 -1.959808e+001
      vertex  1.500000e+001 -5.659808e+001 -1.850000e+001
    endloop
  endfacet
  facet normal  -0.000000e+000 -9.659258e-001 -2.588193e-001
    outer loop
      vertex -1.500000e+001 -5.659808e+001 -1.850000e+001
      vertex  1.500000e+001 -5.659808e+001 -1.850000e+001
      vertex -1.500000e+001 -5.700000e+001 -1.700000e+001
    endloop
  endfacet
  facet normal  0.000000e+000 -9.659258e-001 -2.588193e-001
    outer loop
      vertex -1.500000e+001 -5.700000e+001 -1.700000e+001
      vertex  1.500000e+001 -5.659808e+001 -1.850000e+001
      vertex  1.500000e+001 -5.700000e+001 -1.700000e+001
    endloop
  endfacet
  facet normal  0.000000e+000  0.000000e+000 -1.000000e+000
    outer loop
      vertex -1.500000e+001 -1.700000e+001 -7.750000e+001
      vertex -1.500000e+001  0.000000e+000 -7.750000e+001
      vertex  1.500000e+001 -1.700000e+001 -7.750000e+001
    endloop
  endfacet
  facet normal  0.000000e+000  0.000000e+000 -1.000000e+000
    outer loop
      vertex  1.500000e+001 -1.700000e+001 -7.750000e+001
      vertex -1.500000e+001  0.000000e+000 -7.750000e+001
      vertex  1.500000e+001  0.000000e+000 -7.750000e+001
    endloop
  endfacet
  facet normal  -0.000000e+000 -2.588193e-001 -9.659258e-001
    outer loop
      vertex -1.500000e+001 -1.700000e+001 -7.750000e+001
      vertex  1.500000e+001 -1.700000e+001 -7.750000e+001
      vertex -1.500000e+001 -1.850000e+001 -7.709808e+001
    endloop
  endfacet
  facet normal  0.000000e+000 -2.588193e-001 -9.659258e-001
    outer loop
      vertex -1.500000e+001 -1.850000e+001 -7.709808e+001
      vertex  1.500000e+001 -1.700000e+001 -7.750000e+001
      vertex  1.500000e+001 -1.850000e+001 -7.709808e+001
    endloop
  endfacet
  facet normal  -0.000000e+000 -7.071068e-001 -7.071068e-001
    outer loop
      vertex -1.500000e+001 -1.850000e+001 -7.709808e+001
      vertex  1.500000e+001 -1.850000e+001 -7.709808e+001
      vertex -1.500000e+001 -1.959808e+001 -7.600000e+001
    endloop
  endfacet
  facet normal  0.000000e+000 -7.071068e-001 -7.071068e-001
    outer loop
      vertex -1.500000e+001 -1.959808e+001 -7.600000e+001
      vertex  1.500000e+001 -1.850000e+001 -7.709808e+001
      vertex  1.500000e+001 -1.959808e+001 -7.600000e+001
    endloop
  endfacet
  facet normal  -0.000000e+000 -9.659258e-001 -2.588193e-001
    outer loop
      vertex -1.500000e+001 -1.959808e+001 -7.600000e+001
      vertex  1.500000e+001 -1.959808e+001 -7.600000e+001
      vertex -1.500000e+001 -2.000000e+001 -7.450000e+001
    endloop
  endfacet
  facet normal  0.000000e+000 -9.659258e-001 -2.588193e-001
    outer loop
      vertex -1.500000e+001 -2.000000e+001 -7.450000e+001
      vertex  1.500000e+001 -1.959808e+001 -7.600000e+001
      vertex  1.500000e+001 -2.000000e+001 -7.450000e+001
    endloop
  endfacet
endsolid CATIA STL
