solid CATIA STL
  facet normal -1.000000e+000  0.000000e+000  -0.000000e+000
    outer loop
      vertex -2.700000e+001 -5.543185e-001  4.294835e+001
      vertex -2.700000e+001  6.140926e-001  5.173373e+001
      vertex -2.700000e+001  1.284540e+000  4.271108e+001
    endloop
  endfacet
  facet normal -1.000000e+000  0.000000e+000  -0.000000e+000
    outer loop
      vertex -2.700000e+001 -6.140926e-001  2.826627e+001
      vertex -2.700000e+001  5.543185e-001  3.705165e+001
      vertex -2.700000e+001  1.423056e+000  2.800343e+001
    endloop
  endfacet
  facet normal -1.000000e+000  0.000000e+000  0.000000e+000
    outer loop
      vertex -2.700000e+001  2.916646e+000  2.659337e+001
      vertex -2.700000e+001  1.423056e+000  2.800343e+001
      vertex -2.700000e+001  5.543185e-001  3.705165e+001
    endloop
  endfacet
  facet normal -1.000000e+000  0.000000e+000  0.000000e+000
    outer loop
      vertex -2.700000e+001  2.632748e+000  1.143828e+001
      vertex -2.700000e+001  1.284540e+000  1.271108e+001
      vertex -2.700000e+001  6.140926e-001  2.173373e+001
    endloop
  endfacet
  facet normal -1.000000e+000  0.000000e+000  0.000000e+000
    outer loop
      vertex -2.700000e+001  1.000000e+001  7.500000e+001
      vertex -2.700000e+001  1.000000e+001  0.000000e+000
      vertex -2.700000e+001  3.296176e+000  5.457470e+001
    endloop
  endfacet
  facet normal -1.000000e+000  0.000000e+000  0.000000e+000
    outer loop
      vertex -2.700000e+001  1.000000e+001  7.500000e+001
      vertex -2.700000e+001  3.296176e+000  5.457470e+001
      vertex -2.700000e+001  2.916646e+000  5.659337e+001
    endloop
  endfacet
  facet normal -1.000000e+000  0.000000e+000  0.000000e+000
    outer loop
      vertex -2.700000e+001  1.000000e+001  7.500000e+001
      vertex -2.700000e+001  2.916646e+000  5.659337e+001
      vertex -2.700000e+001  1.423056e+000  5.800343e+001
    endloop
  endfacet
  facet normal -1.000000e+000  0.000000e+000  0.000000e+000
    outer loop
      vertex -2.700000e+001  1.000000e+001  7.500000e+001
      vertex -2.700000e+001  1.423056e+000  5.800343e+001
      vertex -2.700000e+001 -1.000000e+001  7.500000e+001
    endloop
  endfacet
  facet normal -1.000000e+000  0.000000e+000  -0.000000e+000
    outer loop
      vertex -2.700000e+001 -1.000000e+001  0.000000e+000
      vertex -2.700000e+001 -3.296176e+000  5.542530e+001
      vertex -2.700000e+001 -2.916646e+000  5.340663e+001
    endloop
  endfacet
  facet normal -1.000000e+000  0.000000e+000  -0.000000e+000
    outer loop
      vertex -2.700000e+001 -1.000000e+001  0.000000e+000
      vertex -2.700000e+001 -2.916646e+000  5.340663e+001
      vertex -2.700000e+001 -1.423056e+000  5.199657e+001
    endloop
  endfacet
  facet normal -1.000000e+000  0.000000e+000  0.000000e+000
    outer loop
      vertex -2.700000e+001 -1.000000e+001  0.000000e+000
      vertex -2.700000e+001 -1.423056e+000  5.199657e+001
      vertex -2.700000e+001 -2.975335e+000  4.038390e+001
    endloop
  endfacet
  facet normal -1.000000e+000  0.000000e+000  -0.000000e+000
    outer loop
      vertex -2.700000e+001 -1.000000e+001  0.000000e+000
      vertex -2.700000e+001 -2.975335e+000  4.038390e+001
      vertex -2.700000e+001 -2.632748e+000  3.856172e+001
    endloop
  endfacet
  facet normal -1.000000e+000  0.000000e+000  -0.000000e+000
    outer loop
      vertex -2.700000e+001 -1.000000e+001  0.000000e+000
      vertex -2.700000e+001 -2.632748e+000  3.856172e+001
      vertex -2.700000e+001 -1.284540e+000  3.728892e+001
    endloop
  endfacet
  facet normal -1.000000e+000  0.000000e+000  0.000000e+000
    outer loop
      vertex -2.700000e+001 -1.000000e+001  0.000000e+000
      vertex -2.700000e+001 -1.284540e+000  3.728892e+001
      vertex -2.700000e+001 -3.296176e+000  2.542530e+001
    endloop
  endfacet
  facet normal -1.000000e+000  0.000000e+000  -0.000000e+000
    outer loop
      vertex -2.700000e+001 -1.000000e+001  0.000000e+000
      vertex -2.700000e+001 -3.296176e+000  2.542530e+001
      vertex -2.700000e+001 -2.916646e+000  2.340663e+001
    endloop
  endfacet
  facet normal -1.000000e+000  0.000000e+000  -0.000000e+000
    outer loop
      vertex -2.700000e+001 -1.000000e+001  0.000000e+000
      vertex -2.700000e+001 -2.916646e+000  2.340663e+001
      vertex -2.700000e+001 -1.423056e+000  2.199657e+001
    endloop
  endfacet
  facet normal -1.000000e+000  0.000000e+000  0.000000e+000
    outer loop
      vertex -2.700000e+001 -1.000000e+001  0.000000e+000
      vertex -2.700000e+001 -1.423056e+000  2.199657e+001
      vertex -2.700000e+001 -2.181446e+000  1.205944e+001
    endloop
  endfacet
  facet normal -1.000000e+000  0.000000e+000  0.000000e+000
    outer loop
      vertex -2.700000e+001 -1.000000e+001  0.000000e+000
      vertex -2.700000e+001 -2.181446e+000  1.205944e+001
      vertex -2.700000e+001 -2.975335e+000  1.038390e+001
    endloop
  endfacet
  facet normal -1.000000e+000  0.000000e+000  -0.000000e+000
    outer loop
      vertex -2.700000e+001 -1.000000e+001  0.000000e+000
      vertex -2.700000e+001 -2.975335e+000  1.038390e+001
      vertex -2.700000e+001 -2.632748e+000  8.561724e+000
    endloop
  endfacet
  facet normal -1.000000e+000  0.000000e+000  -0.000000e+000
    outer loop
      vertex -2.700000e+001 -1.000000e+001  0.000000e+000
      vertex -2.700000e+001 -2.632748e+000  8.561724e+000
      vertex -2.700000e+001 -1.284540e+000  7.288919e+000
    endloop
  endfacet
  facet normal -9.999999e-001  0.000000e+000  -0.000000e+000
    outer loop
      vertex -2.700000e+001 -1.000000e+001  0.000000e+000
      vertex -2.700000e+001 -1.284540e+000  7.288919e+000
      vertex -2.700000e+001  5.543185e-001  7.051656e+000
    endloop
  endfacet
  facet normal -1.000000e+000  0.000000e+000  -0.000000e+000
    outer loop
      vertex -2.700000e+001 -1.000000e+001  0.000000e+000
      vertex -2.700000e+001  5.543185e-001  7.051656e+000
      vertex -2.700000e+001  1.000000e+001  0.000000e+000
    endloop
  endfacet
  facet normal -1.000000e+000  0.000000e+000  0.000000e+000
    outer loop
      vertex -2.700000e+001 -1.000000e+001  7.500000e+001
      vertex -2.700000e+001  1.423056e+000  5.800343e+001
      vertex -2.700000e+001 -6.140926e-001  5.826627e+001
    endloop
  endfacet
  facet normal -1.000000e+000  -0.000000e+000  0.000000e+000
    outer loop
      vertex -2.700000e+001 -1.000000e+001  7.500000e+001
      vertex -2.700000e+001 -6.140926e-001  5.826627e+001
      vertex -2.700000e+001 -2.416679e+000  5.728152e+001
    endloop
  endfacet
  facet normal -9.999999e-001  -0.000000e+000  0.000000e+000
    outer loop
      vertex -2.700000e+001 -1.000000e+001  7.500000e+001
      vertex -2.700000e+001 -2.416679e+000  5.728152e+001
      vertex -2.700000e+001 -3.296176e+000  5.542530e+001
    endloop
  endfacet
  facet normal -1.000000e+000  -0.000000e+000  0.000000e+000
    outer loop
      vertex -2.700000e+001 -1.000000e+001  7.500000e+001
      vertex -2.700000e+001 -3.296176e+000  5.542530e+001
      vertex -2.700000e+001 -1.000000e+001  0.000000e+000
    endloop
  endfacet
  facet normal -1.000000e+000  0.000000e+000  0.000000e+000
    outer loop
      vertex -2.700000e+001  1.000000e+001  0.000000e+000
      vertex -2.700000e+001  5.543185e-001  7.051656e+000
      vertex -2.700000e+001  2.181446e+000  7.940560e+000
    endloop
  endfacet
  facet normal -1.000000e+000  0.000000e+000  0.000000e+000
    outer loop
      vertex -2.700000e+001  1.000000e+001  0.000000e+000
      vertex -2.700000e+001  2.181446e+000  7.940560e+000
      vertex -2.700000e+001  2.975335e+000  9.616100e+000
    endloop
  endfacet
  facet normal -1.000000e+000  0.000000e+000  0.000000e+000
    outer loop
      vertex -2.700000e+001  1.000000e+001  0.000000e+000
      vertex -2.700000e+001  2.975335e+000  9.616100e+000
      vertex -2.700000e+001  2.632748e+000  1.143828e+001
    endloop
  endfacet
  facet normal -1.000000e+000  0.000000e+000  0.000000e+000
    outer loop
      vertex -2.700000e+001  1.000000e+001  0.000000e+000
      vertex -2.700000e+001  2.632748e+000  1.143828e+001
      vertex -2.700000e+001  6.140926e-001  2.173373e+001
    endloop
  endfacet
  facet normal -1.000000e+000  0.000000e+000  0.000000e+000
    outer loop
      vertex -2.700000e+001  1.000000e+001  0.000000e+000
      vertex -2.700000e+001  6.140926e-001  2.173373e+001
      vertex -2.700000e+001  2.416679e+000  2.271848e+001
    endloop
  endfacet
  facet normal -1.000000e+000  0.000000e+000  0.000000e+000
    outer loop
      vertex -2.700000e+001  1.000000e+001  0.000000e+000
      vertex -2.700000e+001  2.416679e+000  2.271848e+001
      vertex -2.700000e+001  3.296176e+000  2.457470e+001
    endloop
  endfacet
  facet normal -1.000000e+000  0.000000e+000  0.000000e+000
    outer loop
      vertex -2.700000e+001  1.000000e+001  0.000000e+000
      vertex -2.700000e+001  3.296176e+000  2.457470e+001
      vertex -2.700000e+001  2.916646e+000  2.659337e+001
    endloop
  endfacet
  facet normal -1.000000e+000  0.000000e+000  0.000000e+000
    outer loop
      vertex -2.700000e+001  1.000000e+001  0.000000e+000
      vertex -2.700000e+001  2.916646e+000  2.659337e+001
      vertex -2.700000e+001  5.543185e-001  3.705165e+001
    endloop
  endfacet
  facet normal -1.000000e+000  0.000000e+000  0.000000e+000
    outer loop
      vertex -2.700000e+001  1.000000e+001  0.000000e+000
      vertex -2.700000e+001  5.543185e-001  3.705165e+001
      vertex -2.700000e+001  2.181446e+000  3.794056e+001
    endloop
  endfacet
  facet normal -1.000000e+000  0.000000e+000  0.000000e+000
    outer loop
      vertex -2.700000e+001  1.000000e+001  0.000000e+000
      vertex -2.700000e+001  2.181446e+000  3.794056e+001
      vertex -2.700000e+001  2.975335e+000  3.961610e+001
    endloop
  endfacet
  facet normal -1.000000e+000  0.000000e+000  0.000000e+000
    outer loop
      vertex -2.700000e+001  1.000000e+001  0.000000e+000
      vertex -2.700000e+001  2.975335e+000  3.961610e+001
      vertex -2.700000e+001  2.416679e+000  5.271848e+001
    endloop
  endfacet
  facet normal -1.000000e+000  0.000000e+000  0.000000e+000
    outer loop
      vertex -2.700000e+001  1.000000e+001  0.000000e+000
      vertex -2.700000e+001  2.416679e+000  5.271848e+001
      vertex -2.700000e+001  3.296176e+000  5.457470e+001
    endloop
  endfacet
  facet normal -1.000000e+000  0.000000e+000  0.000000e+000
    outer loop
      vertex -2.700000e+001  6.140926e-001  5.173373e+001
      vertex -2.700000e+001 -5.543185e-001  4.294835e+001
      vertex -2.700000e+001 -1.423056e+000  5.199657e+001
    endloop
  endfacet
  facet normal -1.000000e+000  0.000000e+000  -0.000000e+000
    outer loop
      vertex -2.700000e+001 -1.423056e+000  5.199657e+001
      vertex -2.700000e+001 -5.543185e-001  4.294835e+001
      vertex -2.700000e+001 -2.181446e+000  4.205944e+001
    endloop
  endfacet
  facet normal -1.000000e+000  -0.000000e+000  0.000000e+000
    outer loop
      vertex -2.700000e+001 -1.423056e+000  5.199657e+001
      vertex -2.700000e+001 -2.181446e+000  4.205944e+001
      vertex -2.700000e+001 -2.975335e+000  4.038390e+001
    endloop
  endfacet
  facet normal -1.000000e+000  0.000000e+000  0.000000e+000
    outer loop
      vertex -2.700000e+001  5.543185e-001  3.705165e+001
      vertex -2.700000e+001 -6.140926e-001  2.826627e+001
      vertex -2.700000e+001 -1.284540e+000  3.728892e+001
    endloop
  endfacet
  facet normal -1.000000e+000  0.000000e+000  -0.000000e+000
    outer loop
      vertex -2.700000e+001 -1.284540e+000  3.728892e+001
      vertex -2.700000e+001 -6.140926e-001  2.826627e+001
      vertex -2.700000e+001 -2.416679e+000  2.728152e+001
    endloop
  endfacet
  facet normal -1.000000e+000  -0.000000e+000  0.000000e+000
    outer loop
      vertex -2.700000e+001 -1.284540e+000  3.728892e+001
      vertex -2.700000e+001 -2.416679e+000  2.728152e+001
      vertex -2.700000e+001 -3.296176e+000  2.542530e+001
    endloop
  endfacet
  facet normal -1.000000e+000  0.000000e+000  -0.000000e+000
    outer loop
      vertex -2.700000e+001 -2.181446e+000  1.205944e+001
      vertex -2.700000e+001 -1.423056e+000  2.199657e+001
      vertex -2.700000e+001 -5.543185e-001  1.294834e+001
    endloop
  endfacet
  facet normal -1.000000e+000  0.000000e+000  0.000000e+000
    outer loop
      vertex -2.700000e+001 -5.543185e-001  1.294834e+001
      vertex -2.700000e+001 -1.423056e+000  2.199657e+001
      vertex -2.700000e+001  6.140926e-001  2.173373e+001
    endloop
  endfacet
  facet normal -1.000000e+000  0.000000e+000  -0.000000e+000
    outer loop
      vertex -2.700000e+001 -5.543185e-001  1.294834e+001
      vertex -2.700000e+001  6.140926e-001  2.173373e+001
      vertex -2.700000e+001  1.284540e+000  1.271108e+001
    endloop
  endfacet
  facet normal -1.000000e+000  0.000000e+000  0.000000e+000
    outer loop
      vertex -2.700000e+001  1.284540e+000  4.271108e+001
      vertex -2.700000e+001  6.140926e-001  5.173373e+001
      vertex -2.700000e+001  2.632748e+000  4.143828e+001
    endloop
  endfacet
  facet normal -1.000000e+000  0.000000e+000  0.000000e+000
    outer loop
      vertex -2.700000e+001  2.632748e+000  4.143828e+001
      vertex -2.700000e+001  6.140926e-001  5.173373e+001
      vertex -2.700000e+001  2.416679e+000  5.271848e+001
    endloop
  endfacet
  facet normal -1.000000e+000  0.000000e+000  0.000000e+000
    outer loop
      vertex -2.700000e+001  2.632748e+000  4.143828e+001
      vertex -2.700000e+001  2.416679e+000  5.271848e+001
      vertex -2.700000e+001  2.975335e+000  3.961610e+001
    endloop
  endfacet
  facet normal  0.000000e+000 -9.036936e-001  4.281797e-001
    outer loop
      vertex -2.700000e+001  2.416679e+000  2.271848e+001
      vertex -7.000000e+000  3.296176e+000  2.457470e+001
      vertex -2.700000e+001  3.296176e+000  2.457470e+001
    endloop
  endfacet
  facet normal  0.000000e+000 -9.827812e-001 -1.847730e-001
    outer loop
      vertex -2.700000e+001  3.296176e+000  2.457470e+001
      vertex -7.000000e+000  3.296176e+000  2.457470e+001
      vertex -7.000000e+000  2.916646e+000  2.659337e+001
    endloop
  endfacet
  facet normal  -0.000000e+000 -9.827812e-001 -1.847730e-001
    outer loop
      vertex -2.700000e+001  3.296176e+000  2.457470e+001
      vertex -7.000000e+000  2.916646e+000  2.659337e+001
      vertex -2.700000e+001  2.916646e+000  2.659337e+001
    endloop
  endfacet
  facet normal  0.000000e+000 -9.036936e-001  4.281797e-001
    outer loop
      vertex -7.000000e+000  3.296176e+000  2.457470e+001
      vertex -2.700000e+001  2.416679e+000  2.271848e+001
      vertex -7.000000e+000  2.416679e+000  2.271848e+001
    endloop
  endfacet
  facet normal  0.000000e+000 -4.794253e-001  8.775827e-001
    outer loop
      vertex -7.000000e+000  2.416679e+000  2.271848e+001
      vertex -2.700000e+001  2.416679e+000  2.271848e+001
      vertex -2.700000e+001  6.140926e-001  2.173373e+001
    endloop
  endfacet
  facet normal  0.000000e+000 -4.794253e-001  8.775827e-001
    outer loop
      vertex -7.000000e+000  2.416679e+000  2.271848e+001
      vertex -2.700000e+001  6.140926e-001  2.173373e+001
      vertex -7.000000e+000  6.140926e-001  2.173373e+001
    endloop
  endfacet
  facet normal  0.000000e+000  1.279666e-001  9.917785e-001
    outer loop
      vertex -7.000000e+000  6.140926e-001  2.173373e+001
      vertex -2.700000e+001  6.140926e-001  2.173373e+001
      vertex -2.700000e+001 -1.423056e+000  2.199657e+001
    endloop
  endfacet
  facet normal  -0.000000e+000  1.279666e-001  9.917785e-001
    outer loop
      vertex -7.000000e+000  6.140926e-001  2.173373e+001
      vertex -2.700000e+001 -1.423056e+000  2.199657e+001
      vertex -7.000000e+000 -1.423056e+000  2.199657e+001
    endloop
  endfacet
  facet normal  0.000000e+000  6.864802e-001  7.271485e-001
    outer loop
      vertex -7.000000e+000 -1.423056e+000  2.199657e+001
      vertex -2.700000e+001 -1.423056e+000  2.199657e+001
      vertex -2.700000e+001 -2.916646e+000  2.340663e+001
    endloop
  endfacet
  facet normal  -0.000000e+000  6.864802e-001  7.271485e-001
    outer loop
      vertex -7.000000e+000 -1.423056e+000  2.199657e+001
      vertex -2.700000e+001 -2.916646e+000  2.340663e+001
      vertex -7.000000e+000 -2.916646e+000  2.340663e+001
    endloop
  endfacet
  facet normal  0.000000e+000  9.036936e-001 -4.281797e-001
    outer loop
      vertex -2.700000e+001 -2.416679e+000  2.728152e+001
      vertex -7.000000e+000 -3.296176e+000  2.542530e+001
      vertex -2.700000e+001 -3.296176e+000  2.542530e+001
    endloop
  endfacet
  facet normal  -0.000000e+000  9.827812e-001  1.847730e-001
    outer loop
      vertex -2.700000e+001 -3.296176e+000  2.542530e+001
      vertex -7.000000e+000 -3.296176e+000  2.542530e+001
      vertex -7.000000e+000 -2.916646e+000  2.340663e+001
    endloop
  endfacet
  facet normal  0.000000e+000  9.827812e-001  1.847730e-001
    outer loop
      vertex -2.700000e+001 -3.296176e+000  2.542530e+001
      vertex -7.000000e+000 -2.916646e+000  2.340663e+001
      vertex -2.700000e+001 -2.916646e+000  2.340663e+001
    endloop
  endfacet
  facet normal  0.000000e+000  9.036936e-001 -4.281797e-001
    outer loop
      vertex -7.000000e+000 -3.296176e+000  2.542530e+001
      vertex -2.700000e+001 -2.416679e+000  2.728152e+001
      vertex -7.000000e+000 -2.416679e+000  2.728152e+001
    endloop
  endfacet
  facet normal  0.000000e+000  4.794253e-001 -8.775827e-001
    outer loop
      vertex -7.000000e+000 -2.416679e+000  2.728152e+001
      vertex -2.700000e+001 -2.416679e+000  2.728152e+001
      vertex -2.700000e+001 -6.140926e-001  2.826627e+001
    endloop
  endfacet
  facet normal  0.000000e+000  4.794253e-001 -8.775827e-001
    outer loop
      vertex -7.000000e+000 -2.416679e+000  2.728152e+001
      vertex -2.700000e+001 -6.140926e-001  2.826627e+001
      vertex -7.000000e+000 -6.140926e-001  2.826627e+001
    endloop
  endfacet
  facet normal  -0.000000e+000 -1.279666e-001 -9.917785e-001
    outer loop
      vertex -7.000000e+000 -6.140926e-001  2.826627e+001
      vertex -2.700000e+001 -6.140926e-001  2.826627e+001
      vertex -2.700000e+001  1.423056e+000  2.800343e+001
    endloop
  endfacet
  facet normal  0.000000e+000 -1.279666e-001 -9.917785e-001
    outer loop
      vertex -7.000000e+000 -6.140926e-001  2.826627e+001
      vertex -2.700000e+001  1.423056e+000  2.800343e+001
      vertex -7.000000e+000  1.423056e+000  2.800343e+001
    endloop
  endfacet
  facet normal  -0.000000e+000 -6.864802e-001 -7.271485e-001
    outer loop
      vertex -7.000000e+000  1.423056e+000  2.800343e+001
      vertex -2.700000e+001  1.423056e+000  2.800343e+001
      vertex -2.700000e+001  2.916646e+000  2.659337e+001
    endloop
  endfacet
  facet normal  0.000000e+000 -6.864802e-001 -7.271485e-001
    outer loop
      vertex -7.000000e+000  1.423056e+000  2.800343e+001
      vertex -2.700000e+001  2.916646e+000  2.659337e+001
      vertex -7.000000e+000  2.916646e+000  2.659337e+001
    endloop
  endfacet
  facet normal -8.548182e-001 -5.099924e-001 -9.588381e-002
    outer loop
      vertex -5.081176e+000  0.000000e+000  2.500000e+001
      vertex -7.000000e+000  2.916646e+000  2.659337e+001
      vertex -7.000000e+000  3.296176e+000  2.457470e+001
    endloop
  endfacet
  facet normal -8.548182e-001 -4.689516e-001  2.221943e-001
    outer loop
      vertex -5.081176e+000  0.000000e+000  2.500000e+001
      vertex -7.000000e+000  3.296176e+000  2.457470e+001
      vertex -7.000000e+000  2.416679e+000  2.271848e+001
    endloop
  endfacet
  facet normal -8.548182e-001 -2.487870e-001  4.554019e-001
    outer loop
      vertex -5.081176e+000  0.000000e+000  2.500000e+001
      vertex -7.000000e+000  2.416679e+000  2.271848e+001
      vertex -7.000000e+000  6.140926e-001  2.173373e+001
    endloop
  endfacet
  facet normal -8.548181e-001  6.640538e-002  5.146613e-001
    outer loop
      vertex -5.081176e+000  0.000000e+000  2.500000e+001
      vertex -7.000000e+000  6.140926e-001  2.173373e+001
      vertex -7.000000e+000 -1.423056e+000  2.199657e+001
    endloop
  endfacet
  facet normal -8.548182e-001  3.562335e-001  3.773375e-001
    outer loop
      vertex -5.081176e+000  0.000000e+000  2.500000e+001
      vertex -7.000000e+000 -1.423056e+000  2.199657e+001
      vertex -7.000000e+000 -2.916646e+000  2.340663e+001
    endloop
  endfacet
  facet normal -8.548182e-001  5.099924e-001  9.588381e-002
    outer loop
      vertex -5.081176e+000  0.000000e+000  2.500000e+001
      vertex -7.000000e+000 -2.916646e+000  2.340663e+001
      vertex -7.000000e+000 -3.296176e+000  2.542530e+001
    endloop
  endfacet
  facet normal -8.548182e-001  4.689516e-001 -2.221943e-001
    outer loop
      vertex -5.081176e+000  0.000000e+000  2.500000e+001
      vertex -7.000000e+000 -3.296176e+000  2.542530e+001
      vertex -7.000000e+000 -2.416679e+000  2.728152e+001
    endloop
  endfacet
  facet normal -8.548182e-001  2.487870e-001 -4.554019e-001
    outer loop
      vertex -5.081176e+000  0.000000e+000  2.500000e+001
      vertex -7.000000e+000 -2.416679e+000  2.728152e+001
      vertex -7.000000e+000 -6.140926e-001  2.826627e+001
    endloop
  endfacet
  facet normal -8.548181e-001 -6.640538e-002 -5.146613e-001
    outer loop
      vertex -5.081176e+000  0.000000e+000  2.500000e+001
      vertex -7.000000e+000 -6.140926e-001  2.826627e+001
      vertex -7.000000e+000  1.423056e+000  2.800343e+001
    endloop
  endfacet
  facet normal -8.548182e-001 -3.562335e-001 -3.773375e-001
    outer loop
      vertex -5.081176e+000  0.000000e+000  2.500000e+001
      vertex -7.000000e+000  1.423056e+000  2.800343e+001
      vertex -7.000000e+000  2.916646e+000  2.659337e+001
    endloop
  endfacet
  facet normal  0.000000e+000  9.036936e-001 -4.281797e-001
    outer loop
      vertex -2.700000e+001 -2.416679e+000  5.728152e+001
      vertex -7.000000e+000 -3.296176e+000  5.542530e+001
      vertex -2.700000e+001 -3.296176e+000  5.542530e+001
    endloop
  endfacet
  facet normal  -0.000000e+000  9.827812e-001  1.847728e-001
    outer loop
      vertex -2.700000e+001 -3.296176e+000  5.542530e+001
      vertex -7.000000e+000 -3.296176e+000  5.542530e+001
      vertex -7.000000e+000 -2.916646e+000  5.340663e+001
    endloop
  endfacet
  facet normal  0.000000e+000  9.827812e-001  1.847728e-001
    outer loop
      vertex -2.700000e+001 -3.296176e+000  5.542530e+001
      vertex -7.000000e+000 -2.916646e+000  5.340663e+001
      vertex -2.700000e+001 -2.916646e+000  5.340663e+001
    endloop
  endfacet
  facet normal  0.000000e+000  9.036936e-001 -4.281797e-001
    outer loop
      vertex -7.000000e+000 -3.296176e+000  5.542530e+001
      vertex -2.700000e+001 -2.416679e+000  5.728152e+001
      vertex -7.000000e+000 -2.416679e+000  5.728152e+001
    endloop
  endfacet
  facet normal  0.000000e+000  4.794253e-001 -8.775827e-001
    outer loop
      vertex -7.000000e+000 -2.416679e+000  5.728152e+001
      vertex -2.700000e+001 -2.416679e+000  5.728152e+001
      vertex -2.700000e+001 -6.140926e-001  5.826627e+001
    endloop
  endfacet
  facet normal  0.000000e+000  4.794253e-001 -8.775827e-001
    outer loop
      vertex -7.000000e+000 -2.416679e+000  5.728152e+001
      vertex -2.700000e+001 -6.140926e-001  5.826627e+001
      vertex -7.000000e+000 -6.140926e-001  5.826627e+001
    endloop
  endfacet
  facet normal  -0.000000e+000 -1.279666e-001 -9.917785e-001
    outer loop
      vertex -7.000000e+000 -6.140926e-001  5.826627e+001
      vertex -2.700000e+001 -6.140926e-001  5.826627e+001
      vertex -2.700000e+001  1.423056e+000  5.800343e+001
    endloop
  endfacet
  facet normal  0.000000e+000 -1.279666e-001 -9.917785e-001
    outer loop
      vertex -7.000000e+000 -6.140926e-001  5.826627e+001
      vertex -2.700000e+001  1.423056e+000  5.800343e+001
      vertex -7.000000e+000  1.423056e+000  5.800343e+001
    endloop
  endfacet
  facet normal  -0.000000e+000 -6.864797e-001 -7.271490e-001
    outer loop
      vertex -7.000000e+000  1.423056e+000  5.800343e+001
      vertex -2.700000e+001  1.423056e+000  5.800343e+001
      vertex -2.700000e+001  2.916646e+000  5.659337e+001
    endloop
  endfacet
  facet normal  0.000000e+000 -6.864797e-001 -7.271490e-001
    outer loop
      vertex -7.000000e+000  1.423056e+000  5.800343e+001
      vertex -2.700000e+001  2.916646e+000  5.659337e+001
      vertex -7.000000e+000  2.916646e+000  5.659337e+001
    endloop
  endfacet
  facet normal  0.000000e+000 -9.036936e-001  4.281797e-001
    outer loop
      vertex -2.700000e+001  2.416679e+000  5.271848e+001
      vertex -7.000000e+000  3.296176e+000  5.457470e+001
      vertex -2.700000e+001  3.296176e+000  5.457470e+001
    endloop
  endfacet
  facet normal  0.000000e+000 -9.827812e-001 -1.847728e-001
    outer loop
      vertex -2.700000e+001  3.296176e+000  5.457470e+001
      vertex -7.000000e+000  3.296176e+000  5.457470e+001
      vertex -7.000000e+000  2.916646e+000  5.659337e+001
    endloop
  endfacet
  facet normal  -0.000000e+000 -9.827812e-001 -1.847728e-001
    outer loop
      vertex -2.700000e+001  3.296176e+000  5.457470e+001
      vertex -7.000000e+000  2.916646e+000  5.659337e+001
      vertex -2.700000e+001  2.916646e+000  5.659337e+001
    endloop
  endfacet
  facet normal  0.000000e+000 -9.036936e-001  4.281797e-001
    outer loop
      vertex -7.000000e+000  3.296176e+000  5.457470e+001
      vertex -2.700000e+001  2.416679e+000  5.271848e+001
      vertex -7.000000e+000  2.416679e+000  5.271848e+001
    endloop
  endfacet
  facet normal  0.000000e+000 -4.794253e-001  8.775827e-001
    outer loop
      vertex -7.000000e+000  2.416679e+000  5.271848e+001
      vertex -2.700000e+001  2.416679e+000  5.271848e+001
      vertex -2.700000e+001  6.140926e-001  5.173373e+001
    endloop
  endfacet
  facet normal  0.000000e+000 -4.794253e-001  8.775827e-001
    outer loop
      vertex -7.000000e+000  2.416679e+000  5.271848e+001
      vertex -2.700000e+001  6.140926e-001  5.173373e+001
      vertex -7.000000e+000  6.140926e-001  5.173373e+001
    endloop
  endfacet
  facet normal  0.000000e+000  1.279666e-001  9.917785e-001
    outer loop
      vertex -7.000000e+000  6.140926e-001  5.173373e+001
      vertex -2.700000e+001  6.140926e-001  5.173373e+001
      vertex -2.700000e+001 -1.423056e+000  5.199657e+001
    endloop
  endfacet
  facet normal  -0.000000e+000  1.279666e-001  9.917785e-001
    outer loop
      vertex -7.000000e+000  6.140926e-001  5.173373e+001
      vertex -2.700000e+001 -1.423056e+000  5.199657e+001
      vertex -7.000000e+000 -1.423056e+000  5.199657e+001
    endloop
  endfacet
  facet normal  0.000000e+000  6.864797e-001  7.271490e-001
    outer loop
      vertex -7.000000e+000 -1.423056e+000  5.199657e+001
      vertex -2.700000e+001 -1.423056e+000  5.199657e+001
      vertex -2.700000e+001 -2.916646e+000  5.340663e+001
    endloop
  endfacet
  facet normal  -0.000000e+000  6.864797e-001  7.271490e-001
    outer loop
      vertex -7.000000e+000 -1.423056e+000  5.199657e+001
      vertex -2.700000e+001 -2.916646e+000  5.340663e+001
      vertex -7.000000e+000 -2.916646e+000  5.340663e+001
    endloop
  endfacet
  facet normal -8.548181e-001 -5.099924e-001 -9.588371e-002
    outer loop
      vertex -5.081176e+000  0.000000e+000  5.500000e+001
      vertex -7.000000e+000  2.916646e+000  5.659337e+001
      vertex -7.000000e+000  3.296176e+000  5.457470e+001
    endloop
  endfacet
  facet normal -8.548182e-001 -4.689516e-001  2.221943e-001
    outer loop
      vertex -5.081176e+000  0.000000e+000  5.500000e+001
      vertex -7.000000e+000  3.296176e+000  5.457470e+001
      vertex -7.000000e+000  2.416679e+000  5.271848e+001
    endloop
  endfacet
  facet normal -8.548182e-001 -2.487870e-001  4.554019e-001
    outer loop
      vertex -5.081176e+000  0.000000e+000  5.500000e+001
      vertex -7.000000e+000  2.416679e+000  5.271848e+001
      vertex -7.000000e+000  6.140926e-001  5.173373e+001
    endloop
  endfacet
  facet normal -8.548181e-001  6.640538e-002  5.146613e-001
    outer loop
      vertex -5.081176e+000  0.000000e+000  5.500000e+001
      vertex -7.000000e+000  6.140926e-001  5.173373e+001
      vertex -7.000000e+000 -1.423056e+000  5.199657e+001
    endloop
  endfacet
  facet normal -8.548182e-001  3.562332e-001  3.773377e-001
    outer loop
      vertex -5.081176e+000  0.000000e+000  5.500000e+001
      vertex -7.000000e+000 -1.423056e+000  5.199657e+001
      vertex -7.000000e+000 -2.916646e+000  5.340663e+001
    endloop
  endfacet
  facet normal -8.548181e-001  5.099924e-001  9.588371e-002
    outer loop
      vertex -5.081176e+000  0.000000e+000  5.500000e+001
      vertex -7.000000e+000 -2.916646e+000  5.340663e+001
      vertex -7.000000e+000 -3.296176e+000  5.542530e+001
    endloop
  endfacet
  facet normal -8.548182e-001  4.689516e-001 -2.221943e-001
    outer loop
      vertex -5.081176e+000  0.000000e+000  5.500000e+001
      vertex -7.000000e+000 -3.296176e+000  5.542530e+001
      vertex -7.000000e+000 -2.416679e+000  5.728152e+001
    endloop
  endfacet
  facet normal -8.548182e-001  2.487870e-001 -4.554019e-001
    outer loop
      vertex -5.081176e+000  0.000000e+000  5.500000e+001
      vertex -7.000000e+000 -2.416679e+000  5.728152e+001
      vertex -7.000000e+000 -6.140926e-001  5.826627e+001
    endloop
  endfacet
  facet normal -8.548181e-001 -6.640538e-002 -5.146613e-001
    outer loop
      vertex -5.081176e+000  0.000000e+000  5.500000e+001
      vertex -7.000000e+000 -6.140926e-001  5.826627e+001
      vertex -7.000000e+000  1.423056e+000  5.800343e+001
    endloop
  endfacet
  facet normal -8.548182e-001 -3.562332e-001 -3.773377e-001
    outer loop
      vertex -5.081176e+000  0.000000e+000  5.500000e+001
      vertex -7.000000e+000  1.423056e+000  5.800343e+001
      vertex -7.000000e+000  2.916646e+000  5.659337e+001
    endloop
  endfacet
  facet normal  0.000000e+000 -9.036936e-001  4.281798e-001
    outer loop
      vertex -2.700000e+001  2.181446e+000  7.940560e+000
      vertex -7.000000e+000  2.975335e+000  9.616100e+000
      vertex -2.700000e+001  2.975335e+000  9.616100e+000
    endloop
  endfacet
  facet normal  0.000000e+000 -9.827812e-001 -1.847729e-001
    outer loop
      vertex -2.700000e+001  2.975335e+000  9.616100e+000
      vertex -7.000000e+000  2.975335e+000  9.616100e+000
      vertex -7.000000e+000  2.632748e+000  1.143828e+001
    endloop
  endfacet
  facet normal  -0.000000e+000 -9.827812e-001 -1.847729e-001
    outer loop
      vertex -2.700000e+001  2.975335e+000  9.616100e+000
      vertex -7.000000e+000  2.632748e+000  1.143828e+001
      vertex -2.700000e+001  2.632748e+000  1.143828e+001
    endloop
  endfacet
  facet normal  0.000000e+000 -9.036936e-001  4.281798e-001
    outer loop
      vertex -7.000000e+000  2.975335e+000  9.616100e+000
      vertex -2.700000e+001  2.181446e+000  7.940560e+000
      vertex -7.000000e+000  2.181446e+000  7.940560e+000
    endloop
  endfacet
  facet normal  0.000000e+000 -4.794255e-001  8.775826e-001
    outer loop
      vertex -7.000000e+000  2.181446e+000  7.940560e+000
      vertex -2.700000e+001  2.181446e+000  7.940560e+000
      vertex -2.700000e+001  5.543185e-001  7.051656e+000
    endloop
  endfacet
  facet normal  0.000000e+000 -4.794255e-001  8.775826e-001
    outer loop
      vertex -7.000000e+000  2.181446e+000  7.940560e+000
      vertex -2.700000e+001  5.543185e-001  7.051656e+000
      vertex -7.000000e+000  5.543185e-001  7.051656e+000
    endloop
  endfacet
  facet normal  0.000000e+000  1.279666e-001  9.917785e-001
    outer loop
      vertex -7.000000e+000  5.543185e-001  7.051656e+000
      vertex -2.700000e+001  5.543185e-001  7.051656e+000
      vertex -2.700000e+001 -1.284540e+000  7.288919e+000
    endloop
  endfacet
  facet normal  -0.000000e+000  1.279666e-001  9.917785e-001
    outer loop
      vertex -7.000000e+000  5.543185e-001  7.051656e+000
      vertex -2.700000e+001 -1.284540e+000  7.288919e+000
      vertex -7.000000e+000 -1.284540e+000  7.288919e+000
    endloop
  endfacet
  facet normal  0.000000e+000  6.864802e-001  7.271487e-001
    outer loop
      vertex -7.000000e+000 -1.284540e+000  7.288919e+000
      vertex -2.700000e+001 -1.284540e+000  7.288919e+000
      vertex -2.700000e+001 -2.632748e+000  8.561724e+000
    endloop
  endfacet
  facet normal  -0.000000e+000  6.864802e-001  7.271487e-001
    outer loop
      vertex -7.000000e+000 -1.284540e+000  7.288919e+000
      vertex -2.700000e+001 -2.632748e+000  8.561724e+000
      vertex -7.000000e+000 -2.632748e+000  8.561724e+000
    endloop
  endfacet
  facet normal  0.000000e+000  9.036935e-001 -4.281799e-001
    outer loop
      vertex -2.700000e+001 -2.181446e+000  1.205944e+001
      vertex -7.000000e+000 -2.975335e+000  1.038390e+001
      vertex -2.700000e+001 -2.975335e+000  1.038390e+001
    endloop
  endfacet
  facet normal  -0.000000e+000  9.827812e-001  1.847729e-001
    outer loop
      vertex -2.700000e+001 -2.975335e+000  1.038390e+001
      vertex -7.000000e+000 -2.975335e+000  1.038390e+001
      vertex -7.000000e+000 -2.632748e+000  8.561724e+000
    endloop
  endfacet
  facet normal  0.000000e+000  9.827812e-001  1.847729e-001
    outer loop
      vertex -2.700000e+001 -2.975335e+000  1.038390e+001
      vertex -7.000000e+000 -2.632748e+000  8.561724e+000
      vertex -2.700000e+001 -2.632748e+000  8.561724e+000
    endloop
  endfacet
  facet normal  0.000000e+000  9.036935e-001 -4.281799e-001
    outer loop
      vertex -7.000000e+000 -2.975335e+000  1.038390e+001
      vertex -2.700000e+001 -2.181446e+000  1.205944e+001
      vertex -7.000000e+000 -2.181446e+000  1.205944e+001
    endloop
  endfacet
  facet normal  0.000000e+000  4.794259e-001 -8.775824e-001
    outer loop
      vertex -7.000000e+000 -2.181446e+000  1.205944e+001
      vertex -2.700000e+001 -2.181446e+000  1.205944e+001
      vertex -2.700000e+001 -5.543185e-001  1.294834e+001
    endloop
  endfacet
  facet normal  0.000000e+000  4.794259e-001 -8.775824e-001
    outer loop
      vertex -7.000000e+000 -2.181446e+000  1.205944e+001
      vertex -2.700000e+001 -5.543185e-001  1.294834e+001
      vertex -7.000000e+000 -5.543185e-001  1.294834e+001
    endloop
  endfacet
  facet normal  -0.000000e+000 -1.279669e-001 -9.917784e-001
    outer loop
      vertex -7.000000e+000 -5.543185e-001  1.294834e+001
      vertex -2.700000e+001 -5.543185e-001  1.294834e+001
      vertex -2.700000e+001  1.284540e+000  1.271108e+001
    endloop
  endfacet
  facet normal  0.000000e+000 -1.279669e-001 -9.917784e-001
    outer loop
      vertex -7.000000e+000 -5.543185e-001  1.294834e+001
      vertex -2.700000e+001  1.284540e+000  1.271108e+001
      vertex -7.000000e+000  1.284540e+000  1.271108e+001
    endloop
  endfacet
  facet normal  -0.000000e+000 -6.864802e-001 -7.271487e-001
    outer loop
      vertex -7.000000e+000  1.284540e+000  1.271108e+001
      vertex -2.700000e+001  1.284540e+000  1.271108e+001
      vertex -2.700000e+001  2.632748e+000  1.143828e+001
    endloop
  endfacet
  facet normal  0.000000e+000 -6.864802e-001 -7.271487e-001
    outer loop
      vertex -7.000000e+000  1.284540e+000  1.271108e+001
      vertex -2.700000e+001  2.632748e+000  1.143828e+001
      vertex -7.000000e+000  2.632748e+000  1.143828e+001
    endloop
  endfacet
  facet normal -8.548182e-001 -5.099924e-001 -9.588378e-002
    outer loop
      vertex -5.267949e+000  0.000000e+000  1.000000e+001
      vertex -7.000000e+000  2.632748e+000  1.143828e+001
      vertex -7.000000e+000  2.975335e+000  9.616100e+000
    endloop
  endfacet
  facet normal -8.548182e-001 -4.689516e-001  2.221943e-001
    outer loop
      vertex -5.267949e+000  0.000000e+000  1.000000e+001
      vertex -7.000000e+000  2.975335e+000  9.616100e+000
      vertex -7.000000e+000  2.181446e+000  7.940560e+000
    endloop
  endfacet
  facet normal -8.548182e-001 -2.487871e-001  4.554019e-001
    outer loop
      vertex -5.267949e+000  0.000000e+000  1.000000e+001
      vertex -7.000000e+000  2.181446e+000  7.940560e+000
      vertex -7.000000e+000  5.543185e-001  7.051656e+000
    endloop
  endfacet
  facet normal -8.548182e-001  6.640544e-002  5.146613e-001
    outer loop
      vertex -5.267949e+000  0.000000e+000  1.000000e+001
      vertex -7.000000e+000  5.543185e-001  7.051656e+000
      vertex -7.000000e+000 -1.284540e+000  7.288919e+000
    endloop
  endfacet
  facet normal -8.548182e-001  3.562335e-001  3.773375e-001
    outer loop
      vertex -5.267949e+000  0.000000e+000  1.000000e+001
      vertex -7.000000e+000 -1.284540e+000  7.288919e+000
      vertex -7.000000e+000 -2.632748e+000  8.561724e+000
    endloop
  endfacet
  facet normal -8.548182e-001  5.099924e-001  9.588378e-002
    outer loop
      vertex -5.267949e+000  0.000000e+000  1.000000e+001
      vertex -7.000000e+000 -2.632748e+000  8.561724e+000
      vertex -7.000000e+000 -2.975335e+000  1.038390e+001
    endloop
  endfacet
  facet normal -8.548182e-001  4.689516e-001 -2.221944e-001
    outer loop
      vertex -5.267949e+000  0.000000e+000  1.000000e+001
      vertex -7.000000e+000 -2.975335e+000  1.038390e+001
      vertex -7.000000e+000 -2.181446e+000  1.205944e+001
    endloop
  endfacet
  facet normal -8.548182e-001  2.487873e-001 -4.554017e-001
    outer loop
      vertex -5.267949e+000  0.000000e+000  1.000000e+001
      vertex -7.000000e+000 -2.181446e+000  1.205944e+001
      vertex -7.000000e+000 -5.543185e-001  1.294834e+001
    endloop
  endfacet
  facet normal -8.548182e-001 -6.640556e-002 -5.146612e-001
    outer loop
      vertex -5.267949e+000  0.000000e+000  1.000000e+001
      vertex -7.000000e+000 -5.543185e-001  1.294834e+001
      vertex -7.000000e+000  1.284540e+000  1.271108e+001
    endloop
  endfacet
  facet normal -8.548182e-001 -3.562335e-001 -3.773375e-001
    outer loop
      vertex -5.267949e+000  0.000000e+000  1.000000e+001
      vertex -7.000000e+000  1.284540e+000  1.271108e+001
      vertex -7.000000e+000  2.632748e+000  1.143828e+001
    endloop
  endfacet
  facet normal  0.000000e+000  9.036936e-001 -4.281797e-001
    outer loop
      vertex -2.700000e+001 -2.181446e+000  4.205944e+001
      vertex -7.000000e+000 -2.975335e+000  4.038390e+001
      vertex -2.700000e+001 -2.975335e+000  4.038390e+001
    endloop
  endfacet
  facet normal  -0.000000e+000  9.827812e-001  1.847727e-001
    outer loop
      vertex -2.700000e+001 -2.975335e+000  4.038390e+001
      vertex -7.000000e+000 -2.975335e+000  4.038390e+001
      vertex -7.000000e+000 -2.632748e+000  3.856172e+001
    endloop
  endfacet
  facet normal  0.000000e+000  9.827812e-001  1.847727e-001
    outer loop
      vertex -2.700000e+001 -2.975335e+000  4.038390e+001
      vertex -7.000000e+000 -2.632748e+000  3.856172e+001
      vertex -2.700000e+001 -2.632748e+000  3.856172e+001
    endloop
  endfacet
  facet normal  0.000000e+000  9.036936e-001 -4.281797e-001
    outer loop
      vertex -7.000000e+000 -2.975335e+000  4.038390e+001
      vertex -2.700000e+001 -2.181446e+000  4.205944e+001
      vertex -7.000000e+000 -2.181446e+000  4.205944e+001
    endloop
  endfacet
  facet normal  0.000000e+000  4.794259e-001 -8.775824e-001
    outer loop
      vertex -7.000000e+000 -2.181446e+000  4.205944e+001
      vertex -2.700000e+001 -2.181446e+000  4.205944e+001
      vertex -2.700000e+001 -5.543185e-001  4.294835e+001
    endloop
  endfacet
  facet normal  0.000000e+000  4.794259e-001 -8.775824e-001
    outer loop
      vertex -7.000000e+000 -2.181446e+000  4.205944e+001
      vertex -2.700000e+001 -5.543185e-001  4.294835e+001
      vertex -7.000000e+000 -5.543185e-001  4.294835e+001
    endloop
  endfacet
  facet normal  -0.000000e+000 -1.279684e-001 -9.917783e-001
    outer loop
      vertex -7.000000e+000 -5.543185e-001  4.294835e+001
      vertex -2.700000e+001 -5.543185e-001  4.294835e+001
      vertex -2.700000e+001  1.284540e+000  4.271108e+001
    endloop
  endfacet
  facet normal  0.000000e+000 -1.279684e-001 -9.917783e-001
    outer loop
      vertex -7.000000e+000 -5.543185e-001  4.294835e+001
      vertex -2.700000e+001  1.284540e+000  4.271108e+001
      vertex -7.000000e+000  1.284540e+000  4.271108e+001
    endloop
  endfacet
  facet normal  -0.000000e+000 -6.864790e-001 -7.271496e-001
    outer loop
      vertex -7.000000e+000  1.284540e+000  4.271108e+001
      vertex -2.700000e+001  1.284540e+000  4.271108e+001
      vertex -2.700000e+001  2.632748e+000  4.143828e+001
    endloop
  endfacet
  facet normal  0.000000e+000 -6.864790e-001 -7.271496e-001
    outer loop
      vertex -7.000000e+000  1.284540e+000  4.271108e+001
      vertex -2.700000e+001  2.632748e+000  4.143828e+001
      vertex -7.000000e+000  2.632748e+000  4.143828e+001
    endloop
  endfacet
  facet normal  0.000000e+000 -9.036936e-001  4.281797e-001
    outer loop
      vertex -2.700000e+001  2.181446e+000  3.794056e+001
      vertex -7.000000e+000  2.975335e+000  3.961610e+001
      vertex -2.700000e+001  2.975335e+000  3.961610e+001
    endloop
  endfacet
  facet normal  0.000000e+000 -9.827812e-001 -1.847727e-001
    outer loop
      vertex -2.700000e+001  2.975335e+000  3.961610e+001
      vertex -7.000000e+000  2.975335e+000  3.961610e+001
      vertex -7.000000e+000  2.632748e+000  4.143828e+001
    endloop
  endfacet
  facet normal  -0.000000e+000 -9.827812e-001 -1.847727e-001
    outer loop
      vertex -2.700000e+001  2.975335e+000  3.961610e+001
      vertex -7.000000e+000  2.632748e+000  4.143828e+001
      vertex -2.700000e+001  2.632748e+000  4.143828e+001
    endloop
  endfacet
  facet normal  0.000000e+000 -9.036936e-001  4.281797e-001
    outer loop
      vertex -7.000000e+000  2.975335e+000  3.961610e+001
      vertex -2.700000e+001  2.181446e+000  3.794056e+001
      vertex -7.000000e+000  2.181446e+000  3.794056e+001
    endloop
  endfacet
  facet normal  0.000000e+000 -4.794259e-001  8.775824e-001
    outer loop
      vertex -7.000000e+000  2.181446e+000  3.794056e+001
      vertex -2.700000e+001  2.181446e+000  3.794056e+001
      vertex -2.700000e+001  5.543185e-001  3.705165e+001
    endloop
  endfacet
  facet normal  0.000000e+000 -4.794259e-001  8.775824e-001
    outer loop
      vertex -7.000000e+000  2.181446e+000  3.794056e+001
      vertex -2.700000e+001  5.543185e-001  3.705165e+001
      vertex -7.000000e+000  5.543185e-001  3.705165e+001
    endloop
  endfacet
  facet normal  0.000000e+000  1.279684e-001  9.917783e-001
    outer loop
      vertex -7.000000e+000  5.543185e-001  3.705165e+001
      vertex -2.700000e+001  5.543185e-001  3.705165e+001
      vertex -2.700000e+001 -1.284540e+000  3.728892e+001
    endloop
  endfacet
  facet normal  -0.000000e+000  1.279684e-001  9.917783e-001
    outer loop
      vertex -7.000000e+000  5.543185e-001  3.705165e+001
      vertex -2.700000e+001 -1.284540e+000  3.728892e+001
      vertex -7.000000e+000 -1.284540e+000  3.728892e+001
    endloop
  endfacet
  facet normal  0.000000e+000  6.864790e-001  7.271496e-001
    outer loop
      vertex -7.000000e+000 -1.284540e+000  3.728892e+001
      vertex -2.700000e+001 -1.284540e+000  3.728892e+001
      vertex -2.700000e+001 -2.632748e+000  3.856172e+001
    endloop
  endfacet
  facet normal  -0.000000e+000  6.864790e-001  7.271496e-001
    outer loop
      vertex -7.000000e+000 -1.284540e+000  3.728892e+001
      vertex -2.700000e+001 -2.632748e+000  3.856172e+001
      vertex -7.000000e+000 -2.632748e+000  3.856172e+001
    endloop
  endfacet
  facet normal -8.548182e-001 -5.099924e-001 -9.588368e-002
    outer loop
      vertex -5.267949e+000  0.000000e+000  4.000000e+001
      vertex -7.000000e+000  2.632748e+000  4.143828e+001
      vertex -7.000000e+000  2.975335e+000  3.961610e+001
    endloop
  endfacet
  facet normal -8.548182e-001 -4.689516e-001  2.221943e-001
    outer loop
      vertex -5.267949e+000  0.000000e+000  4.000000e+001
      vertex -7.000000e+000  2.975335e+000  3.961610e+001
      vertex -7.000000e+000  2.181446e+000  3.794056e+001
    endloop
  endfacet
  facet normal -8.548183e-001 -2.487873e-001  4.554017e-001
    outer loop
      vertex -5.267949e+000  0.000000e+000  4.000000e+001
      vertex -7.000000e+000  2.181446e+000  3.794056e+001
      vertex -7.000000e+000  5.543185e-001  3.705165e+001
    endloop
  endfacet
  facet normal -8.548182e-001  6.640635e-002  5.146612e-001
    outer loop
      vertex -5.267949e+000  0.000000e+000  4.000000e+001
      vertex -7.000000e+000  5.543185e-001  3.705165e+001
      vertex -7.000000e+000 -1.284540e+000  3.728892e+001
    endloop
  endfacet
  facet normal -8.548182e-001  3.562329e-001  3.773381e-001
    outer loop
      vertex -5.267949e+000  0.000000e+000  4.000000e+001
      vertex -7.000000e+000 -1.284540e+000  3.728892e+001
      vertex -7.000000e+000 -2.632748e+000  3.856172e+001
    endloop
  endfacet
  facet normal -8.548182e-001  5.099924e-001  9.588368e-002
    outer loop
      vertex -5.267949e+000  0.000000e+000  4.000000e+001
      vertex -7.000000e+000 -2.632748e+000  3.856172e+001
      vertex -7.000000e+000 -2.975335e+000  4.038390e+001
    endloop
  endfacet
  facet normal -8.548182e-001  4.689516e-001 -2.221943e-001
    outer loop
      vertex -5.267949e+000  0.000000e+000  4.000000e+001
      vertex -7.000000e+000 -2.975335e+000  4.038390e+001
      vertex -7.000000e+000 -2.181446e+000  4.205944e+001
    endloop
  endfacet
  facet normal -8.548183e-001  2.487873e-001 -4.554017e-001
    outer loop
      vertex -5.267949e+000  0.000000e+000  4.000000e+001
      vertex -7.000000e+000 -2.181446e+000  4.205944e+001
      vertex -7.000000e+000 -5.543185e-001  4.294835e+001
    endloop
  endfacet
  facet normal -8.548182e-001 -6.640635e-002 -5.146612e-001
    outer loop
      vertex -5.267949e+000  0.000000e+000  4.000000e+001
      vertex -7.000000e+000 -5.543185e-001  4.294835e+001
      vertex -7.000000e+000  1.284540e+000  4.271108e+001
    endloop
  endfacet
  facet normal -8.548182e-001 -3.562329e-001 -3.773381e-001
    outer loop
      vertex -5.267949e+000  0.000000e+000  4.000000e+001
      vertex -7.000000e+000  1.284540e+000  4.271108e+001
      vertex -7.000000e+000  2.632748e+000  4.143828e+001
    endloop
  endfacet
  facet normal  1.000000e+000  0.000000e+000  -0.000000e+000
    outer loop
      vertex  2.700000e+001 -5.543185e-001  4.705165e+001
      vertex  2.700000e+001  6.140926e-001  3.826627e+001
      vertex  2.700000e+001  1.284540e+000  4.728892e+001
    endloop
  endfacet
  facet normal  1.000000e+000  -0.000000e+000  0.000000e+000
    outer loop
      vertex  2.700000e+001  2.632748e+000  4.856172e+001
      vertex  2.700000e+001  1.284540e+000  4.728892e+001
      vertex  2.700000e+001  6.140926e-001  3.826627e+001
    endloop
  endfacet
  facet normal  1.000000e+000  -0.000000e+000  0.000000e+000
    outer loop
      vertex  2.700000e+001  2.916646e+000  6.340663e+001
      vertex  2.700000e+001  1.423056e+000  6.199657e+001
      vertex  2.700000e+001  5.543185e-001  5.294835e+001
    endloop
  endfacet
  facet normal  1.000000e+000  0.000000e+000  0.000000e+000
    outer loop
      vertex  2.700000e+001  1.000000e+001  0.000000e+000
      vertex  2.700000e+001  1.000000e+001  7.500000e+001
      vertex  2.700000e+001  2.975335e+000  2.038390e+001
    endloop
  endfacet
  facet normal  1.000000e+000  0.000000e+000  0.000000e+000
    outer loop
      vertex  2.700000e+001  1.000000e+001  0.000000e+000
      vertex  2.700000e+001  2.975335e+000  2.038390e+001
      vertex  2.700000e+001  2.632748e+000  1.856172e+001
    endloop
  endfacet
  facet normal  1.000000e+000  0.000000e+000  0.000000e+000
    outer loop
      vertex  2.700000e+001  1.000000e+001  0.000000e+000
      vertex  2.700000e+001  2.632748e+000  1.856172e+001
      vertex  2.700000e+001  1.284540e+000  1.728892e+001
    endloop
  endfacet
  facet normal  1.000000e+000  0.000000e+000  0.000000e+000
    outer loop
      vertex  2.700000e+001  1.000000e+001  0.000000e+000
      vertex  2.700000e+001  1.284540e+000  1.728892e+001
      vertex  2.700000e+001 -1.000000e+001  0.000000e+000
    endloop
  endfacet
  facet normal  1.000000e+000  0.000000e+000  -0.000000e+000
    outer loop
      vertex  2.700000e+001 -1.000000e+001  7.500000e+001
      vertex  2.700000e+001 -2.975335e+000  1.961610e+001
      vertex  2.700000e+001 -2.632748e+000  2.143828e+001
    endloop
  endfacet
  facet normal  1.000000e+000  0.000000e+000  0.000000e+000
    outer loop
      vertex  2.700000e+001 -1.000000e+001  7.500000e+001
      vertex  2.700000e+001 -2.632748e+000  2.143828e+001
      vertex  2.700000e+001 -3.296176e+000  3.457470e+001
    endloop
  endfacet
  facet normal  1.000000e+000  0.000000e+000  -0.000000e+000
    outer loop
      vertex  2.700000e+001 -1.000000e+001  7.500000e+001
      vertex  2.700000e+001 -3.296176e+000  3.457470e+001
      vertex  2.700000e+001 -2.916646e+000  3.659337e+001
    endloop
  endfacet
  facet normal  1.000000e+000  0.000000e+000  -0.000000e+000
    outer loop
      vertex  2.700000e+001 -1.000000e+001  7.500000e+001
      vertex  2.700000e+001 -2.916646e+000  3.659337e+001
      vertex  2.700000e+001 -1.423056e+000  3.800343e+001
    endloop
  endfacet
  facet normal  1.000000e+000  0.000000e+000  0.000000e+000
    outer loop
      vertex  2.700000e+001 -1.000000e+001  7.500000e+001
      vertex  2.700000e+001 -1.423056e+000  3.800343e+001
      vertex  2.700000e+001 -2.975335e+000  4.961610e+001
    endloop
  endfacet
  facet normal  9.999999e-001  0.000000e+000  -0.000000e+000
    outer loop
      vertex  2.700000e+001 -1.000000e+001  7.500000e+001
      vertex  2.700000e+001 -2.975335e+000  4.961610e+001
      vertex  2.700000e+001 -2.632748e+000  5.143828e+001
    endloop
  endfacet
  facet normal  9.999999e-001  0.000000e+000  -0.000000e+000
    outer loop
      vertex  2.700000e+001 -1.000000e+001  7.500000e+001
      vertex  2.700000e+001 -2.632748e+000  5.143828e+001
      vertex  2.700000e+001 -1.284540e+000  5.271108e+001
    endloop
  endfacet
  facet normal  1.000000e+000  0.000000e+000  0.000000e+000
    outer loop
      vertex  2.700000e+001 -1.000000e+001  7.500000e+001
      vertex  2.700000e+001 -1.284540e+000  5.271108e+001
      vertex  2.700000e+001 -2.416679e+000  6.271848e+001
    endloop
  endfacet
  facet normal  1.000000e+000  0.000000e+000  0.000000e+000
    outer loop
      vertex  2.700000e+001 -1.000000e+001  7.500000e+001
      vertex  2.700000e+001 -2.416679e+000  6.271848e+001
      vertex  2.700000e+001 -3.296176e+000  6.457470e+001
    endloop
  endfacet
  facet normal  1.000000e+000  0.000000e+000  -0.000000e+000
    outer loop
      vertex  2.700000e+001 -1.000000e+001  7.500000e+001
      vertex  2.700000e+001 -3.296176e+000  6.457470e+001
      vertex  2.700000e+001 -2.916646e+000  6.659337e+001
    endloop
  endfacet
  facet normal  1.000000e+000  0.000000e+000  -0.000000e+000
    outer loop
      vertex  2.700000e+001 -1.000000e+001  7.500000e+001
      vertex  2.700000e+001 -2.916646e+000  6.659337e+001
      vertex  2.700000e+001 -1.423056e+000  6.800343e+001
    endloop
  endfacet
  facet normal  1.000000e+000  0.000000e+000  -0.000000e+000
    outer loop
      vertex  2.700000e+001 -1.000000e+001  7.500000e+001
      vertex  2.700000e+001 -1.423056e+000  6.800343e+001
      vertex  2.700000e+001  6.140926e-001  6.826627e+001
    endloop
  endfacet
  facet normal  1.000000e+000  0.000000e+000  -0.000000e+000
    outer loop
      vertex  2.700000e+001 -1.000000e+001  7.500000e+001
      vertex  2.700000e+001  6.140926e-001  6.826627e+001
      vertex  2.700000e+001  1.000000e+001  7.500000e+001
    endloop
  endfacet
  facet normal  9.999999e-001  0.000000e+000  0.000000e+000
    outer loop
      vertex  2.700000e+001 -1.000000e+001  0.000000e+000
      vertex  2.700000e+001  1.284540e+000  1.728892e+001
      vertex  2.700000e+001 -5.543185e-001  1.705166e+001
    endloop
  endfacet
  facet normal  1.000000e+000  0.000000e+000  0.000000e+000
    outer loop
      vertex  2.700000e+001 -1.000000e+001  0.000000e+000
      vertex  2.700000e+001 -5.543185e-001  1.705166e+001
      vertex  2.700000e+001 -2.181446e+000  1.794056e+001
    endloop
  endfacet
  facet normal  1.000000e+000  0.000000e+000  0.000000e+000
    outer loop
      vertex  2.700000e+001 -1.000000e+001  0.000000e+000
      vertex  2.700000e+001 -2.181446e+000  1.794056e+001
      vertex  2.700000e+001 -2.975335e+000  1.961610e+001
    endloop
  endfacet
  facet normal  1.000000e+000  0.000000e+000  0.000000e+000
    outer loop
      vertex  2.700000e+001 -1.000000e+001  0.000000e+000
      vertex  2.700000e+001 -2.975335e+000  1.961610e+001
      vertex  2.700000e+001 -1.000000e+001  7.500000e+001
    endloop
  endfacet
  facet normal  1.000000e+000  -0.000000e+000  0.000000e+000
    outer loop
      vertex  2.700000e+001  1.000000e+001  7.500000e+001
      vertex  2.700000e+001  6.140926e-001  6.826627e+001
      vertex  2.700000e+001  2.416679e+000  6.728152e+001
    endloop
  endfacet
  facet normal  1.000000e+000  -0.000000e+000  0.000000e+000
    outer loop
      vertex  2.700000e+001  1.000000e+001  7.500000e+001
      vertex  2.700000e+001  2.416679e+000  6.728152e+001
      vertex  2.700000e+001  3.296176e+000  6.542530e+001
    endloop
  endfacet
  facet normal  1.000000e+000  -0.000000e+000  0.000000e+000
    outer loop
      vertex  2.700000e+001  1.000000e+001  7.500000e+001
      vertex  2.700000e+001  3.296176e+000  6.542530e+001
      vertex  2.700000e+001  2.916646e+000  6.340663e+001
    endloop
  endfacet
  facet normal  1.000000e+000  -0.000000e+000  0.000000e+000
    outer loop
      vertex  2.700000e+001  1.000000e+001  7.500000e+001
      vertex  2.700000e+001  2.916646e+000  6.340663e+001
      vertex  2.700000e+001  5.543185e-001  5.294835e+001
    endloop
  endfacet
  facet normal  9.999999e-001  -0.000000e+000  0.000000e+000
    outer loop
      vertex  2.700000e+001  1.000000e+001  7.500000e+001
      vertex  2.700000e+001  5.543185e-001  5.294835e+001
      vertex  2.700000e+001  2.181446e+000  5.205944e+001
    endloop
  endfacet
  facet normal  1.000000e+000  -0.000000e+000  0.000000e+000
    outer loop
      vertex  2.700000e+001  1.000000e+001  7.500000e+001
      vertex  2.700000e+001  2.181446e+000  5.205944e+001
      vertex  2.700000e+001  2.975335e+000  5.038390e+001
    endloop
  endfacet
  facet normal  1.000000e+000  -0.000000e+000  0.000000e+000
    outer loop
      vertex  2.700000e+001  1.000000e+001  7.500000e+001
      vertex  2.700000e+001  2.975335e+000  5.038390e+001
      vertex  2.700000e+001  2.632748e+000  4.856172e+001
    endloop
  endfacet
  facet normal  9.999999e-001  -0.000000e+000  0.000000e+000
    outer loop
      vertex  2.700000e+001  1.000000e+001  7.500000e+001
      vertex  2.700000e+001  2.632748e+000  4.856172e+001
      vertex  2.700000e+001  6.140926e-001  3.826627e+001
    endloop
  endfacet
  facet normal  1.000000e+000  -0.000000e+000  0.000000e+000
    outer loop
      vertex  2.700000e+001  1.000000e+001  7.500000e+001
      vertex  2.700000e+001  6.140926e-001  3.826627e+001
      vertex  2.700000e+001  2.416679e+000  3.728152e+001
    endloop
  endfacet
  facet normal  1.000000e+000  -0.000000e+000  0.000000e+000
    outer loop
      vertex  2.700000e+001  1.000000e+001  7.500000e+001
      vertex  2.700000e+001  2.416679e+000  3.728152e+001
      vertex  2.700000e+001  3.296176e+000  3.542530e+001
    endloop
  endfacet
  facet normal  1.000000e+000  -0.000000e+000  0.000000e+000
    outer loop
      vertex  2.700000e+001  1.000000e+001  7.500000e+001
      vertex  2.700000e+001  3.296176e+000  3.542530e+001
      vertex  2.700000e+001  2.181446e+000  2.205944e+001
    endloop
  endfacet
  facet normal  1.000000e+000  -0.000000e+000  0.000000e+000
    outer loop
      vertex  2.700000e+001  1.000000e+001  7.500000e+001
      vertex  2.700000e+001  2.181446e+000  2.205944e+001
      vertex  2.700000e+001  2.975335e+000  2.038390e+001
    endloop
  endfacet
  facet normal  9.999999e-001  0.000000e+000  -0.000000e+000
    outer loop
      vertex  2.700000e+001 -3.296176e+000  3.457470e+001
      vertex  2.700000e+001 -2.632748e+000  2.143828e+001
      vertex  2.700000e+001 -2.416679e+000  3.271848e+001
    endloop
  endfacet
  facet normal  9.999999e-001  0.000000e+000  0.000000e+000
    outer loop
      vertex  2.700000e+001 -2.416679e+000  3.271848e+001
      vertex  2.700000e+001 -2.632748e+000  2.143828e+001
      vertex  2.700000e+001 -1.284540e+000  2.271108e+001
    endloop
  endfacet
  facet normal  1.000000e+000  0.000000e+000  -0.000000e+000
    outer loop
      vertex  2.700000e+001 -2.416679e+000  3.271848e+001
      vertex  2.700000e+001 -1.284540e+000  2.271108e+001
      vertex  2.700000e+001 -6.140926e-001  3.173373e+001
    endloop
  endfacet
  facet normal  1.000000e+000  0.000000e+000  0.000000e+000
    outer loop
      vertex  2.700000e+001 -6.140926e-001  3.173373e+001
      vertex  2.700000e+001 -1.284540e+000  2.271108e+001
      vertex  2.700000e+001  5.543185e-001  2.294834e+001
    endloop
  endfacet
  facet normal  1.000000e+000  0.000000e+000  -0.000000e+000
    outer loop
      vertex  2.700000e+001 -6.140926e-001  3.173373e+001
      vertex  2.700000e+001  5.543185e-001  2.294834e+001
      vertex  2.700000e+001  1.423056e+000  3.199657e+001
    endloop
  endfacet
  facet normal  1.000000e+000  0.000000e+000  0.000000e+000
    outer loop
      vertex  2.700000e+001  6.140926e-001  3.826627e+001
      vertex  2.700000e+001 -5.543185e-001  4.705165e+001
      vertex  2.700000e+001 -1.423056e+000  3.800343e+001
    endloop
  endfacet
  facet normal  1.000000e+000  0.000000e+000  -0.000000e+000
    outer loop
      vertex  2.700000e+001 -1.423056e+000  3.800343e+001
      vertex  2.700000e+001 -5.543185e-001  4.705165e+001
      vertex  2.700000e+001 -2.181446e+000  4.794056e+001
    endloop
  endfacet
  facet normal  1.000000e+000  0.000000e+000  0.000000e+000
    outer loop
      vertex  2.700000e+001 -1.423056e+000  3.800343e+001
      vertex  2.700000e+001 -2.181446e+000  4.794056e+001
      vertex  2.700000e+001 -2.975335e+000  4.961610e+001
    endloop
  endfacet
  facet normal  1.000000e+000  0.000000e+000  -0.000000e+000
    outer loop
      vertex  2.700000e+001 -2.416679e+000  6.271848e+001
      vertex  2.700000e+001 -1.284540e+000  5.271108e+001
      vertex  2.700000e+001 -6.140926e-001  6.173373e+001
    endloop
  endfacet
  facet normal  1.000000e+000  0.000000e+000  0.000000e+000
    outer loop
      vertex  2.700000e+001 -6.140926e-001  6.173373e+001
      vertex  2.700000e+001 -1.284540e+000  5.271108e+001
      vertex  2.700000e+001  5.543185e-001  5.294835e+001
    endloop
  endfacet
  facet normal  1.000000e+000  0.000000e+000  -0.000000e+000
    outer loop
      vertex  2.700000e+001 -6.140926e-001  6.173373e+001
      vertex  2.700000e+001  5.543185e-001  5.294835e+001
      vertex  2.700000e+001  1.423056e+000  6.199657e+001
    endloop
  endfacet
  facet normal  1.000000e+000  0.000000e+000  0.000000e+000
    outer loop
      vertex  2.700000e+001  1.423056e+000  3.199657e+001
      vertex  2.700000e+001  5.543185e-001  2.294834e+001
      vertex  2.700000e+001  2.916646e+000  3.340663e+001
    endloop
  endfacet
  facet normal  1.000000e+000  0.000000e+000  0.000000e+000
    outer loop
      vertex  2.700000e+001  2.916646e+000  3.340663e+001
      vertex  2.700000e+001  5.543185e-001  2.294834e+001
      vertex  2.700000e+001  2.181446e+000  2.205944e+001
    endloop
  endfacet
  facet normal  1.000000e+000  0.000000e+000  0.000000e+000
    outer loop
      vertex  2.700000e+001  2.916646e+000  3.340663e+001
      vertex  2.700000e+001  2.181446e+000  2.205944e+001
      vertex  2.700000e+001  3.296176e+000  3.542530e+001
    endloop
  endfacet
  facet normal  0.000000e+000 -9.036936e-001 -4.281797e-001
    outer loop
      vertex  2.700000e+001  2.416679e+000  3.728152e+001
      vertex  7.000000e+000  3.296176e+000  3.542530e+001
      vertex  2.700000e+001  3.296176e+000  3.542530e+001
    endloop
  endfacet
  facet normal  0.000000e+000 -9.827812e-001  1.847728e-001
    outer loop
      vertex  2.700000e+001  3.296176e+000  3.542530e+001
      vertex  7.000000e+000  3.296176e+000  3.542530e+001
      vertex  7.000000e+000  2.916646e+000  3.340663e+001
    endloop
  endfacet
  facet normal  0.000000e+000 -9.827812e-001  1.847728e-001
    outer loop
      vertex  2.700000e+001  3.296176e+000  3.542530e+001
      vertex  7.000000e+000  2.916646e+000  3.340663e+001
      vertex  2.700000e+001  2.916646e+000  3.340663e+001
    endloop
  endfacet
  facet normal  -0.000000e+000 -9.036936e-001 -4.281797e-001
    outer loop
      vertex  7.000000e+000  3.296176e+000  3.542530e+001
      vertex  2.700000e+001  2.416679e+000  3.728152e+001
      vertex  7.000000e+000  2.416679e+000  3.728152e+001
    endloop
  endfacet
  facet normal  0.000000e+000 -4.794253e-001 -8.775827e-001
    outer loop
      vertex  7.000000e+000  2.416679e+000  3.728152e+001
      vertex  2.700000e+001  2.416679e+000  3.728152e+001
      vertex  2.700000e+001  6.140926e-001  3.826627e+001
    endloop
  endfacet
  facet normal  -0.000000e+000 -4.794253e-001 -8.775827e-001
    outer loop
      vertex  7.000000e+000  2.416679e+000  3.728152e+001
      vertex  2.700000e+001  6.140926e-001  3.826627e+001
      vertex  7.000000e+000  6.140926e-001  3.826627e+001
    endloop
  endfacet
  facet normal  0.000000e+000  1.279666e-001 -9.917785e-001
    outer loop
      vertex  7.000000e+000  6.140926e-001  3.826627e+001
      vertex  2.700000e+001  6.140926e-001  3.826627e+001
      vertex  2.700000e+001 -1.423056e+000  3.800343e+001
    endloop
  endfacet
  facet normal  0.000000e+000  1.279666e-001 -9.917785e-001
    outer loop
      vertex  7.000000e+000  6.140926e-001  3.826627e+001
      vertex  2.700000e+001 -1.423056e+000  3.800343e+001
      vertex  7.000000e+000 -1.423056e+000  3.800343e+001
    endloop
  endfacet
  facet normal  0.000000e+000  6.864797e-001 -7.271490e-001
    outer loop
      vertex  7.000000e+000 -1.423056e+000  3.800343e+001
      vertex  2.700000e+001 -1.423056e+000  3.800343e+001
      vertex  2.700000e+001 -2.916646e+000  3.659337e+001
    endloop
  endfacet
  facet normal  0.000000e+000  6.864797e-001 -7.271490e-001
    outer loop
      vertex  7.000000e+000 -1.423056e+000  3.800343e+001
      vertex  2.700000e+001 -2.916646e+000  3.659337e+001
      vertex  7.000000e+000 -2.916646e+000  3.659337e+001
    endloop
  endfacet
  facet normal  -0.000000e+000  9.036936e-001  4.281797e-001
    outer loop
      vertex  2.700000e+001 -2.416679e+000  3.271848e+001
      vertex  7.000000e+000 -3.296176e+000  3.457470e+001
      vertex  2.700000e+001 -3.296176e+000  3.457470e+001
    endloop
  endfacet
  facet normal  0.000000e+000  9.827812e-001 -1.847728e-001
    outer loop
      vertex  2.700000e+001 -3.296176e+000  3.457470e+001
      vertex  7.000000e+000 -3.296176e+000  3.457470e+001
      vertex  7.000000e+000 -2.916646e+000  3.659337e+001
    endloop
  endfacet
  facet normal  0.000000e+000  9.827812e-001 -1.847728e-001
    outer loop
      vertex  2.700000e+001 -3.296176e+000  3.457470e+001
      vertex  7.000000e+000 -2.916646e+000  3.659337e+001
      vertex  2.700000e+001 -2.916646e+000  3.659337e+001
    endloop
  endfacet
  facet normal  0.000000e+000  9.036936e-001  4.281797e-001
    outer loop
      vertex  7.000000e+000 -3.296176e+000  3.457470e+001
      vertex  2.700000e+001 -2.416679e+000  3.271848e+001
      vertex  7.000000e+000 -2.416679e+000  3.271848e+001
    endloop
  endfacet
  facet normal  -0.000000e+000  4.794253e-001  8.775827e-001
    outer loop
      vertex  7.000000e+000 -2.416679e+000  3.271848e+001
      vertex  2.700000e+001 -2.416679e+000  3.271848e+001
      vertex  2.700000e+001 -6.140926e-001  3.173373e+001
    endloop
  endfacet
  facet normal  0.000000e+000  4.794253e-001  8.775827e-001
    outer loop
      vertex  7.000000e+000 -2.416679e+000  3.271848e+001
      vertex  2.700000e+001 -6.140926e-001  3.173373e+001
      vertex  7.000000e+000 -6.140926e-001  3.173373e+001
    endloop
  endfacet
  facet normal  0.000000e+000 -1.279666e-001  9.917785e-001
    outer loop
      vertex  7.000000e+000 -6.140926e-001  3.173373e+001
      vertex  2.700000e+001 -6.140926e-001  3.173373e+001
      vertex  2.700000e+001  1.423056e+000  3.199657e+001
    endloop
  endfacet
  facet normal  0.000000e+000 -1.279666e-001  9.917785e-001
    outer loop
      vertex  7.000000e+000 -6.140926e-001  3.173373e+001
      vertex  2.700000e+001  1.423056e+000  3.199657e+001
      vertex  7.000000e+000  1.423056e+000  3.199657e+001
    endloop
  endfacet
  facet normal  0.000000e+000 -6.864797e-001  7.271490e-001
    outer loop
      vertex  7.000000e+000  1.423056e+000  3.199657e+001
      vertex  2.700000e+001  1.423056e+000  3.199657e+001
      vertex  2.700000e+001  2.916646e+000  3.340663e+001
    endloop
  endfacet
  facet normal  0.000000e+000 -6.864797e-001  7.271490e-001
    outer loop
      vertex  7.000000e+000  1.423056e+000  3.199657e+001
      vertex  2.700000e+001  2.916646e+000  3.340663e+001
      vertex  7.000000e+000  2.916646e+000  3.340663e+001
    endloop
  endfacet
  facet normal  8.548181e-001 -5.099924e-001  9.588371e-002
    outer loop
      vertex  5.081176e+000  0.000000e+000  3.500000e+001
      vertex  7.000000e+000  2.916646e+000  3.340663e+001
      vertex  7.000000e+000  3.296176e+000  3.542530e+001
    endloop
  endfacet
  facet normal  8.548182e-001 -4.689516e-001 -2.221943e-001
    outer loop
      vertex  5.081176e+000  0.000000e+000  3.500000e+001
      vertex  7.000000e+000  3.296176e+000  3.542530e+001
      vertex  7.000000e+000  2.416679e+000  3.728152e+001
    endloop
  endfacet
  facet normal  8.548182e-001 -2.487870e-001 -4.554019e-001
    outer loop
      vertex  5.081176e+000  0.000000e+000  3.500000e+001
      vertex  7.000000e+000  2.416679e+000  3.728152e+001
      vertex  7.000000e+000  6.140926e-001  3.826627e+001
    endloop
  endfacet
  facet normal  8.548181e-001  6.640538e-002 -5.146613e-001
    outer loop
      vertex  5.081176e+000  0.000000e+000  3.500000e+001
      vertex  7.000000e+000  6.140926e-001  3.826627e+001
      vertex  7.000000e+000 -1.423056e+000  3.800343e+001
    endloop
  endfacet
  facet normal  8.548182e-001  3.562332e-001 -3.773377e-001
    outer loop
      vertex  5.081176e+000  0.000000e+000  3.500000e+001
      vertex  7.000000e+000 -1.423056e+000  3.800343e+001
      vertex  7.000000e+000 -2.916646e+000  3.659337e+001
    endloop
  endfacet
  facet normal  8.548181e-001  5.099924e-001 -9.588371e-002
    outer loop
      vertex  5.081176e+000  0.000000e+000  3.500000e+001
      vertex  7.000000e+000 -2.916646e+000  3.659337e+001
      vertex  7.000000e+000 -3.296176e+000  3.457470e+001
    endloop
  endfacet
  facet normal  8.548182e-001  4.689516e-001  2.221943e-001
    outer loop
      vertex  5.081176e+000  0.000000e+000  3.500000e+001
      vertex  7.000000e+000 -3.296176e+000  3.457470e+001
      vertex  7.000000e+000 -2.416679e+000  3.271848e+001
    endloop
  endfacet
  facet normal  8.548182e-001  2.487870e-001  4.554019e-001
    outer loop
      vertex  5.081176e+000  0.000000e+000  3.500000e+001
      vertex  7.000000e+000 -2.416679e+000  3.271848e+001
      vertex  7.000000e+000 -6.140926e-001  3.173373e+001
    endloop
  endfacet
  facet normal  8.548181e-001 -6.640538e-002  5.146613e-001
    outer loop
      vertex  5.081176e+000  0.000000e+000  3.500000e+001
      vertex  7.000000e+000 -6.140926e-001  3.173373e+001
      vertex  7.000000e+000  1.423056e+000  3.199657e+001
    endloop
  endfacet
  facet normal  8.548182e-001 -3.562332e-001  3.773377e-001
    outer loop
      vertex  5.081176e+000  0.000000e+000  3.500000e+001
      vertex  7.000000e+000  1.423056e+000  3.199657e+001
      vertex  7.000000e+000  2.916646e+000  3.340663e+001
    endloop
  endfacet
  facet normal  -0.000000e+000  9.036933e-001  4.281805e-001
    outer loop
      vertex  2.700000e+001 -2.416679e+000  6.271848e+001
      vertex  7.000000e+000 -3.296176e+000  6.457470e+001
      vertex  2.700000e+001 -3.296176e+000  6.457470e+001
    endloop
  endfacet
  facet normal  0.000000e+000  9.827812e-001 -1.847728e-001
    outer loop
      vertex  2.700000e+001 -3.296176e+000  6.457470e+001
      vertex  7.000000e+000 -3.296176e+000  6.457470e+001
      vertex  7.000000e+000 -2.916646e+000  6.659337e+001
    endloop
  endfacet
  facet normal  0.000000e+000  9.827812e-001 -1.847728e-001
    outer loop
      vertex  2.700000e+001 -3.296176e+000  6.457470e+001
      vertex  7.000000e+000 -2.916646e+000  6.659337e+001
      vertex  2.700000e+001 -2.916646e+000  6.659337e+001
    endloop
  endfacet
  facet normal  0.000000e+000  9.036933e-001  4.281805e-001
    outer loop
      vertex  7.000000e+000 -3.296176e+000  6.457470e+001
      vertex  2.700000e+001 -2.416679e+000  6.271848e+001
      vertex  7.000000e+000 -2.416679e+000  6.271848e+001
    endloop
  endfacet
  facet normal  -0.000000e+000  4.794253e-001  8.775827e-001
    outer loop
      vertex  7.000000e+000 -2.416679e+000  6.271848e+001
      vertex  2.700000e+001 -2.416679e+000  6.271848e+001
      vertex  2.700000e+001 -6.140926e-001  6.173373e+001
    endloop
  endfacet
  facet normal  0.000000e+000  4.794253e-001  8.775827e-001
    outer loop
      vertex  7.000000e+000 -2.416679e+000  6.271848e+001
      vertex  2.700000e+001 -6.140926e-001  6.173373e+001
      vertex  7.000000e+000 -6.140926e-001  6.173373e+001
    endloop
  endfacet
  facet normal  0.000000e+000 -1.279666e-001  9.917785e-001
    outer loop
      vertex  7.000000e+000 -6.140926e-001  6.173373e+001
      vertex  2.700000e+001 -6.140926e-001  6.173373e+001
      vertex  2.700000e+001  1.423056e+000  6.199657e+001
    endloop
  endfacet
  facet normal  0.000000e+000 -1.279666e-001  9.917785e-001
    outer loop
      vertex  7.000000e+000 -6.140926e-001  6.173373e+001
      vertex  2.700000e+001  1.423056e+000  6.199657e+001
      vertex  7.000000e+000  1.423056e+000  6.199657e+001
    endloop
  endfacet
  facet normal  0.000000e+000 -6.864797e-001  7.271490e-001
    outer loop
      vertex  7.000000e+000  1.423056e+000  6.199657e+001
      vertex  2.700000e+001  1.423056e+000  6.199657e+001
      vertex  2.700000e+001  2.916646e+000  6.340663e+001
    endloop
  endfacet
  facet normal  0.000000e+000 -6.864797e-001  7.271490e-001
    outer loop
      vertex  7.000000e+000  1.423056e+000  6.199657e+001
      vertex  2.700000e+001  2.916646e+000  6.340663e+001
      vertex  7.000000e+000  2.916646e+000  6.340663e+001
    endloop
  endfacet
  facet normal  0.000000e+000 -9.036933e-001 -4.281805e-001
    outer loop
      vertex  2.700000e+001  2.416679e+000  6.728152e+001
      vertex  7.000000e+000  3.296176e+000  6.542530e+001
      vertex  2.700000e+001  3.296176e+000  6.542530e+001
    endloop
  endfacet
  facet normal  0.000000e+000 -9.827814e-001  1.847725e-001
    outer loop
      vertex  2.700000e+001  3.296176e+000  6.542530e+001
      vertex  7.000000e+000  3.296176e+000  6.542530e+001
      vertex  7.000000e+000  2.916646e+000  6.340663e+001
    endloop
  endfacet
  facet normal  0.000000e+000 -9.827814e-001  1.847725e-001
    outer loop
      vertex  2.700000e+001  3.296176e+000  6.542530e+001
      vertex  7.000000e+000  2.916646e+000  6.340663e+001
      vertex  2.700000e+001  2.916646e+000  6.340663e+001
    endloop
  endfacet
  facet normal  -0.000000e+000 -9.036933e-001 -4.281805e-001
    outer loop
      vertex  7.000000e+000  3.296176e+000  6.542530e+001
      vertex  2.700000e+001  2.416679e+000  6.728152e+001
      vertex  7.000000e+000  2.416679e+000  6.728152e+001
    endloop
  endfacet
  facet normal  0.000000e+000 -4.794253e-001 -8.775827e-001
    outer loop
      vertex  7.000000e+000  2.416679e+000  6.728152e+001
      vertex  2.700000e+001  2.416679e+000  6.728152e+001
      vertex  2.700000e+001  6.140926e-001  6.826627e+001
    endloop
  endfacet
  facet normal  -0.000000e+000 -4.794253e-001 -8.775827e-001
    outer loop
      vertex  7.000000e+000  2.416679e+000  6.728152e+001
      vertex  2.700000e+001  6.140926e-001  6.826627e+001
      vertex  7.000000e+000  6.140926e-001  6.826627e+001
    endloop
  endfacet
  facet normal  0.000000e+000  1.279666e-001 -9.917785e-001
    outer loop
      vertex  7.000000e+000  6.140926e-001  6.826627e+001
      vertex  2.700000e+001  6.140926e-001  6.826627e+001
      vertex  2.700000e+001 -1.423056e+000  6.800343e+001
    endloop
  endfacet
  facet normal  0.000000e+000  1.279666e-001 -9.917785e-001
    outer loop
      vertex  7.000000e+000  6.140926e-001  6.826627e+001
      vertex  2.700000e+001 -1.423056e+000  6.800343e+001
      vertex  7.000000e+000 -1.423056e+000  6.800343e+001
    endloop
  endfacet
  facet normal  0.000000e+000  6.864806e-001 -7.271481e-001
    outer loop
      vertex  7.000000e+000 -1.423056e+000  6.800343e+001
      vertex  2.700000e+001 -1.423056e+000  6.800343e+001
      vertex  2.700000e+001 -2.916646e+000  6.659337e+001
    endloop
  endfacet
  facet normal  0.000000e+000  6.864806e-001 -7.271481e-001
    outer loop
      vertex  7.000000e+000 -1.423056e+000  6.800343e+001
      vertex  2.700000e+001 -2.916646e+000  6.659337e+001
      vertex  7.000000e+000 -2.916646e+000  6.659337e+001
    endloop
  endfacet
  facet normal  8.548182e-001 -5.099924e-001  9.588355e-002
    outer loop
      vertex  5.081176e+000  0.000000e+000  6.500000e+001
      vertex  7.000000e+000  2.916646e+000  6.340663e+001
      vertex  7.000000e+000  3.296176e+000  6.542530e+001
    endloop
  endfacet
  facet normal  8.548182e-001 -4.689513e-001 -2.221946e-001
    outer loop
      vertex  5.081176e+000  0.000000e+000  6.500000e+001
      vertex  7.000000e+000  3.296176e+000  6.542530e+001
      vertex  7.000000e+000  2.416679e+000  6.728152e+001
    endloop
  endfacet
  facet normal  8.548182e-001 -2.487870e-001 -4.554019e-001
    outer loop
      vertex  5.081176e+000  0.000000e+000  6.500000e+001
      vertex  7.000000e+000  2.416679e+000  6.728152e+001
      vertex  7.000000e+000  6.140926e-001  6.826627e+001
    endloop
  endfacet
  facet normal  8.548181e-001  6.640538e-002 -5.146613e-001
    outer loop
      vertex  5.081176e+000  0.000000e+000  6.500000e+001
      vertex  7.000000e+000  6.140926e-001  6.826627e+001
      vertex  7.000000e+000 -1.423056e+000  6.800343e+001
    endloop
  endfacet
  facet normal  8.548181e-001  3.562339e-001 -3.773373e-001
    outer loop
      vertex  5.081176e+000  0.000000e+000  6.500000e+001
      vertex  7.000000e+000 -1.423056e+000  6.800343e+001
      vertex  7.000000e+000 -2.916646e+000  6.659337e+001
    endloop
  endfacet
  facet normal  8.548181e-001  5.099925e-001 -9.588373e-002
    outer loop
      vertex  5.081176e+000  0.000000e+000  6.500000e+001
      vertex  7.000000e+000 -2.916646e+000  6.659337e+001
      vertex  7.000000e+000 -3.296176e+000  6.457470e+001
    endloop
  endfacet
  facet normal  8.548182e-001  4.689513e-001  2.221946e-001
    outer loop
      vertex  5.081176e+000  0.000000e+000  6.500000e+001
      vertex  7.000000e+000 -3.296176e+000  6.457470e+001
      vertex  7.000000e+000 -2.416679e+000  6.271848e+001
    endloop
  endfacet
  facet normal  8.548182e-001  2.487870e-001  4.554019e-001
    outer loop
      vertex  5.081176e+000  0.000000e+000  6.500000e+001
      vertex  7.000000e+000 -2.416679e+000  6.271848e+001
      vertex  7.000000e+000 -6.140926e-001  6.173373e+001
    endloop
  endfacet
  facet normal  8.548181e-001 -6.640538e-002  5.146613e-001
    outer loop
      vertex  5.081176e+000  0.000000e+000  6.500000e+001
      vertex  7.000000e+000 -6.140926e-001  6.173373e+001
      vertex  7.000000e+000  1.423056e+000  6.199657e+001
    endloop
  endfacet
  facet normal  8.548182e-001 -3.562332e-001  3.773377e-001
    outer loop
      vertex  5.081176e+000  0.000000e+000  6.500000e+001
      vertex  7.000000e+000  1.423056e+000  6.199657e+001
      vertex  7.000000e+000  2.916646e+000  6.340663e+001
    endloop
  endfacet
  facet normal  0.000000e+000 -9.036936e-001 -4.281797e-001
    outer loop
      vertex  2.700000e+001  2.181446e+000  2.205944e+001
      vertex  7.000000e+000  2.975335e+000  2.038390e+001
      vertex  2.700000e+001  2.975335e+000  2.038390e+001
    endloop
  endfacet
  facet normal  0.000000e+000 -9.827812e-001  1.847729e-001
    outer loop
      vertex  2.700000e+001  2.975335e+000  2.038390e+001
      vertex  7.000000e+000  2.975335e+000  2.038390e+001
      vertex  7.000000e+000  2.632748e+000  1.856172e+001
    endloop
  endfacet
  facet normal  0.000000e+000 -9.827812e-001  1.847729e-001
    outer loop
      vertex  2.700000e+001  2.975335e+000  2.038390e+001
      vertex  7.000000e+000  2.632748e+000  1.856172e+001
      vertex  2.700000e+001  2.632748e+000  1.856172e+001
    endloop
  endfacet
  facet normal  -0.000000e+000 -9.036936e-001 -4.281797e-001
    outer loop
      vertex  7.000000e+000  2.975335e+000  2.038390e+001
      vertex  2.700000e+001  2.181446e+000  2.205944e+001
      vertex  7.000000e+000  2.181446e+000  2.205944e+001
    endloop
  endfacet
  facet normal  0.000000e+000 -4.794251e-001 -8.775828e-001
    outer loop
      vertex  7.000000e+000  2.181446e+000  2.205944e+001
      vertex  2.700000e+001  2.181446e+000  2.205944e+001
      vertex  2.700000e+001  5.543185e-001  2.294834e+001
    endloop
  endfacet
  facet normal  -0.000000e+000 -4.794251e-001 -8.775828e-001
    outer loop
      vertex  7.000000e+000  2.181446e+000  2.205944e+001
      vertex  2.700000e+001  5.543185e-001  2.294834e+001
      vertex  7.000000e+000  5.543185e-001  2.294834e+001
    endloop
  endfacet
  facet normal  0.000000e+000  1.279664e-001 -9.917785e-001
    outer loop
      vertex  7.000000e+000  5.543185e-001  2.294834e+001
      vertex  2.700000e+001  5.543185e-001  2.294834e+001
      vertex  2.700000e+001 -1.284540e+000  2.271108e+001
    endloop
  endfacet
  facet normal  0.000000e+000  1.279664e-001 -9.917785e-001
    outer loop
      vertex  7.000000e+000  5.543185e-001  2.294834e+001
      vertex  2.700000e+001 -1.284540e+000  2.271108e+001
      vertex  7.000000e+000 -1.284540e+000  2.271108e+001
    endloop
  endfacet
  facet normal  0.000000e+000  6.864802e-001 -7.271487e-001
    outer loop
      vertex  7.000000e+000 -1.284540e+000  2.271108e+001
      vertex  2.700000e+001 -1.284540e+000  2.271108e+001
      vertex  2.700000e+001 -2.632748e+000  2.143828e+001
    endloop
  endfacet
  facet normal  0.000000e+000  6.864802e-001 -7.271487e-001
    outer loop
      vertex  7.000000e+000 -1.284540e+000  2.271108e+001
      vertex  2.700000e+001 -2.632748e+000  2.143828e+001
      vertex  7.000000e+000 -2.632748e+000  2.143828e+001
    endloop
  endfacet
  facet normal  -0.000000e+000  9.036936e-001  4.281797e-001
    outer loop
      vertex  2.700000e+001 -2.181446e+000  1.794056e+001
      vertex  7.000000e+000 -2.975335e+000  1.961610e+001
      vertex  2.700000e+001 -2.975335e+000  1.961610e+001
    endloop
  endfacet
  facet normal  0.000000e+000  9.827812e-001 -1.847729e-001
    outer loop
      vertex  2.700000e+001 -2.975335e+000  1.961610e+001
      vertex  7.000000e+000 -2.975335e+000  1.961610e+001
      vertex  7.000000e+000 -2.632748e+000  2.143828e+001
    endloop
  endfacet
  facet normal  0.000000e+000  9.827812e-001 -1.847729e-001
    outer loop
      vertex  2.700000e+001 -2.975335e+000  1.961610e+001
      vertex  7.000000e+000 -2.632748e+000  2.143828e+001
      vertex  2.700000e+001 -2.632748e+000  2.143828e+001
    endloop
  endfacet
  facet normal  0.000000e+000  9.036936e-001  4.281797e-001
    outer loop
      vertex  7.000000e+000 -2.975335e+000  1.961610e+001
      vertex  2.700000e+001 -2.181446e+000  1.794056e+001
      vertex  7.000000e+000 -2.181446e+000  1.794056e+001
    endloop
  endfacet
  facet normal  -0.000000e+000  4.794251e-001  8.775828e-001
    outer loop
      vertex  7.000000e+000 -2.181446e+000  1.794056e+001
      vertex  2.700000e+001 -2.181446e+000  1.794056e+001
      vertex  2.700000e+001 -5.543185e-001  1.705166e+001
    endloop
  endfacet
  facet normal  0.000000e+000  4.794251e-001  8.775828e-001
    outer loop
      vertex  7.000000e+000 -2.181446e+000  1.794056e+001
      vertex  2.700000e+001 -5.543185e-001  1.705166e+001
      vertex  7.000000e+000 -5.543185e-001  1.705166e+001
    endloop
  endfacet
  facet normal  0.000000e+000 -1.279664e-001  9.917785e-001
    outer loop
      vertex  7.000000e+000 -5.543185e-001  1.705166e+001
      vertex  2.700000e+001 -5.543185e-001  1.705166e+001
      vertex  2.700000e+001  1.284540e+000  1.728892e+001
    endloop
  endfacet
  facet normal  0.000000e+000 -1.279664e-001  9.917785e-001
    outer loop
      vertex  7.000000e+000 -5.543185e-001  1.705166e+001
      vertex  2.700000e+001  1.284540e+000  1.728892e+001
      vertex  7.000000e+000  1.284540e+000  1.728892e+001
    endloop
  endfacet
  facet normal  0.000000e+000 -6.864802e-001  7.271487e-001
    outer loop
      vertex  7.000000e+000  1.284540e+000  1.728892e+001
      vertex  2.700000e+001  1.284540e+000  1.728892e+001
      vertex  2.700000e+001  2.632748e+000  1.856172e+001
    endloop
  endfacet
  facet normal  0.000000e+000 -6.864802e-001  7.271487e-001
    outer loop
      vertex  7.000000e+000  1.284540e+000  1.728892e+001
      vertex  2.700000e+001  2.632748e+000  1.856172e+001
      vertex  7.000000e+000  2.632748e+000  1.856172e+001
    endloop
  endfacet
  facet normal  8.548182e-001 -5.099924e-001  9.588378e-002
    outer loop
      vertex  5.267949e+000  0.000000e+000  2.000000e+001
      vertex  7.000000e+000  2.632748e+000  1.856172e+001
      vertex  7.000000e+000  2.975335e+000  2.038390e+001
    endloop
  endfacet
  facet normal  8.548182e-001 -4.689516e-001 -2.221943e-001
    outer loop
      vertex  5.267949e+000  0.000000e+000  2.000000e+001
      vertex  7.000000e+000  2.975335e+000  2.038390e+001
      vertex  7.000000e+000  2.181446e+000  2.205944e+001
    endloop
  endfacet
  facet normal  8.548182e-001 -2.487869e-001 -4.554020e-001
    outer loop
      vertex  5.267949e+000  0.000000e+000  2.000000e+001
      vertex  7.000000e+000  2.181446e+000  2.205944e+001
      vertex  7.000000e+000  5.543185e-001  2.294834e+001
    endloop
  endfacet
  facet normal  8.548182e-001  6.640530e-002 -5.146613e-001
    outer loop
      vertex  5.267949e+000  0.000000e+000  2.000000e+001
      vertex  7.000000e+000  5.543185e-001  2.294834e+001
      vertex  7.000000e+000 -1.284540e+000  2.271108e+001
    endloop
  endfacet
  facet normal  8.548182e-001  3.562335e-001 -3.773375e-001
    outer loop
      vertex  5.267949e+000  0.000000e+000  2.000000e+001
      vertex  7.000000e+000 -1.284540e+000  2.271108e+001
      vertex  7.000000e+000 -2.632748e+000  2.143828e+001
    endloop
  endfacet
  facet normal  8.548182e-001  5.099924e-001 -9.588378e-002
    outer loop
      vertex  5.267949e+000  0.000000e+000  2.000000e+001
      vertex  7.000000e+000 -2.632748e+000  2.143828e+001
      vertex  7.000000e+000 -2.975335e+000  1.961610e+001
    endloop
  endfacet
  facet normal  8.548182e-001  4.689516e-001  2.221943e-001
    outer loop
      vertex  5.267949e+000  0.000000e+000  2.000000e+001
      vertex  7.000000e+000 -2.975335e+000  1.961610e+001
      vertex  7.000000e+000 -2.181446e+000  1.794056e+001
    endloop
  endfacet
  facet normal  8.548182e-001  2.487869e-001  4.554020e-001
    outer loop
      vertex  5.267949e+000  0.000000e+000  2.000000e+001
      vertex  7.000000e+000 -2.181446e+000  1.794056e+001
      vertex  7.000000e+000 -5.543185e-001  1.705166e+001
    endloop
  endfacet
  facet normal  8.548182e-001 -6.640530e-002  5.146613e-001
    outer loop
      vertex  5.267949e+000  0.000000e+000  2.000000e+001
      vertex  7.000000e+000 -5.543185e-001  1.705166e+001
      vertex  7.000000e+000  1.284540e+000  1.728892e+001
    endloop
  endfacet
  facet normal  8.548182e-001 -3.562335e-001  3.773375e-001
    outer loop
      vertex  5.267949e+000  0.000000e+000  2.000000e+001
      vertex  7.000000e+000  1.284540e+000  1.728892e+001
      vertex  7.000000e+000  2.632748e+000  1.856172e+001
    endloop
  endfacet
  facet normal  -0.000000e+000  9.036936e-001  4.281797e-001
    outer loop
      vertex  2.700000e+001 -2.181446e+000  4.794056e+001
      vertex  7.000000e+000 -2.975335e+000  4.961610e+001
      vertex  2.700000e+001 -2.975335e+000  4.961610e+001
    endloop
  endfacet
  facet normal  0.000000e+000  9.827812e-001 -1.847727e-001
    outer loop
      vertex  2.700000e+001 -2.975335e+000  4.961610e+001
      vertex  7.000000e+000 -2.975335e+000  4.961610e+001
      vertex  7.000000e+000 -2.632748e+000  5.143828e+001
    endloop
  endfacet
  facet normal  0.000000e+000  9.827812e-001 -1.847727e-001
    outer loop
      vertex  2.700000e+001 -2.975335e+000  4.961610e+001
      vertex  7.000000e+000 -2.632748e+000  5.143828e+001
      vertex  2.700000e+001 -2.632748e+000  5.143828e+001
    endloop
  endfacet
  facet normal  0.000000e+000  9.036936e-001  4.281797e-001
    outer loop
      vertex  7.000000e+000 -2.975335e+000  4.961610e+001
      vertex  2.700000e+001 -2.181446e+000  4.794056e+001
      vertex  7.000000e+000 -2.181446e+000  4.794056e+001
    endloop
  endfacet
  facet normal  -0.000000e+000  4.794259e-001  8.775824e-001
    outer loop
      vertex  7.000000e+000 -2.181446e+000  4.794056e+001
      vertex  2.700000e+001 -2.181446e+000  4.794056e+001
      vertex  2.700000e+001 -5.543185e-001  4.705165e+001
    endloop
  endfacet
  facet normal  0.000000e+000  4.794259e-001  8.775824e-001
    outer loop
      vertex  7.000000e+000 -2.181446e+000  4.794056e+001
      vertex  2.700000e+001 -5.543185e-001  4.705165e+001
      vertex  7.000000e+000 -5.543185e-001  4.705165e+001
    endloop
  endfacet
  facet normal  0.000000e+000 -1.279684e-001  9.917783e-001
    outer loop
      vertex  7.000000e+000 -5.543185e-001  4.705165e+001
      vertex  2.700000e+001 -5.543185e-001  4.705165e+001
      vertex  2.700000e+001  1.284540e+000  4.728892e+001
    endloop
  endfacet
  facet normal  0.000000e+000 -1.279684e-001  9.917783e-001
    outer loop
      vertex  7.000000e+000 -5.543185e-001  4.705165e+001
      vertex  2.700000e+001  1.284540e+000  4.728892e+001
      vertex  7.000000e+000  1.284540e+000  4.728892e+001
    endloop
  endfacet
  facet normal  0.000000e+000 -6.864790e-001  7.271496e-001
    outer loop
      vertex  7.000000e+000  1.284540e+000  4.728892e+001
      vertex  2.700000e+001  1.284540e+000  4.728892e+001
      vertex  2.700000e+001  2.632748e+000  4.856172e+001
    endloop
  endfacet
  facet normal  0.000000e+000 -6.864790e-001  7.271496e-001
    outer loop
      vertex  7.000000e+000  1.284540e+000  4.728892e+001
      vertex  2.700000e+001  2.632748e+000  4.856172e+001
      vertex  7.000000e+000  2.632748e+000  4.856172e+001
    endloop
  endfacet
  facet normal  0.000000e+000 -9.036936e-001 -4.281797e-001
    outer loop
      vertex  2.700000e+001  2.181446e+000  5.205944e+001
      vertex  7.000000e+000  2.975335e+000  5.038390e+001
      vertex  2.700000e+001  2.975335e+000  5.038390e+001
    endloop
  endfacet
  facet normal  0.000000e+000 -9.827812e-001  1.847727e-001
    outer loop
      vertex  2.700000e+001  2.975335e+000  5.038390e+001
      vertex  7.000000e+000  2.975335e+000  5.038390e+001
      vertex  7.000000e+000  2.632748e+000  4.856172e+001
    endloop
  endfacet
  facet normal  0.000000e+000 -9.827812e-001  1.847727e-001
    outer loop
      vertex  2.700000e+001  2.975335e+000  5.038390e+001
      vertex  7.000000e+000  2.632748e+000  4.856172e+001
      vertex  2.700000e+001  2.632748e+000  4.856172e+001
    endloop
  endfacet
  facet normal  -0.000000e+000 -9.036936e-001 -4.281797e-001
    outer loop
      vertex  7.000000e+000  2.975335e+000  5.038390e+001
      vertex  2.700000e+001  2.181446e+000  5.205944e+001
      vertex  7.000000e+000  2.181446e+000  5.205944e+001
    endloop
  endfacet
  facet normal  0.000000e+000 -4.794259e-001 -8.775824e-001
    outer loop
      vertex  7.000000e+000  2.181446e+000  5.205944e+001
      vertex  2.700000e+001  2.181446e+000  5.205944e+001
      vertex  2.700000e+001  5.543185e-001  5.294835e+001
    endloop
  endfacet
  facet normal  -0.000000e+000 -4.794259e-001 -8.775824e-001
    outer loop
      vertex  7.000000e+000  2.181446e+000  5.205944e+001
      vertex  2.700000e+001  5.543185e-001  5.294835e+001
      vertex  7.000000e+000  5.543185e-001  5.294835e+001
    endloop
  endfacet
  facet normal  0.000000e+000  1.279684e-001 -9.917783e-001
    outer loop
      vertex  7.000000e+000  5.543185e-001  5.294835e+001
      vertex  2.700000e+001  5.543185e-001  5.294835e+001
      vertex  2.700000e+001 -1.284540e+000  5.271108e+001
    endloop
  endfacet
  facet normal  0.000000e+000  1.279684e-001 -9.917783e-001
    outer loop
      vertex  7.000000e+000  5.543185e-001  5.294835e+001
      vertex  2.700000e+001 -1.284540e+000  5.271108e+001
      vertex  7.000000e+000 -1.284540e+000  5.271108e+001
    endloop
  endfacet
  facet normal  0.000000e+000  6.864790e-001 -7.271496e-001
    outer loop
      vertex  7.000000e+000 -1.284540e+000  5.271108e+001
      vertex  2.700000e+001 -1.284540e+000  5.271108e+001
      vertex  2.700000e+001 -2.632748e+000  5.143828e+001
    endloop
  endfacet
  facet normal  0.000000e+000  6.864790e-001 -7.271496e-001
    outer loop
      vertex  7.000000e+000 -1.284540e+000  5.271108e+001
      vertex  2.700000e+001 -2.632748e+000  5.143828e+001
      vertex  7.000000e+000 -2.632748e+000  5.143828e+001
    endloop
  endfacet
  facet normal  8.548182e-001 -5.099924e-001  9.588368e-002
    outer loop
      vertex  5.267949e+000  0.000000e+000  5.000000e+001
      vertex  7.000000e+000  2.632748e+000  4.856172e+001
      vertex  7.000000e+000  2.975335e+000  5.038390e+001
    endloop
  endfacet
  facet normal  8.548182e-001 -4.689516e-001 -2.221943e-001
    outer loop
      vertex  5.267949e+000  0.000000e+000  5.000000e+001
      vertex  7.000000e+000  2.975335e+000  5.038390e+001
      vertex  7.000000e+000  2.181446e+000  5.205944e+001
    endloop
  endfacet
  facet normal  8.548183e-001 -2.487873e-001 -4.554017e-001
    outer loop
      vertex  5.267949e+000  0.000000e+000  5.000000e+001
      vertex  7.000000e+000  2.181446e+000  5.205944e+001
      vertex  7.000000e+000  5.543185e-001  5.294835e+001
    endloop
  endfacet
  facet normal  8.548182e-001  6.640635e-002 -5.146612e-001
    outer loop
      vertex  5.267949e+000  0.000000e+000  5.000000e+001
      vertex  7.000000e+000  5.543185e-001  5.294835e+001
      vertex  7.000000e+000 -1.284540e+000  5.271108e+001
    endloop
  endfacet
  facet normal  8.548182e-001  3.562329e-001 -3.773381e-001
    outer loop
      vertex  5.267949e+000  0.000000e+000  5.000000e+001
      vertex  7.000000e+000 -1.284540e+000  5.271108e+001
      vertex  7.000000e+000 -2.632748e+000  5.143828e+001
    endloop
  endfacet
  facet normal  8.548182e-001  5.099924e-001 -9.588368e-002
    outer loop
      vertex  5.267949e+000  0.000000e+000  5.000000e+001
      vertex  7.000000e+000 -2.632748e+000  5.143828e+001
      vertex  7.000000e+000 -2.975335e+000  4.961610e+001
    endloop
  endfacet
  facet normal  8.548182e-001  4.689516e-001  2.221943e-001
    outer loop
      vertex  5.267949e+000  0.000000e+000  5.000000e+001
      vertex  7.000000e+000 -2.975335e+000  4.961610e+001
      vertex  7.000000e+000 -2.181446e+000  4.794056e+001
    endloop
  endfacet
  facet normal  8.548183e-001  2.487873e-001  4.554017e-001
    outer loop
      vertex  5.267949e+000  0.000000e+000  5.000000e+001
      vertex  7.000000e+000 -2.181446e+000  4.794056e+001
      vertex  7.000000e+000 -5.543185e-001  4.705165e+001
    endloop
  endfacet
  facet normal  8.548182e-001 -6.640635e-002  5.146612e-001
    outer loop
      vertex  5.267949e+000  0.000000e+000  5.000000e+001
      vertex  7.000000e+000 -5.543185e-001  4.705165e+001
      vertex  7.000000e+000  1.284540e+000  4.728892e+001
    endloop
  endfacet
  facet normal  8.548182e-001 -3.562329e-001  3.773381e-001
    outer loop
      vertex  5.267949e+000  0.000000e+000  5.000000e+001
      vertex  7.000000e+000  1.284540e+000  4.728892e+001
      vertex  7.000000e+000  2.632748e+000  4.856172e+001
    endloop
  endfacet
  facet normal  0.000000e+000  1.000000e+000  0.000000e+000
    outer loop
      vertex  2.700000e+001  1.000000e+001  0.000000e+000
      vertex -2.700000e+001  1.000000e+001  0.000000e+000
      vertex  2.700000e+001  1.000000e+001  7.500000e+001
    endloop
  endfacet
  facet normal  0.000000e+000  1.000000e+000  0.000000e+000
    outer loop
      vertex  2.700000e+001  1.000000e+001  7.500000e+001
      vertex -2.700000e+001  1.000000e+001  0.000000e+000
      vertex -2.700000e+001  1.000000e+001  7.500000e+001
    endloop
  endfacet
  facet normal  0.000000e+000 -1.000000e+000  -0.000000e+000
    outer loop
      vertex  2.700000e+001 -1.000000e+001  0.000000e+000
      vertex  2.700000e+001 -1.000000e+001  7.500000e+001
      vertex -2.700000e+001 -1.000000e+001  0.000000e+000
    endloop
  endfacet
  facet normal  0.000000e+000 -1.000000e+000  0.000000e+000
    outer loop
      vertex -2.700000e+001 -1.000000e+001  0.000000e+000
      vertex  2.700000e+001 -1.000000e+001  7.500000e+001
      vertex -2.700000e+001 -1.000000e+001  7.500000e+001
    endloop
  endfacet
  facet normal  -0.000000e+000  0.000000e+000  1.000000e+000
    outer loop
      vertex  2.700000e+001  1.000000e+001  7.500000e+001
      vertex -2.700000e+001  1.000000e+001  7.500000e+001
      vertex  2.700000e+001 -1.000000e+001  7.500000e+001
    endloop
  endfacet
  facet normal  0.000000e+000  0.000000e+000  1.000000e+000
    outer loop
      vertex  2.700000e+001 -1.000000e+001  7.500000e+001
      vertex -2.700000e+001  1.000000e+001  7.500000e+001
      vertex -2.700000e+001 -1.000000e+001  7.500000e+001
    endloop
  endfacet
  facet normal  -0.000000e+000  0.000000e+000 -1.000000e+000
    outer loop
      vertex -2.700000e+001  1.000000e+001  0.000000e+000
      vertex  2.700000e+001  1.000000e+001  0.000000e+000
      vertex -2.700000e+001 -1.000000e+001  0.000000e+000
    endloop
  endfacet
  facet normal  0.000000e+000  0.000000e+000 -1.000000e+000
    outer loop
      vertex -2.700000e+001 -1.000000e+001  0.000000e+000
      vertex  2.700000e+001  1.000000e+001  0.000000e+000
      vertex  2.700000e+001 -1.000000e+001  0.000000e+000
    endloop
  endfacet
endsolid CATIA STL
