solid CATIA STL
  facet normal  1.000000e+000  -0.000000e+000  -0.000000e+000
    outer loop
      vertex  1.000000e+001  0.000000e+000  3.000000e+000
      vertex  1.000000e+001  4.019238e-001  1.500000e+000
      vertex  1.000000e+001  1.500000e+000  4.019238e-001
    endloop
  endfacet
  facet normal  1.000000e+000  -0.000000e+000  -0.000000e+000
    outer loop
      vertex  1.000000e+001  0.000000e+000  3.000000e+000
      vertex  1.000000e+001  1.500000e+000  4.019238e-001
      vertex  1.000000e+001  3.000000e+000  0.000000e+000
    endloop
  endfacet
  facet normal  1.000000e+000  0.000000e+000  -0.000000e+000
    outer loop
      vertex  1.000000e+001  0.000000e+000  3.000000e+000
      vertex  1.000000e+001  3.000000e+000  0.000000e+000
      vertex  1.000000e+001  1.510618e+001  4.050125e+001
    endloop
  endfacet
  facet normal  9.999999e-001  0.000000e+000  0.000000e+000
    outer loop
      vertex  1.000000e+001  0.000000e+000  3.000000e+000
      vertex  1.000000e+001  1.510618e+001  4.050125e+001
      vertex  1.000000e+001  1.284258e+001  4.105088e+001
    endloop
  endfacet
  facet normal  1.000000e+000  0.000000e+000  0.000000e+000
    outer loop
      vertex  1.000000e+001  0.000000e+000  3.000000e+000
      vertex  1.000000e+001  1.284258e+001  4.105088e+001
      vertex  1.000000e+001  1.115706e+001  4.265867e+001
    endloop
  endfacet
  facet normal  9.999999e-001  0.000000e+000  0.000000e+000
    outer loop
      vertex  1.000000e+001  0.000000e+000  3.000000e+000
      vertex  1.000000e+001  1.115706e+001  4.265867e+001
      vertex  1.000000e+001  1.050125e+001  4.489381e+001
    endloop
  endfacet
  facet normal  1.000000e+000  0.000000e+000  -0.000000e+000
    outer loop
      vertex  1.000000e+001  0.000000e+000  3.000000e+000
      vertex  1.000000e+001  1.050125e+001  4.489381e+001
      vertex  1.000000e+001  1.105088e+001  4.715741e+001
    endloop
  endfacet
  facet normal  1.000000e+000  0.000000e+000  0.000000e+000
    outer loop
      vertex  1.000000e+001  5.800000e+001  5.700000e+001
      vertex  1.000000e+001  5.759808e+001  5.850000e+001
      vertex  1.000000e+001  5.650000e+001  5.959808e+001
    endloop
  endfacet
  facet normal  1.000000e+000  0.000000e+000  0.000000e+000
    outer loop
      vertex  1.000000e+001  5.800000e+001  5.700000e+001
      vertex  1.000000e+001  5.650000e+001  5.959808e+001
      vertex  1.000000e+001  4.715741e+001  4.894912e+001
    endloop
  endfacet
  facet normal  1.000000e+000  -0.000000e+000  0.000000e+000
    outer loop
      vertex  1.000000e+001  5.800000e+001  5.700000e+001
      vertex  1.000000e+001  4.715741e+001  4.894912e+001
      vertex  1.000000e+001  4.884294e+001  4.734133e+001
    endloop
  endfacet
  facet normal  1.000000e+000  -0.000000e+000  0.000000e+000
    outer loop
      vertex  1.000000e+001  5.800000e+001  5.700000e+001
      vertex  1.000000e+001  4.884294e+001  4.734133e+001
      vertex  1.000000e+001  5.800000e+001  3.300000e+001
    endloop
  endfacet
  facet normal  1.000000e+000  0.000000e+000  -0.000000e+000
    outer loop
      vertex  1.000000e+001  6.100000e+001  3.000000e+001
      vertex  1.000000e+001  7.301661e+001  1.441806e+001
      vertex  1.000000e+001  7.318604e+001  1.599097e+001
    endloop
  endfacet
  facet normal  1.000000e+000  0.000000e+000  -0.000000e+000
    outer loop
      vertex  1.000000e+001  6.100000e+001  3.000000e+001
      vertex  1.000000e+001  7.318604e+001  1.599097e+001
      vertex  1.000000e+001  7.441806e+001  1.698339e+001
    endloop
  endfacet
  facet normal  1.000000e+000  -0.000000e+000  -0.000000e+000
    outer loop
      vertex  1.000000e+001  6.100000e+001  3.000000e+001
      vertex  1.000000e+001  7.441806e+001  1.698339e+001
      vertex  1.000000e+001  7.599097e+001  1.681396e+001
    endloop
  endfacet
  facet normal  1.000000e+000  -0.000000e+000  -0.000000e+000
    outer loop
      vertex  1.000000e+001  6.100000e+001  3.000000e+001
      vertex  1.000000e+001  7.599097e+001  1.681396e+001
      vertex  1.000000e+001  9.818604e+001  1.599097e+001
    endloop
  endfacet
  facet normal  9.999999e-001  0.000000e+000  -0.000000e+000
    outer loop
      vertex  1.000000e+001  6.100000e+001  3.000000e+001
      vertex  1.000000e+001  9.818604e+001  1.599097e+001
      vertex  1.000000e+001  9.941806e+001  1.698339e+001
    endloop
  endfacet
  facet normal  1.000000e+000  -0.000000e+000  -0.000000e+000
    outer loop
      vertex  1.000000e+001  6.100000e+001  3.000000e+001
      vertex  1.000000e+001  9.941806e+001  1.698339e+001
      vertex  1.000000e+001  1.009910e+002  1.681396e+001
    endloop
  endfacet
  facet normal  9.999999e-001  0.000000e+000  -0.000000e+000
    outer loop
      vertex  1.000000e+001  6.100000e+001  3.000000e+001
      vertex  1.000000e+001  1.009910e+002  1.681396e+001
      vertex  1.000000e+001  1.290000e+002  3.000000e+001
    endloop
  endfacet
  facet normal  1.000000e+000  -0.000000e+000  0.000000e+000
    outer loop
      vertex  1.000000e+001  3.000000e+000  6.000000e+001
      vertex  1.000000e+001  1.500000e+000  5.959808e+001
      vertex  1.000000e+001  1.489382e+001  4.949875e+001
    endloop
  endfacet
  facet normal  1.000000e+000  -0.000000e+000  -0.000000e+000
    outer loop
      vertex  1.000000e+001  3.000000e+000  6.000000e+001
      vertex  1.000000e+001  1.489382e+001  4.949875e+001
      vertex  1.000000e+001  1.715742e+001  4.894912e+001
    endloop
  endfacet
  facet normal  1.000000e+000  -0.000000e+000  -0.000000e+000
    outer loop
      vertex  1.000000e+001  3.000000e+000  6.000000e+001
      vertex  1.000000e+001  1.715742e+001  4.894912e+001
      vertex  1.000000e+001  4.265867e+001  4.884294e+001
    endloop
  endfacet
  facet normal  1.000000e+000  0.000000e+000  -0.000000e+000
    outer loop
      vertex  1.000000e+001  3.000000e+000  6.000000e+001
      vertex  1.000000e+001  4.265867e+001  4.884294e+001
      vertex  1.000000e+001  4.489381e+001  4.949875e+001
    endloop
  endfacet
  facet normal  1.000000e+000  0.000000e+000  -0.000000e+000
    outer loop
      vertex  1.000000e+001  3.000000e+000  6.000000e+001
      vertex  1.000000e+001  4.489381e+001  4.949875e+001
      vertex  1.000000e+001  5.500000e+001  6.000000e+001
    endloop
  endfacet
  facet normal  1.000000e+000  0.000000e+000  0.000000e+000
    outer loop
      vertex  1.000000e+001  3.000000e+000  0.000000e+000
      vertex  1.000000e+001  1.290000e+002  0.000000e+000
      vertex  1.000000e+001  1.005819e+002  1.301661e+001
    endloop
  endfacet
  facet normal  9.999999e-001  0.000000e+000  0.000000e+000
    outer loop
      vertex  1.000000e+001  3.000000e+000  0.000000e+000
      vertex  1.000000e+001  1.005819e+002  1.301661e+001
      vertex  1.000000e+001  9.900903e+001  1.318604e+001
    endloop
  endfacet
  facet normal  1.000000e+000  0.000000e+000  0.000000e+000
    outer loop
      vertex  1.000000e+001  3.000000e+000  0.000000e+000
      vertex  1.000000e+001  9.900903e+001  1.318604e+001
      vertex  1.000000e+001  7.558194e+001  1.301661e+001
    endloop
  endfacet
  facet normal  1.000000e+000  0.000000e+000  0.000000e+000
    outer loop
      vertex  1.000000e+001  3.000000e+000  0.000000e+000
      vertex  1.000000e+001  7.558194e+001  1.301661e+001
      vertex  1.000000e+001  7.400903e+001  1.318604e+001
    endloop
  endfacet
  facet normal  1.000000e+000  0.000000e+000  0.000000e+000
    outer loop
      vertex  1.000000e+001  3.000000e+000  0.000000e+000
      vertex  1.000000e+001  7.400903e+001  1.318604e+001
      vertex  1.000000e+001  7.301661e+001  1.441806e+001
    endloop
  endfacet
  facet normal  9.999999e-001  0.000000e+000  0.000000e+000
    outer loop
      vertex  1.000000e+001  3.000000e+000  0.000000e+000
      vertex  1.000000e+001  7.301661e+001  1.441806e+001
      vertex  1.000000e+001  6.100000e+001  3.000000e+001
    endloop
  endfacet
  facet normal  1.000000e+000  0.000000e+000  0.000000e+000
    outer loop
      vertex  1.000000e+001  3.000000e+000  0.000000e+000
      vertex  1.000000e+001  6.100000e+001  3.000000e+001
      vertex  1.000000e+001  5.950000e+001  3.040192e+001
    endloop
  endfacet
  facet normal  1.000000e+000  0.000000e+000  0.000000e+000
    outer loop
      vertex  1.000000e+001  3.000000e+000  0.000000e+000
      vertex  1.000000e+001  5.950000e+001  3.040192e+001
      vertex  1.000000e+001  5.840192e+001  3.150000e+001
    endloop
  endfacet
  facet normal  9.999999e-001  0.000000e+000  0.000000e+000
    outer loop
      vertex  1.000000e+001  3.000000e+000  0.000000e+000
      vertex  1.000000e+001  5.840192e+001  3.150000e+001
      vertex  1.000000e+001  5.800000e+001  3.300000e+001
    endloop
  endfacet
  facet normal  1.000000e+000  0.000000e+000  0.000000e+000
    outer loop
      vertex  1.000000e+001  3.000000e+000  0.000000e+000
      vertex  1.000000e+001  5.800000e+001  3.300000e+001
      vertex  1.000000e+001  4.510619e+001  4.050125e+001
    endloop
  endfacet
  facet normal  1.000000e+000  0.000000e+000  0.000000e+000
    outer loop
      vertex  1.000000e+001  3.000000e+000  0.000000e+000
      vertex  1.000000e+001  4.510619e+001  4.050125e+001
      vertex  1.000000e+001  4.284259e+001  4.105088e+001
    endloop
  endfacet
  facet normal  1.000000e+000  0.000000e+000  0.000000e+000
    outer loop
      vertex  1.000000e+001  3.000000e+000  0.000000e+000
      vertex  1.000000e+001  4.284259e+001  4.105088e+001
      vertex  1.000000e+001  1.510618e+001  4.050125e+001
    endloop
  endfacet
  facet normal  1.000000e+000  0.000000e+000  -0.000000e+000
    outer loop
      vertex  1.000000e+001  1.005819e+002  1.301661e+001
      vertex  1.000000e+001  1.290000e+002  0.000000e+000
      vertex  1.000000e+001  1.305000e+002  4.019238e-001
    endloop
  endfacet
  facet normal  1.000000e+000  0.000000e+000  -0.000000e+000
    outer loop
      vertex  1.000000e+001  1.005819e+002  1.301661e+001
      vertex  1.000000e+001  1.305000e+002  4.019238e-001
      vertex  1.000000e+001  1.315981e+002  1.500000e+000
    endloop
  endfacet
  facet normal  1.000000e+000  0.000000e+000  -0.000000e+000
    outer loop
      vertex  1.000000e+001  1.005819e+002  1.301661e+001
      vertex  1.000000e+001  1.315981e+002  1.500000e+000
      vertex  1.000000e+001  1.320000e+002  3.000000e+000
    endloop
  endfacet
  facet normal  1.000000e+000  0.000000e+000  0.000000e+000
    outer loop
      vertex  1.000000e+001  0.000000e+000  5.700000e+001
      vertex  1.000000e+001  0.000000e+000  3.000000e+000
      vertex  1.000000e+001  1.105088e+001  4.715741e+001
    endloop
  endfacet
  facet normal  1.000000e+000  0.000000e+000  -0.000000e+000
    outer loop
      vertex  1.000000e+001  0.000000e+000  5.700000e+001
      vertex  1.000000e+001  1.105088e+001  4.715741e+001
      vertex  1.000000e+001  1.265867e+001  4.884294e+001
    endloop
  endfacet
  facet normal  1.000000e+000  0.000000e+000  -0.000000e+000
    outer loop
      vertex  1.000000e+001  0.000000e+000  5.700000e+001
      vertex  1.000000e+001  1.265867e+001  4.884294e+001
      vertex  1.000000e+001  1.489382e+001  4.949875e+001
    endloop
  endfacet
  facet normal  1.000000e+000  0.000000e+000  0.000000e+000
    outer loop
      vertex  1.000000e+001  0.000000e+000  5.700000e+001
      vertex  1.000000e+001  1.489382e+001  4.949875e+001
      vertex  1.000000e+001  1.500000e+000  5.959808e+001
    endloop
  endfacet
  facet normal  1.000000e+000  0.000000e+000  0.000000e+000
    outer loop
      vertex  1.000000e+001  0.000000e+000  5.700000e+001
      vertex  1.000000e+001  1.500000e+000  5.959808e+001
      vertex  1.000000e+001  4.019238e-001  5.850000e+001
    endloop
  endfacet
  facet normal  1.000000e+000  0.000000e+000  0.000000e+000
    outer loop
      vertex  1.000000e+001  5.800000e+001  3.300000e+001
      vertex  1.000000e+001  4.884294e+001  4.734133e+001
      vertex  1.000000e+001  4.949875e+001  4.510619e+001
    endloop
  endfacet
  facet normal  1.000000e+000  0.000000e+000  0.000000e+000
    outer loop
      vertex  1.000000e+001  5.800000e+001  3.300000e+001
      vertex  1.000000e+001  4.949875e+001  4.510619e+001
      vertex  1.000000e+001  4.894912e+001  4.284259e+001
    endloop
  endfacet
  facet normal  1.000000e+000  0.000000e+000  0.000000e+000
    outer loop
      vertex  1.000000e+001  5.800000e+001  3.300000e+001
      vertex  1.000000e+001  4.894912e+001  4.284259e+001
      vertex  1.000000e+001  4.734133e+001  4.115706e+001
    endloop
  endfacet
  facet normal  1.000000e+000  0.000000e+000  0.000000e+000
    outer loop
      vertex  1.000000e+001  5.800000e+001  3.300000e+001
      vertex  1.000000e+001  4.734133e+001  4.115706e+001
      vertex  1.000000e+001  4.510619e+001  4.050125e+001
    endloop
  endfacet
  facet normal  1.000000e+000  0.000000e+000  0.000000e+000
    outer loop
      vertex  1.000000e+001  1.320000e+002  3.000000e+000
      vertex  1.000000e+001  1.320000e+002  2.700000e+001
      vertex  1.000000e+001  1.009910e+002  1.681396e+001
    endloop
  endfacet
  facet normal  1.000000e+000  0.000000e+000  0.000000e+000
    outer loop
      vertex  1.000000e+001  1.320000e+002  3.000000e+000
      vertex  1.000000e+001  1.009910e+002  1.681396e+001
      vertex  1.000000e+001  1.019834e+002  1.558194e+001
    endloop
  endfacet
  facet normal  1.000000e+000  0.000000e+000  0.000000e+000
    outer loop
      vertex  1.000000e+001  1.320000e+002  3.000000e+000
      vertex  1.000000e+001  1.019834e+002  1.558194e+001
      vertex  1.000000e+001  1.018140e+002  1.400903e+001
    endloop
  endfacet
  facet normal  1.000000e+000  0.000000e+000  0.000000e+000
    outer loop
      vertex  1.000000e+001  1.320000e+002  3.000000e+000
      vertex  1.000000e+001  1.018140e+002  1.400903e+001
      vertex  1.000000e+001  1.005819e+002  1.301661e+001
    endloop
  endfacet
  facet normal  1.000000e+000  0.000000e+000  0.000000e+000
    outer loop
      vertex  1.000000e+001  5.650000e+001  5.959808e+001
      vertex  1.000000e+001  5.500000e+001  6.000000e+001
      vertex  1.000000e+001  4.715741e+001  4.894912e+001
    endloop
  endfacet
  facet normal  9.999999e-001  0.000000e+000  -0.000000e+000
    outer loop
      vertex  1.000000e+001  4.715741e+001  4.894912e+001
      vertex  1.000000e+001  5.500000e+001  6.000000e+001
      vertex  1.000000e+001  4.489381e+001  4.949875e+001
    endloop
  endfacet
  facet normal  1.000000e+000  0.000000e+000  0.000000e+000
    outer loop
      vertex  1.000000e+001  1.320000e+002  2.700000e+001
      vertex  1.000000e+001  1.315981e+002  2.850000e+001
      vertex  1.000000e+001  1.009910e+002  1.681396e+001
    endloop
  endfacet
  facet normal  1.000000e+000  0.000000e+000  0.000000e+000
    outer loop
      vertex  1.000000e+001  1.009910e+002  1.681396e+001
      vertex  1.000000e+001  1.315981e+002  2.850000e+001
      vertex  1.000000e+001  1.305000e+002  2.959808e+001
    endloop
  endfacet
  facet normal  1.000000e+000  0.000000e+000  0.000000e+000
    outer loop
      vertex  1.000000e+001  1.009910e+002  1.681396e+001
      vertex  1.000000e+001  1.305000e+002  2.959808e+001
      vertex  1.000000e+001  1.290000e+002  3.000000e+001
    endloop
  endfacet
  facet normal  1.000000e+000  0.000000e+000  0.000000e+000
    outer loop
      vertex  1.000000e+001  4.265867e+001  4.884294e+001
      vertex  1.000000e+001  1.715742e+001  4.894912e+001
      vertex  1.000000e+001  4.105088e+001  4.715741e+001
    endloop
  endfacet
  facet normal  1.000000e+000  0.000000e+000  0.000000e+000
    outer loop
      vertex  1.000000e+001  4.105088e+001  4.715741e+001
      vertex  1.000000e+001  1.715742e+001  4.894912e+001
      vertex  1.000000e+001  1.884294e+001  4.734133e+001
    endloop
  endfacet
  facet normal  1.000000e+000  0.000000e+000  0.000000e+000
    outer loop
      vertex  1.000000e+001  4.105088e+001  4.715741e+001
      vertex  1.000000e+001  1.884294e+001  4.734133e+001
      vertex  1.000000e+001  4.050125e+001  4.489381e+001
    endloop
  endfacet
  facet normal  1.000000e+000  0.000000e+000  0.000000e+000
    outer loop
      vertex  1.000000e+001  4.050125e+001  4.489381e+001
      vertex  1.000000e+001  1.884294e+001  4.734133e+001
      vertex  1.000000e+001  1.949875e+001  4.510619e+001
    endloop
  endfacet
  facet normal  1.000000e+000  0.000000e+000  0.000000e+000
    outer loop
      vertex  1.000000e+001  4.050125e+001  4.489381e+001
      vertex  1.000000e+001  1.949875e+001  4.510619e+001
      vertex  1.000000e+001  4.115706e+001  4.265867e+001
    endloop
  endfacet
  facet normal  1.000000e+000  0.000000e+000  0.000000e+000
    outer loop
      vertex  1.000000e+001  4.115706e+001  4.265867e+001
      vertex  1.000000e+001  1.949875e+001  4.510619e+001
      vertex  1.000000e+001  1.894912e+001  4.284259e+001
    endloop
  endfacet
  facet normal  1.000000e+000  0.000000e+000  0.000000e+000
    outer loop
      vertex  1.000000e+001  4.115706e+001  4.265867e+001
      vertex  1.000000e+001  1.894912e+001  4.284259e+001
      vertex  1.000000e+001  4.284259e+001  4.105088e+001
    endloop
  endfacet
  facet normal  1.000000e+000  0.000000e+000  0.000000e+000
    outer loop
      vertex  1.000000e+001  4.284259e+001  4.105088e+001
      vertex  1.000000e+001  1.894912e+001  4.284259e+001
      vertex  1.000000e+001  1.734133e+001  4.115706e+001
    endloop
  endfacet
  facet normal  1.000000e+000  0.000000e+000  0.000000e+000
    outer loop
      vertex  1.000000e+001  4.284259e+001  4.105088e+001
      vertex  1.000000e+001  1.734133e+001  4.115706e+001
      vertex  1.000000e+001  1.510618e+001  4.050125e+001
    endloop
  endfacet
  facet normal  1.000000e+000  0.000000e+000  0.000000e+000
    outer loop
      vertex  1.000000e+001  7.558194e+001  1.301661e+001
      vertex  1.000000e+001  9.900903e+001  1.318604e+001
      vertex  1.000000e+001  7.681396e+001  1.400903e+001
    endloop
  endfacet
  facet normal  1.000000e+000  -0.000000e+000  0.000000e+000
    outer loop
      vertex  1.000000e+001  7.681396e+001  1.400903e+001
      vertex  1.000000e+001  9.900903e+001  1.318604e+001
      vertex  1.000000e+001  9.801661e+001  1.441806e+001
    endloop
  endfacet
  facet normal  1.000000e+000  0.000000e+000  0.000000e+000
    outer loop
      vertex  1.000000e+001  7.681396e+001  1.400903e+001
      vertex  1.000000e+001  9.801661e+001  1.441806e+001
      vertex  1.000000e+001  7.698339e+001  1.558194e+001
    endloop
  endfacet
  facet normal  1.000000e+000  -0.000000e+000  0.000000e+000
    outer loop
      vertex  1.000000e+001  7.698339e+001  1.558194e+001
      vertex  1.000000e+001  9.801661e+001  1.441806e+001
      vertex  1.000000e+001  9.818604e+001  1.599097e+001
    endloop
  endfacet
  facet normal  1.000000e+000  0.000000e+000  0.000000e+000
    outer loop
      vertex  1.000000e+001  7.698339e+001  1.558194e+001
      vertex  1.000000e+001  9.818604e+001  1.599097e+001
      vertex  1.000000e+001  7.599097e+001  1.681396e+001
    endloop
  endfacet
  facet normal -1.000000e+000 -1.212133e-016  1.940410e-015
    outer loop
      vertex  1.776357e-015  7.681396e+001  1.400903e+001
      vertex  0.000000e+000  9.801661e+001  1.441806e+001
      vertex  0.000000e+000  7.558194e+001  1.301661e+001
    endloop
  endfacet
  facet normal -9.999999e-001 -1.767853e-014  -0.000000e+000
    outer loop
      vertex  7.105427e-015  5.800000e+001  0.000000e+000
      vertex  7.105427e-015  5.800000e+001  3.300000e+001
      vertex  0.000000e+000  5.840192e+001  3.150000e+001
    endloop
  endfacet
  facet normal -1.000000e+000 -2.597756e-016 -2.222545e-016
    outer loop
      vertex  7.105427e-015  5.800000e+001  0.000000e+000
      vertex  0.000000e+000  5.840192e+001  3.150000e+001
      vertex  0.000000e+000  7.301661e+001  1.441806e+001
    endloop
  endfacet
  facet normal -1.000000e+000 -2.668140e-016 -2.149239e-016
    outer loop
      vertex  7.105427e-015  5.800000e+001  0.000000e+000
      vertex  0.000000e+000  7.301661e+001  1.441806e+001
      vertex  0.000000e+000  7.400903e+001  1.318604e+001
    endloop
  endfacet
  facet normal -1.000000e+000 -5.133039e-017 -4.765403e-016
    outer loop
      vertex  7.105427e-015  5.800000e+001  0.000000e+000
      vertex  0.000000e+000  7.400903e+001  1.318604e+001
      vertex  0.000000e+000  7.558194e+001  1.301661e+001
    endloop
  endfacet
  facet normal -1.000000e+000  3.724196e-017 -5.961777e-016
    outer loop
      vertex  7.105427e-015  5.800000e+001  0.000000e+000
      vertex  0.000000e+000  7.558194e+001  1.301661e+001
      vertex  0.000000e+000  9.801661e+001  1.441806e+001
    endloop
  endfacet
  facet normal -9.999999e-001 -1.376204e-016 -1.108559e-016
    outer loop
      vertex  7.105427e-015  5.800000e+001  0.000000e+000
      vertex  0.000000e+000  9.801661e+001  1.441806e+001
      vertex  0.000000e+000  9.900903e+001  1.318604e+001
    endloop
  endfacet
  facet normal -9.999999e-001 -4.347812e-017 -4.036415e-016
    outer loop
      vertex  7.105427e-015  5.800000e+001  0.000000e+000
      vertex  0.000000e+000  9.900903e+001  1.318604e+001
      vertex  0.000000e+000  1.005819e+002  1.301661e+001
    endloop
  endfacet
  facet normal -1.000000e+000 -1.000764e-016 -2.184884e-016
    outer loop
      vertex  0.000000e+000  1.290000e+002  0.000000e+000
      vertex  7.105427e-015  5.800000e+001  0.000000e+000
      vertex  0.000000e+000  1.005819e+002  1.301661e+001
    endloop
  endfacet
  facet normal -1.000000e+000  0.000000e+000  0.000000e+000
    outer loop
      vertex  0.000000e+000  1.290000e+002  0.000000e+000
      vertex  0.000000e+000  1.005819e+002  1.301661e+001
      vertex  0.000000e+000  1.018140e+002  1.400903e+001
    endloop
  endfacet
  facet normal -1.000000e+000  0.000000e+000  0.000000e+000
    outer loop
      vertex  0.000000e+000  1.290000e+002  0.000000e+000
      vertex  0.000000e+000  1.018140e+002  1.400903e+001
      vertex  0.000000e+000  1.315981e+002  1.500000e+000
    endloop
  endfacet
  facet normal -1.000000e+000  0.000000e+000  0.000000e+000
    outer loop
      vertex  0.000000e+000  1.290000e+002  0.000000e+000
      vertex  0.000000e+000  1.315981e+002  1.500000e+000
      vertex  0.000000e+000  1.305000e+002  4.019238e-001
    endloop
  endfacet
  facet normal -9.999999e-001  -0.000000e+000  0.000000e+000
    outer loop
      vertex  0.000000e+000  6.100000e+001  3.000000e+001
      vertex  0.000000e+000  1.290000e+002  3.000000e+001
      vertex  0.000000e+000  1.009910e+002  1.681396e+001
    endloop
  endfacet
  facet normal -1.000000e+000  0.000000e+000  0.000000e+000
    outer loop
      vertex  0.000000e+000  6.100000e+001  3.000000e+001
      vertex  0.000000e+000  1.009910e+002  1.681396e+001
      vertex  0.000000e+000  9.941806e+001  1.698339e+001
    endloop
  endfacet
  facet normal -9.999999e-001  -0.000000e+000  0.000000e+000
    outer loop
      vertex  0.000000e+000  6.100000e+001  3.000000e+001
      vertex  0.000000e+000  9.941806e+001  1.698339e+001
      vertex  0.000000e+000  9.818604e+001  1.599097e+001
    endloop
  endfacet
  facet normal -1.000000e+000  0.000000e+000  0.000000e+000
    outer loop
      vertex  0.000000e+000  6.100000e+001  3.000000e+001
      vertex  0.000000e+000  9.818604e+001  1.599097e+001
      vertex  0.000000e+000  7.599097e+001  1.681396e+001
    endloop
  endfacet
  facet normal -1.000000e+000  0.000000e+000  0.000000e+000
    outer loop
      vertex  0.000000e+000  6.100000e+001  3.000000e+001
      vertex  0.000000e+000  7.599097e+001  1.681396e+001
      vertex  0.000000e+000  7.441806e+001  1.698339e+001
    endloop
  endfacet
  facet normal -1.000000e+000 -7.877243e-016 -8.120188e-016
    outer loop
      vertex  0.000000e+000  6.100000e+001  3.000000e+001
      vertex  0.000000e+000  7.441806e+001  1.698339e+001
      vertex  1.776357e-015  7.318604e+001  1.599097e+001
    endloop
  endfacet
  facet normal -1.000000e+000 -4.430224e-017 -1.653381e-016
    outer loop
      vertex  0.000000e+000  6.100000e+001  3.000000e+001
      vertex  1.776357e-015  7.318604e+001  1.599097e+001
      vertex  0.000000e+000  5.950000e+001  3.040192e+001
    endloop
  endfacet
  facet normal -1.000000e+000  0.000000e+000  0.000000e+000
    outer loop
      vertex  0.000000e+000  1.019834e+002  1.558194e+001
      vertex  0.000000e+000  1.009910e+002  1.681396e+001
      vertex  0.000000e+000  1.290000e+002  3.000000e+001
    endloop
  endfacet
  facet normal -1.000000e+000  0.000000e+000  -0.000000e+000
    outer loop
      vertex  0.000000e+000  1.019834e+002  1.558194e+001
      vertex  0.000000e+000  1.290000e+002  3.000000e+001
      vertex  0.000000e+000  1.305000e+002  2.959808e+001
    endloop
  endfacet
  facet normal -9.999999e-001  0.000000e+000  -0.000000e+000
    outer loop
      vertex  0.000000e+000  1.019834e+002  1.558194e+001
      vertex  0.000000e+000  1.305000e+002  2.959808e+001
      vertex  0.000000e+000  1.315981e+002  2.850000e+001
    endloop
  endfacet
  facet normal -9.999999e-001  0.000000e+000  -0.000000e+000
    outer loop
      vertex  0.000000e+000  1.019834e+002  1.558194e+001
      vertex  0.000000e+000  1.315981e+002  2.850000e+001
      vertex  0.000000e+000  1.320000e+002  2.700000e+001
    endloop
  endfacet
  facet normal -1.000000e+000  0.000000e+000  0.000000e+000
    outer loop
      vertex  0.000000e+000  1.019834e+002  1.558194e+001
      vertex  0.000000e+000  1.320000e+002  2.700000e+001
      vertex  0.000000e+000  1.018140e+002  1.400903e+001
    endloop
  endfacet
  facet normal -1.000000e+000  0.000000e+000  0.000000e+000
    outer loop
      vertex  0.000000e+000  1.018140e+002  1.400903e+001
      vertex  0.000000e+000  1.320000e+002  2.700000e+001
      vertex  0.000000e+000  1.315981e+002  1.500000e+000
    endloop
  endfacet
  facet normal -1.000000e+000  0.000000e+000  0.000000e+000
    outer loop
      vertex  0.000000e+000  1.315981e+002  1.500000e+000
      vertex  0.000000e+000  1.320000e+002  2.700000e+001
      vertex  0.000000e+000  1.320000e+002  3.000000e+000
    endloop
  endfacet
  facet normal -1.000000e+000  -0.000000e+000  0.000000e+000
    outer loop
      vertex  0.000000e+000  7.599097e+001  1.681396e+001
      vertex  0.000000e+000  9.818604e+001  1.599097e+001
      vertex  0.000000e+000  7.698339e+001  1.558194e+001
    endloop
  endfacet
  facet normal -1.000000e+000  0.000000e+000  0.000000e+000
    outer loop
      vertex  0.000000e+000  7.698339e+001  1.558194e+001
      vertex  0.000000e+000  9.818604e+001  1.599097e+001
      vertex  0.000000e+000  9.801661e+001  1.441806e+001
    endloop
  endfacet
  facet normal -1.000000e+000 -6.212243e-017 -1.122649e-015
    outer loop
      vertex  0.000000e+000  7.698339e+001  1.558194e+001
      vertex  0.000000e+000  9.801661e+001  1.441806e+001
      vertex  1.776357e-015  7.681396e+001  1.400903e+001
    endloop
  endfacet
  facet normal -1.000000e+000 -2.450430e-015 -2.450430e-015
    outer loop
      vertex  0.000000e+000  5.950000e+001  3.040192e+001
      vertex  1.776357e-015  7.318604e+001  1.599097e+001
      vertex  0.000000e+000  5.840192e+001  3.150000e+001
    endloop
  endfacet
  facet normal -9.999999e-001  1.172392e-015  1.003056e-015
    outer loop
      vertex  0.000000e+000  5.840192e+001  3.150000e+001
      vertex  1.776357e-015  7.318604e+001  1.599097e+001
      vertex  0.000000e+000  7.301661e+001  1.441806e+001
    endloop
  endfacet
  facet normal  -0.000000e+000  7.787676e-001  6.273125e-001
    outer loop
      vertex  1.000000e+001  9.900903e+001  1.318604e+001
      vertex  0.000000e+000  9.801661e+001  1.441806e+001
      vertex  1.000000e+001  9.801661e+001  1.441806e+001
    endloop
  endfacet
  facet normal  0.000000e+000  9.942488e-001 -1.070951e-001
    outer loop
      vertex  1.000000e+001  9.801661e+001  1.441806e+001
      vertex  0.000000e+000  9.801661e+001  1.441806e+001
      vertex  0.000000e+000  9.818604e+001  1.599097e+001
    endloop
  endfacet
  facet normal  0.000000e+000  9.942488e-001 -1.070951e-001
    outer loop
      vertex  1.000000e+001  9.801661e+001  1.441806e+001
      vertex  0.000000e+000  9.818604e+001  1.599097e+001
      vertex  1.000000e+001  9.818604e+001  1.599097e+001
    endloop
  endfacet
  facet normal  0.000000e+000  7.787676e-001  6.273125e-001
    outer loop
      vertex  0.000000e+000  9.801661e+001  1.441806e+001
      vertex  1.000000e+001  9.900903e+001  1.318604e+001
      vertex  0.000000e+000  9.900903e+001  1.318604e+001
    endloop
  endfacet
  facet normal  -0.000000e+000  1.070952e-001  9.942488e-001
    outer loop
      vertex  0.000000e+000  9.900903e+001  1.318604e+001
      vertex  1.000000e+001  9.900903e+001  1.318604e+001
      vertex  1.000000e+001  1.005819e+002  1.301661e+001
    endloop
  endfacet
  facet normal  0.000000e+000  1.070952e-001  9.942488e-001
    outer loop
      vertex  0.000000e+000  9.900903e+001  1.318604e+001
      vertex  1.000000e+001  1.005819e+002  1.301661e+001
      vertex  0.000000e+000  1.005819e+002  1.301661e+001
    endloop
  endfacet
  facet normal  0.000000e+000 -6.273110e-001  7.787688e-001
    outer loop
      vertex  0.000000e+000  1.005819e+002  1.301661e+001
      vertex  1.000000e+001  1.005819e+002  1.301661e+001
      vertex  1.000000e+001  1.018140e+002  1.400903e+001
    endloop
  endfacet
  facet normal  0.000000e+000 -6.273110e-001  7.787688e-001
    outer loop
      vertex  0.000000e+000  1.005819e+002  1.301661e+001
      vertex  1.000000e+001  1.018140e+002  1.400903e+001
      vertex  0.000000e+000  1.018140e+002  1.400903e+001
    endloop
  endfacet
  facet normal  0.000000e+000 -7.787676e-001 -6.273125e-001
    outer loop
      vertex  1.000000e+001  1.009910e+002  1.681396e+001
      vertex  0.000000e+000  1.019834e+002  1.558194e+001
      vertex  1.000000e+001  1.019834e+002  1.558194e+001
    endloop
  endfacet
  facet normal  0.000000e+000 -9.942488e-001  1.070951e-001
    outer loop
      vertex  1.000000e+001  1.019834e+002  1.558194e+001
      vertex  0.000000e+000  1.019834e+002  1.558194e+001
      vertex  0.000000e+000  1.018140e+002  1.400903e+001
    endloop
  endfacet
  facet normal  0.000000e+000 -9.942488e-001  1.070951e-001
    outer loop
      vertex  1.000000e+001  1.019834e+002  1.558194e+001
      vertex  0.000000e+000  1.018140e+002  1.400903e+001
      vertex  1.000000e+001  1.018140e+002  1.400903e+001
    endloop
  endfacet
  facet normal  -0.000000e+000 -7.787676e-001 -6.273125e-001
    outer loop
      vertex  0.000000e+000  1.019834e+002  1.558194e+001
      vertex  1.000000e+001  1.009910e+002  1.681396e+001
      vertex  0.000000e+000  1.009910e+002  1.681396e+001
    endloop
  endfacet
  facet normal  0.000000e+000 -1.070952e-001 -9.942488e-001
    outer loop
      vertex  0.000000e+000  1.009910e+002  1.681396e+001
      vertex  1.000000e+001  1.009910e+002  1.681396e+001
      vertex  1.000000e+001  9.941806e+001  1.698339e+001
    endloop
  endfacet
  facet normal  -0.000000e+000 -1.070952e-001 -9.942488e-001
    outer loop
      vertex  0.000000e+000  1.009910e+002  1.681396e+001
      vertex  1.000000e+001  9.941806e+001  1.698339e+001
      vertex  0.000000e+000  9.941806e+001  1.698339e+001
    endloop
  endfacet
  facet normal  0.000000e+000  6.273110e-001 -7.787688e-001
    outer loop
      vertex  0.000000e+000  9.941806e+001  1.698339e+001
      vertex  1.000000e+001  9.941806e+001  1.698339e+001
      vertex  1.000000e+001  9.818604e+001  1.599097e+001
    endloop
  endfacet
  facet normal  0.000000e+000  6.273110e-001 -7.787688e-001
    outer loop
      vertex  0.000000e+000  9.941806e+001  1.698339e+001
      vertex  1.000000e+001  9.818604e+001  1.599097e+001
      vertex  0.000000e+000  9.818604e+001  1.599097e+001
    endloop
  endfacet
  facet normal  -0.000000e+000  7.787676e-001  6.273125e-001
    outer loop
      vertex  1.000000e+001  7.400903e+001  1.318604e+001
      vertex  0.000000e+000  7.301661e+001  1.441806e+001
      vertex  1.000000e+001  7.301661e+001  1.441806e+001
    endloop
  endfacet
  facet normal  0.000000e+000  9.942488e-001 -1.070951e-001
    outer loop
      vertex  1.000000e+001  7.301661e+001  1.441806e+001
      vertex  0.000000e+000  7.301661e+001  1.441806e+001
      vertex  1.776357e-015  7.318604e+001  1.599097e+001
    endloop
  endfacet
  facet normal  0.000000e+000  9.942488e-001 -1.070951e-001
    outer loop
      vertex  1.000000e+001  7.301661e+001  1.441806e+001
      vertex  1.776357e-015  7.318604e+001  1.599097e+001
      vertex  1.000000e+001  7.318604e+001  1.599097e+001
    endloop
  endfacet
  facet normal  0.000000e+000  7.787676e-001  6.273125e-001
    outer loop
      vertex  0.000000e+000  7.301661e+001  1.441806e+001
      vertex  1.000000e+001  7.400903e+001  1.318604e+001
      vertex  0.000000e+000  7.400903e+001  1.318604e+001
    endloop
  endfacet
  facet normal  -0.000000e+000  1.070952e-001  9.942488e-001
    outer loop
      vertex  0.000000e+000  7.400903e+001  1.318604e+001
      vertex  1.000000e+001  7.400903e+001  1.318604e+001
      vertex  1.000000e+001  7.558194e+001  1.301661e+001
    endloop
  endfacet
  facet normal  0.000000e+000  1.070952e-001  9.942488e-001
    outer loop
      vertex  0.000000e+000  7.400903e+001  1.318604e+001
      vertex  1.000000e+001  7.558194e+001  1.301661e+001
      vertex  0.000000e+000  7.558194e+001  1.301661e+001
    endloop
  endfacet
  facet normal  0.000000e+000 -6.273110e-001  7.787688e-001
    outer loop
      vertex  0.000000e+000  7.558194e+001  1.301661e+001
      vertex  1.000000e+001  7.558194e+001  1.301661e+001
      vertex  1.000000e+001  7.681396e+001  1.400903e+001
    endloop
  endfacet
  facet normal  0.000000e+000 -6.273110e-001  7.787688e-001
    outer loop
      vertex  0.000000e+000  7.558194e+001  1.301661e+001
      vertex  1.000000e+001  7.681396e+001  1.400903e+001
      vertex  1.776357e-015  7.681396e+001  1.400903e+001
    endloop
  endfacet
  facet normal  0.000000e+000 -7.787676e-001 -6.273125e-001
    outer loop
      vertex  1.000000e+001  7.599097e+001  1.681396e+001
      vertex  0.000000e+000  7.698339e+001  1.558194e+001
      vertex  1.000000e+001  7.698339e+001  1.558194e+001
    endloop
  endfacet
  facet normal  0.000000e+000 -9.942488e-001  1.070951e-001
    outer loop
      vertex  1.000000e+001  7.698339e+001  1.558194e+001
      vertex  0.000000e+000  7.698339e+001  1.558194e+001
      vertex  1.776357e-015  7.681396e+001  1.400903e+001
    endloop
  endfacet
  facet normal  0.000000e+000 -9.942488e-001  1.070951e-001
    outer loop
      vertex  1.000000e+001  7.698339e+001  1.558194e+001
      vertex  1.776357e-015  7.681396e+001  1.400903e+001
      vertex  1.000000e+001  7.681396e+001  1.400903e+001
    endloop
  endfacet
  facet normal  -0.000000e+000 -7.787676e-001 -6.273125e-001
    outer loop
      vertex  0.000000e+000  7.698339e+001  1.558194e+001
      vertex  1.000000e+001  7.599097e+001  1.681396e+001
      vertex  0.000000e+000  7.599097e+001  1.681396e+001
    endloop
  endfacet
  facet normal  0.000000e+000 -1.070952e-001 -9.942488e-001
    outer loop
      vertex  0.000000e+000  7.599097e+001  1.681396e+001
      vertex  1.000000e+001  7.599097e+001  1.681396e+001
      vertex  1.000000e+001  7.441806e+001  1.698339e+001
    endloop
  endfacet
  facet normal  -0.000000e+000 -1.070952e-001 -9.942488e-001
    outer loop
      vertex  0.000000e+000  7.599097e+001  1.681396e+001
      vertex  1.000000e+001  7.441806e+001  1.698339e+001
      vertex  0.000000e+000  7.441806e+001  1.698339e+001
    endloop
  endfacet
  facet normal  0.000000e+000  6.273110e-001 -7.787688e-001
    outer loop
      vertex  0.000000e+000  7.441806e+001  1.698339e+001
      vertex  1.000000e+001  7.441806e+001  1.698339e+001
      vertex  1.000000e+001  7.318604e+001  1.599097e+001
    endloop
  endfacet
  facet normal  0.000000e+000  6.273110e-001 -7.787688e-001
    outer loop
      vertex  0.000000e+000  7.441806e+001  1.698339e+001
      vertex  1.000000e+001  7.318604e+001  1.599097e+001
      vertex  1.776357e-015  7.318604e+001  1.599097e+001
    endloop
  endfacet
  facet normal -1.000000e+000  0.000000e+000  0.000000e+000
    outer loop
      vertex -1.000000e+001  0.000000e+000  3.000000e+000
      vertex -1.000000e+001  1.105088e+001  4.715741e+001
      vertex -1.000000e+001  1.050125e+001  4.489381e+001
    endloop
  endfacet
  facet normal -9.999999e-001  0.000000e+000  -0.000000e+000
    outer loop
      vertex -1.000000e+001  0.000000e+000  3.000000e+000
      vertex -1.000000e+001  1.050125e+001  4.489381e+001
      vertex -1.000000e+001  1.115706e+001  4.265867e+001
    endloop
  endfacet
  facet normal -1.000000e+000  0.000000e+000  -0.000000e+000
    outer loop
      vertex -1.000000e+001  0.000000e+000  3.000000e+000
      vertex -1.000000e+001  1.115706e+001  4.265867e+001
      vertex -1.000000e+001  1.284258e+001  4.105088e+001
    endloop
  endfacet
  facet normal -9.999999e-001  0.000000e+000  -0.000000e+000
    outer loop
      vertex -1.000000e+001  0.000000e+000  3.000000e+000
      vertex -1.000000e+001  1.284258e+001  4.105088e+001
      vertex -1.000000e+001  1.510618e+001  4.050125e+001
    endloop
  endfacet
  facet normal -1.000000e+000  0.000000e+000  0.000000e+000
    outer loop
      vertex -1.000000e+001  0.000000e+000  3.000000e+000
      vertex -1.000000e+001  1.510618e+001  4.050125e+001
      vertex -1.000000e+001  3.000000e+000  0.000000e+000
    endloop
  endfacet
  facet normal -1.000000e+000  0.000000e+000  0.000000e+000
    outer loop
      vertex -1.000000e+001  0.000000e+000  3.000000e+000
      vertex -1.000000e+001  3.000000e+000  0.000000e+000
      vertex -1.000000e+001  1.500000e+000  4.019238e-001
    endloop
  endfacet
  facet normal -1.000000e+000  0.000000e+000  0.000000e+000
    outer loop
      vertex -1.000000e+001  0.000000e+000  3.000000e+000
      vertex -1.000000e+001  1.500000e+000  4.019238e-001
      vertex -1.000000e+001  4.019238e-001  1.500000e+000
    endloop
  endfacet
  facet normal -1.000000e+000  0.000000e+000  0.000000e+000
    outer loop
      vertex -1.000000e+001  5.800000e+001  5.700000e+001
      vertex -1.000000e+001  5.800000e+001  3.300000e+001
      vertex -1.000000e+001  4.884294e+001  4.734133e+001
    endloop
  endfacet
  facet normal -1.000000e+000  0.000000e+000  0.000000e+000
    outer loop
      vertex -1.000000e+001  5.800000e+001  5.700000e+001
      vertex -1.000000e+001  4.884294e+001  4.734133e+001
      vertex -1.000000e+001  4.715741e+001  4.894912e+001
    endloop
  endfacet
  facet normal -1.000000e+000  0.000000e+000  0.000000e+000
    outer loop
      vertex -1.000000e+001  5.800000e+001  5.700000e+001
      vertex -1.000000e+001  4.715741e+001  4.894912e+001
      vertex -1.000000e+001  5.650000e+001  5.959808e+001
    endloop
  endfacet
  facet normal -1.000000e+000  0.000000e+000  0.000000e+000
    outer loop
      vertex -1.000000e+001  5.800000e+001  5.700000e+001
      vertex -1.000000e+001  5.650000e+001  5.959808e+001
      vertex -1.000000e+001  5.759808e+001  5.850000e+001
    endloop
  endfacet
  facet normal -1.000000e+000  -0.000000e+000  0.000000e+000
    outer loop
      vertex -1.000000e+001  3.000000e+000  6.000000e+001
      vertex -1.000000e+001  5.500000e+001  6.000000e+001
      vertex -1.000000e+001  4.489381e+001  4.949875e+001
    endloop
  endfacet
  facet normal -1.000000e+000  -0.000000e+000  0.000000e+000
    outer loop
      vertex -1.000000e+001  3.000000e+000  6.000000e+001
      vertex -1.000000e+001  4.489381e+001  4.949875e+001
      vertex -1.000000e+001  4.265867e+001  4.884294e+001
    endloop
  endfacet
  facet normal -1.000000e+000  0.000000e+000  0.000000e+000
    outer loop
      vertex -1.000000e+001  3.000000e+000  6.000000e+001
      vertex -1.000000e+001  4.265867e+001  4.884294e+001
      vertex -1.000000e+001  1.715742e+001  4.894912e+001
    endloop
  endfacet
  facet normal -1.000000e+000  0.000000e+000  0.000000e+000
    outer loop
      vertex -1.000000e+001  3.000000e+000  6.000000e+001
      vertex -1.000000e+001  1.715742e+001  4.894912e+001
      vertex -1.000000e+001  1.489382e+001  4.949875e+001
    endloop
  endfacet
  facet normal -1.000000e+000  0.000000e+000  0.000000e+000
    outer loop
      vertex -1.000000e+001  3.000000e+000  6.000000e+001
      vertex -1.000000e+001  1.489382e+001  4.949875e+001
      vertex -1.000000e+001  1.500000e+000  5.959808e+001
    endloop
  endfacet
  facet normal -1.000000e+000  0.000000e+000  -0.000000e+000
    outer loop
      vertex -1.000000e+001  3.000000e+000  0.000000e+000
      vertex -1.000000e+001  1.510618e+001  4.050125e+001
      vertex -1.000000e+001  4.284259e+001  4.105088e+001
    endloop
  endfacet
  facet normal -1.000000e+000  0.000000e+000  -0.000000e+000
    outer loop
      vertex -1.000000e+001  3.000000e+000  0.000000e+000
      vertex -1.000000e+001  4.284259e+001  4.105088e+001
      vertex -1.000000e+001  4.510619e+001  4.050125e+001
    endloop
  endfacet
  facet normal -1.000000e+000  0.000000e+000  -0.000000e+000
    outer loop
      vertex -1.000000e+001  3.000000e+000  0.000000e+000
      vertex -1.000000e+001  4.510619e+001  4.050125e+001
      vertex -1.000000e+001  5.800000e+001  3.300000e+001
    endloop
  endfacet
  facet normal -1.000000e+000  0.000000e+000  -0.000000e+000
    outer loop
      vertex -1.000000e+001  3.000000e+000  0.000000e+000
      vertex -1.000000e+001  5.800000e+001  3.300000e+001
      vertex -1.000000e+001  5.800000e+001  0.000000e+000
    endloop
  endfacet
  facet normal -1.000000e+000  0.000000e+000  -0.000000e+000
    outer loop
      vertex -1.000000e+001  0.000000e+000  5.700000e+001
      vertex -1.000000e+001  4.019238e-001  5.850000e+001
      vertex -1.000000e+001  1.500000e+000  5.959808e+001
    endloop
  endfacet
  facet normal -1.000000e+000  0.000000e+000  -0.000000e+000
    outer loop
      vertex -1.000000e+001  0.000000e+000  5.700000e+001
      vertex -1.000000e+001  1.500000e+000  5.959808e+001
      vertex -1.000000e+001  1.489382e+001  4.949875e+001
    endloop
  endfacet
  facet normal -1.000000e+000  -0.000000e+000  0.000000e+000
    outer loop
      vertex -1.000000e+001  0.000000e+000  5.700000e+001
      vertex -1.000000e+001  1.489382e+001  4.949875e+001
      vertex -1.000000e+001  1.265867e+001  4.884294e+001
    endloop
  endfacet
  facet normal -1.000000e+000  -0.000000e+000  0.000000e+000
    outer loop
      vertex -1.000000e+001  0.000000e+000  5.700000e+001
      vertex -1.000000e+001  1.265867e+001  4.884294e+001
      vertex -1.000000e+001  1.105088e+001  4.715741e+001
    endloop
  endfacet
  facet normal -1.000000e+000  -0.000000e+000  0.000000e+000
    outer loop
      vertex -1.000000e+001  0.000000e+000  5.700000e+001
      vertex -1.000000e+001  1.105088e+001  4.715741e+001
      vertex -1.000000e+001  0.000000e+000  3.000000e+000
    endloop
  endfacet
  facet normal -1.000000e+000  0.000000e+000  0.000000e+000
    outer loop
      vertex -1.000000e+001  5.800000e+001  3.300000e+001
      vertex -1.000000e+001  4.510619e+001  4.050125e+001
      vertex -1.000000e+001  4.734133e+001  4.115706e+001
    endloop
  endfacet
  facet normal -1.000000e+000  0.000000e+000  0.000000e+000
    outer loop
      vertex -1.000000e+001  5.800000e+001  3.300000e+001
      vertex -1.000000e+001  4.734133e+001  4.115706e+001
      vertex -1.000000e+001  4.894912e+001  4.284259e+001
    endloop
  endfacet
  facet normal -1.000000e+000  0.000000e+000  0.000000e+000
    outer loop
      vertex -1.000000e+001  5.800000e+001  3.300000e+001
      vertex -1.000000e+001  4.894912e+001  4.284259e+001
      vertex -1.000000e+001  4.949875e+001  4.510619e+001
    endloop
  endfacet
  facet normal -1.000000e+000  0.000000e+000  0.000000e+000
    outer loop
      vertex -1.000000e+001  5.800000e+001  3.300000e+001
      vertex -1.000000e+001  4.949875e+001  4.510619e+001
      vertex -1.000000e+001  4.884294e+001  4.734133e+001
    endloop
  endfacet
  facet normal -1.000000e+000  0.000000e+000  0.000000e+000
    outer loop
      vertex -1.000000e+001  5.650000e+001  5.959808e+001
      vertex -1.000000e+001  4.715741e+001  4.894912e+001
      vertex -1.000000e+001  5.500000e+001  6.000000e+001
    endloop
  endfacet
  facet normal -9.999999e-001  0.000000e+000  0.000000e+000
    outer loop
      vertex -1.000000e+001  5.500000e+001  6.000000e+001
      vertex -1.000000e+001  4.715741e+001  4.894912e+001
      vertex -1.000000e+001  4.489381e+001  4.949875e+001
    endloop
  endfacet
  facet normal -1.000000e+000  0.000000e+000  -0.000000e+000
    outer loop
      vertex -1.000000e+001  1.510618e+001  4.050125e+001
      vertex -1.000000e+001  1.734133e+001  4.115706e+001
      vertex -1.000000e+001  4.284259e+001  4.105088e+001
    endloop
  endfacet
  facet normal -1.000000e+000  0.000000e+000  0.000000e+000
    outer loop
      vertex -1.000000e+001  4.284259e+001  4.105088e+001
      vertex -1.000000e+001  1.734133e+001  4.115706e+001
      vertex -1.000000e+001  1.894912e+001  4.284259e+001
    endloop
  endfacet
  facet normal -1.000000e+000  0.000000e+000  0.000000e+000
    outer loop
      vertex -1.000000e+001  4.284259e+001  4.105088e+001
      vertex -1.000000e+001  1.894912e+001  4.284259e+001
      vertex -1.000000e+001  4.115706e+001  4.265867e+001
    endloop
  endfacet
  facet normal -1.000000e+000  0.000000e+000  0.000000e+000
    outer loop
      vertex -1.000000e+001  4.115706e+001  4.265867e+001
      vertex -1.000000e+001  1.894912e+001  4.284259e+001
      vertex -1.000000e+001  1.949875e+001  4.510619e+001
    endloop
  endfacet
  facet normal -1.000000e+000  0.000000e+000  0.000000e+000
    outer loop
      vertex -1.000000e+001  4.115706e+001  4.265867e+001
      vertex -1.000000e+001  1.949875e+001  4.510619e+001
      vertex -1.000000e+001  4.050125e+001  4.489381e+001
    endloop
  endfacet
  facet normal -1.000000e+000  0.000000e+000  0.000000e+000
    outer loop
      vertex -1.000000e+001  4.050125e+001  4.489381e+001
      vertex -1.000000e+001  1.949875e+001  4.510619e+001
      vertex -1.000000e+001  1.884294e+001  4.734133e+001
    endloop
  endfacet
  facet normal -1.000000e+000  0.000000e+000  0.000000e+000
    outer loop
      vertex -1.000000e+001  4.050125e+001  4.489381e+001
      vertex -1.000000e+001  1.884294e+001  4.734133e+001
      vertex -1.000000e+001  4.105088e+001  4.715741e+001
    endloop
  endfacet
  facet normal -1.000000e+000  0.000000e+000  0.000000e+000
    outer loop
      vertex -1.000000e+001  4.105088e+001  4.715741e+001
      vertex -1.000000e+001  1.884294e+001  4.734133e+001
      vertex -1.000000e+001  1.715742e+001  4.894912e+001
    endloop
  endfacet
  facet normal -1.000000e+000  0.000000e+000  0.000000e+000
    outer loop
      vertex -1.000000e+001  4.105088e+001  4.715741e+001
      vertex -1.000000e+001  1.715742e+001  4.894912e+001
      vertex -1.000000e+001  4.265867e+001  4.884294e+001
    endloop
  endfacet
  facet normal  -0.000000e+000  6.902248e-001  7.235951e-001
    outer loop
      vertex  1.000000e+001  4.284259e+001  4.105088e+001
      vertex -1.000000e+001  4.115706e+001  4.265867e+001
      vertex  1.000000e+001  4.115706e+001  4.265867e+001
    endloop
  endfacet
  facet normal  0.000000e+000  9.595494e-001  2.815402e-001
    outer loop
      vertex  1.000000e+001  4.115706e+001  4.265867e+001
      vertex -1.000000e+001  4.115706e+001  4.265867e+001
      vertex -1.000000e+001  4.050125e+001  4.489381e+001
    endloop
  endfacet
  facet normal  -0.000000e+000  9.595494e-001  2.815402e-001
    outer loop
      vertex  1.000000e+001  4.115706e+001  4.265867e+001
      vertex -1.000000e+001  4.050125e+001  4.489381e+001
      vertex  1.000000e+001  4.050125e+001  4.489381e+001
    endloop
  endfacet
  facet normal  0.000000e+000  9.717641e-001 -2.359544e-001
    outer loop
      vertex  1.000000e+001  4.050125e+001  4.489381e+001
      vertex -1.000000e+001  4.050125e+001  4.489381e+001
      vertex -1.000000e+001  4.105088e+001  4.715741e+001
    endloop
  endfacet
  facet normal  0.000000e+000  9.717641e-001 -2.359544e-001
    outer loop
      vertex  1.000000e+001  4.050125e+001  4.489381e+001
      vertex -1.000000e+001  4.105088e+001  4.715741e+001
      vertex  1.000000e+001  4.105088e+001  4.715741e+001
    endloop
  endfacet
  facet normal  0.000000e+000  6.902248e-001  7.235951e-001
    outer loop
      vertex -1.000000e+001  4.115706e+001  4.265867e+001
      vertex  1.000000e+001  4.284259e+001  4.105088e+001
      vertex -1.000000e+001  4.284259e+001  4.105088e+001
    endloop
  endfacet
  facet normal  -0.000000e+000  2.359544e-001  9.717641e-001
    outer loop
      vertex -1.000000e+001  4.284259e+001  4.105088e+001
      vertex  1.000000e+001  4.284259e+001  4.105088e+001
      vertex  1.000000e+001  4.510619e+001  4.050125e+001
    endloop
  endfacet
  facet normal  0.000000e+000  2.359544e-001  9.717641e-001
    outer loop
      vertex -1.000000e+001  4.284259e+001  4.105088e+001
      vertex  1.000000e+001  4.510619e+001  4.050125e+001
      vertex -1.000000e+001  4.510619e+001  4.050125e+001
    endloop
  endfacet
  facet normal  0.000000e+000 -2.815402e-001  9.595494e-001
    outer loop
      vertex -1.000000e+001  4.510619e+001  4.050125e+001
      vertex  1.000000e+001  4.510619e+001  4.050125e+001
      vertex  1.000000e+001  4.734133e+001  4.115706e+001
    endloop
  endfacet
  facet normal  0.000000e+000 -2.815402e-001  9.595494e-001
    outer loop
      vertex -1.000000e+001  4.510619e+001  4.050125e+001
      vertex  1.000000e+001  4.734133e+001  4.115706e+001
      vertex -1.000000e+001  4.734133e+001  4.115706e+001
    endloop
  endfacet
  facet normal  0.000000e+000 -7.235951e-001  6.902248e-001
    outer loop
      vertex -1.000000e+001  4.734133e+001  4.115706e+001
      vertex  1.000000e+001  4.734133e+001  4.115706e+001
      vertex  1.000000e+001  4.894912e+001  4.284259e+001
    endloop
  endfacet
  facet normal  0.000000e+000 -7.235951e-001  6.902248e-001
    outer loop
      vertex -1.000000e+001  4.734133e+001  4.115706e+001
      vertex  1.000000e+001  4.894912e+001  4.284259e+001
      vertex -1.000000e+001  4.894912e+001  4.284259e+001
    endloop
  endfacet
  facet normal  0.000000e+000 -6.902248e-001 -7.235951e-001
    outer loop
      vertex  1.000000e+001  4.715741e+001  4.894912e+001
      vertex -1.000000e+001  4.884294e+001  4.734133e+001
      vertex  1.000000e+001  4.884294e+001  4.734133e+001
    endloop
  endfacet
  facet normal  -0.000000e+000 -9.595494e-001 -2.815402e-001
    outer loop
      vertex  1.000000e+001  4.884294e+001  4.734133e+001
      vertex -1.000000e+001  4.884294e+001  4.734133e+001
      vertex -1.000000e+001  4.949875e+001  4.510619e+001
    endloop
  endfacet
  facet normal  0.000000e+000 -9.595494e-001 -2.815402e-001
    outer loop
      vertex  1.000000e+001  4.884294e+001  4.734133e+001
      vertex -1.000000e+001  4.949875e+001  4.510619e+001
      vertex  1.000000e+001  4.949875e+001  4.510619e+001
    endloop
  endfacet
  facet normal  0.000000e+000 -9.717641e-001  2.359544e-001
    outer loop
      vertex  1.000000e+001  4.949875e+001  4.510619e+001
      vertex -1.000000e+001  4.949875e+001  4.510619e+001
      vertex -1.000000e+001  4.894912e+001  4.284259e+001
    endloop
  endfacet
  facet normal  0.000000e+000 -9.717641e-001  2.359544e-001
    outer loop
      vertex  1.000000e+001  4.949875e+001  4.510619e+001
      vertex -1.000000e+001  4.894912e+001  4.284259e+001
      vertex  1.000000e+001  4.894912e+001  4.284259e+001
    endloop
  endfacet
  facet normal  -0.000000e+000 -6.902248e-001 -7.235951e-001
    outer loop
      vertex -1.000000e+001  4.884294e+001  4.734133e+001
      vertex  1.000000e+001  4.715741e+001  4.894912e+001
      vertex -1.000000e+001  4.715741e+001  4.894912e+001
    endloop
  endfacet
  facet normal  0.000000e+000 -2.359544e-001 -9.717641e-001
    outer loop
      vertex -1.000000e+001  4.715741e+001  4.894912e+001
      vertex  1.000000e+001  4.715741e+001  4.894912e+001
      vertex  1.000000e+001  4.489381e+001  4.949875e+001
    endloop
  endfacet
  facet normal  -0.000000e+000 -2.359544e-001 -9.717641e-001
    outer loop
      vertex -1.000000e+001  4.715741e+001  4.894912e+001
      vertex  1.000000e+001  4.489381e+001  4.949875e+001
      vertex -1.000000e+001  4.489381e+001  4.949875e+001
    endloop
  endfacet
  facet normal  0.000000e+000  2.815402e-001 -9.595494e-001
    outer loop
      vertex -1.000000e+001  4.489381e+001  4.949875e+001
      vertex  1.000000e+001  4.489381e+001  4.949875e+001
      vertex  1.000000e+001  4.265867e+001  4.884294e+001
    endloop
  endfacet
  facet normal  0.000000e+000  2.815402e-001 -9.595494e-001
    outer loop
      vertex -1.000000e+001  4.489381e+001  4.949875e+001
      vertex  1.000000e+001  4.265867e+001  4.884294e+001
      vertex -1.000000e+001  4.265867e+001  4.884294e+001
    endloop
  endfacet
  facet normal  0.000000e+000  7.235951e-001 -6.902248e-001
    outer loop
      vertex -1.000000e+001  4.265867e+001  4.884294e+001
      vertex  1.000000e+001  4.265867e+001  4.884294e+001
      vertex  1.000000e+001  4.105088e+001  4.715741e+001
    endloop
  endfacet
  facet normal  0.000000e+000  7.235951e-001 -6.902248e-001
    outer loop
      vertex -1.000000e+001  4.265867e+001  4.884294e+001
      vertex  1.000000e+001  4.105088e+001  4.715741e+001
      vertex -1.000000e+001  4.105088e+001  4.715741e+001
    endloop
  endfacet
  facet normal  -0.000000e+000  6.902253e-001  7.235945e-001
    outer loop
      vertex  1.000000e+001  1.284258e+001  4.105088e+001
      vertex -1.000000e+001  1.115706e+001  4.265867e+001
      vertex  1.000000e+001  1.115706e+001  4.265867e+001
    endloop
  endfacet
  facet normal  0.000000e+000  9.595495e-001  2.815398e-001
    outer loop
      vertex  1.000000e+001  1.115706e+001  4.265867e+001
      vertex -1.000000e+001  1.115706e+001  4.265867e+001
      vertex -1.000000e+001  1.050125e+001  4.489381e+001
    endloop
  endfacet
  facet normal  -0.000000e+000  9.595495e-001  2.815398e-001
    outer loop
      vertex  1.000000e+001  1.115706e+001  4.265867e+001
      vertex -1.000000e+001  1.050125e+001  4.489381e+001
      vertex  1.000000e+001  1.050125e+001  4.489381e+001
    endloop
  endfacet
  facet normal  0.000000e+000  9.717641e-001 -2.359544e-001
    outer loop
      vertex  1.000000e+001  1.050125e+001  4.489381e+001
      vertex -1.000000e+001  1.050125e+001  4.489381e+001
      vertex -1.000000e+001  1.105088e+001  4.715741e+001
    endloop
  endfacet
  facet normal  0.000000e+000  9.717641e-001 -2.359544e-001
    outer loop
      vertex  1.000000e+001  1.050125e+001  4.489381e+001
      vertex -1.000000e+001  1.105088e+001  4.715741e+001
      vertex  1.000000e+001  1.105088e+001  4.715741e+001
    endloop
  endfacet
  facet normal  0.000000e+000  6.902253e-001  7.235945e-001
    outer loop
      vertex -1.000000e+001  1.115706e+001  4.265867e+001
      vertex  1.000000e+001  1.284258e+001  4.105088e+001
      vertex -1.000000e+001  1.284258e+001  4.105088e+001
    endloop
  endfacet
  facet normal  -0.000000e+000  2.359543e-001  9.717641e-001
    outer loop
      vertex -1.000000e+001  1.284258e+001  4.105088e+001
      vertex  1.000000e+001  1.284258e+001  4.105088e+001
      vertex  1.000000e+001  1.510618e+001  4.050125e+001
    endloop
  endfacet
  facet normal  0.000000e+000  2.359543e-001  9.717641e-001
    outer loop
      vertex -1.000000e+001  1.284258e+001  4.105088e+001
      vertex  1.000000e+001  1.510618e+001  4.050125e+001
      vertex -1.000000e+001  1.510618e+001  4.050125e+001
    endloop
  endfacet
  facet normal  0.000000e+000 -2.815401e-001  9.595495e-001
    outer loop
      vertex -1.000000e+001  1.510618e+001  4.050125e+001
      vertex  1.000000e+001  1.510618e+001  4.050125e+001
      vertex  1.000000e+001  1.734133e+001  4.115706e+001
    endloop
  endfacet
  facet normal  0.000000e+000 -2.815401e-001  9.595495e-001
    outer loop
      vertex -1.000000e+001  1.510618e+001  4.050125e+001
      vertex  1.000000e+001  1.734133e+001  4.115706e+001
      vertex -1.000000e+001  1.734133e+001  4.115706e+001
    endloop
  endfacet
  facet normal  0.000000e+000 -7.235955e-001  6.902243e-001
    outer loop
      vertex -1.000000e+001  1.734133e+001  4.115706e+001
      vertex  1.000000e+001  1.734133e+001  4.115706e+001
      vertex  1.000000e+001  1.894912e+001  4.284259e+001
    endloop
  endfacet
  facet normal  0.000000e+000 -7.235955e-001  6.902243e-001
    outer loop
      vertex -1.000000e+001  1.734133e+001  4.115706e+001
      vertex  1.000000e+001  1.894912e+001  4.284259e+001
      vertex -1.000000e+001  1.894912e+001  4.284259e+001
    endloop
  endfacet
  facet normal  0.000000e+000 -6.902251e-001 -7.235947e-001
    outer loop
      vertex  1.000000e+001  1.715742e+001  4.894912e+001
      vertex -1.000000e+001  1.884294e+001  4.734133e+001
      vertex  1.000000e+001  1.884294e+001  4.734133e+001
    endloop
  endfacet
  facet normal  -0.000000e+000 -9.595497e-001 -2.815395e-001
    outer loop
      vertex  1.000000e+001  1.884294e+001  4.734133e+001
      vertex -1.000000e+001  1.884294e+001  4.734133e+001
      vertex -1.000000e+001  1.949875e+001  4.510619e+001
    endloop
  endfacet
  facet normal  0.000000e+000 -9.595497e-001 -2.815395e-001
    outer loop
      vertex  1.000000e+001  1.884294e+001  4.734133e+001
      vertex -1.000000e+001  1.949875e+001  4.510619e+001
      vertex  1.000000e+001  1.949875e+001  4.510619e+001
    endloop
  endfacet
  facet normal  0.000000e+000 -9.717641e-001  2.359544e-001
    outer loop
      vertex  1.000000e+001  1.949875e+001  4.510619e+001
      vertex -1.000000e+001  1.949875e+001  4.510619e+001
      vertex -1.000000e+001  1.894912e+001  4.284259e+001
    endloop
  endfacet
  facet normal  0.000000e+000 -9.717641e-001  2.359544e-001
    outer loop
      vertex  1.000000e+001  1.949875e+001  4.510619e+001
      vertex -1.000000e+001  1.894912e+001  4.284259e+001
      vertex  1.000000e+001  1.894912e+001  4.284259e+001
    endloop
  endfacet
  facet normal  -0.000000e+000 -6.902251e-001 -7.235947e-001
    outer loop
      vertex -1.000000e+001  1.884294e+001  4.734133e+001
      vertex  1.000000e+001  1.715742e+001  4.894912e+001
      vertex -1.000000e+001  1.715742e+001  4.894912e+001
    endloop
  endfacet
  facet normal  0.000000e+000 -2.359543e-001 -9.717641e-001
    outer loop
      vertex -1.000000e+001  1.715742e+001  4.894912e+001
      vertex  1.000000e+001  1.715742e+001  4.894912e+001
      vertex  1.000000e+001  1.489382e+001  4.949875e+001
    endloop
  endfacet
  facet normal  -0.000000e+000 -2.359543e-001 -9.717641e-001
    outer loop
      vertex -1.000000e+001  1.715742e+001  4.894912e+001
      vertex  1.000000e+001  1.489382e+001  4.949875e+001
      vertex -1.000000e+001  1.489382e+001  4.949875e+001
    endloop
  endfacet
  facet normal  0.000000e+000  2.815400e-001 -9.595495e-001
    outer loop
      vertex -1.000000e+001  1.489382e+001  4.949875e+001
      vertex  1.000000e+001  1.489382e+001  4.949875e+001
      vertex  1.000000e+001  1.265867e+001  4.884294e+001
    endloop
  endfacet
  facet normal  0.000000e+000  2.815400e-001 -9.595495e-001
    outer loop
      vertex -1.000000e+001  1.489382e+001  4.949875e+001
      vertex  1.000000e+001  1.265867e+001  4.884294e+001
      vertex -1.000000e+001  1.265867e+001  4.884294e+001
    endloop
  endfacet
  facet normal  0.000000e+000  7.235957e-001 -6.902241e-001
    outer loop
      vertex -1.000000e+001  1.265867e+001  4.884294e+001
      vertex  1.000000e+001  1.265867e+001  4.884294e+001
      vertex  1.000000e+001  1.105088e+001  4.715741e+001
    endloop
  endfacet
  facet normal  0.000000e+000  7.235957e-001 -6.902241e-001
    outer loop
      vertex -1.000000e+001  1.265867e+001  4.884294e+001
      vertex  1.000000e+001  1.105088e+001  4.715741e+001
      vertex -1.000000e+001  1.105088e+001  4.715741e+001
    endloop
  endfacet
  facet normal  0.000000e+000  1.000000e+000  -0.000000e+000
    outer loop
      vertex  1.000000e+001  5.800000e+001  5.700000e+001
      vertex  1.000000e+001  5.800000e+001  3.300000e+001
      vertex -1.000000e+001  5.800000e+001  5.700000e+001
    endloop
  endfacet
  facet normal  0.000000e+000  1.000000e+000  0.000000e+000
    outer loop
      vertex -1.000000e+001  5.800000e+001  5.700000e+001
      vertex  1.000000e+001  5.800000e+001  3.300000e+001
      vertex  7.105427e-015  5.800000e+001  3.300000e+001
    endloop
  endfacet
  facet normal  0.000000e+000  1.000000e+000  0.000000e+000
    outer loop
      vertex -1.000000e+001  5.800000e+001  5.700000e+001
      vertex  7.105427e-015  5.800000e+001  3.300000e+001
      vertex -1.000000e+001  5.800000e+001  3.300000e+001
    endloop
  endfacet
  facet normal  0.000000e+000  9.999999e-001  0.000000e+000
    outer loop
      vertex  7.105427e-015  5.800000e+001  0.000000e+000
      vertex -1.000000e+001  5.800000e+001  0.000000e+000
      vertex  7.105427e-015  5.800000e+001  3.300000e+001
    endloop
  endfacet
  facet normal  0.000000e+000  9.999999e-001  0.000000e+000
    outer loop
      vertex  7.105427e-015  5.800000e+001  3.300000e+001
      vertex -1.000000e+001  5.800000e+001  0.000000e+000
      vertex -1.000000e+001  5.800000e+001  3.300000e+001
    endloop
  endfacet
  facet normal  0.000000e+000  2.588193e-001  9.659258e-001
    outer loop
      vertex  0.000000e+000  5.950000e+001  3.040192e+001
      vertex  1.000000e+001  6.100000e+001  3.000000e+001
      vertex  0.000000e+000  6.100000e+001  3.000000e+001
    endloop
  endfacet
  facet normal  -0.000000e+000  2.588193e-001  9.659258e-001
    outer loop
      vertex  1.000000e+001  6.100000e+001  3.000000e+001
      vertex  0.000000e+000  5.950000e+001  3.040192e+001
      vertex  1.000000e+001  5.950000e+001  3.040192e+001
    endloop
  endfacet
  facet normal  0.000000e+000  7.071068e-001  7.071068e-001
    outer loop
      vertex  1.000000e+001  5.950000e+001  3.040192e+001
      vertex  0.000000e+000  5.950000e+001  3.040192e+001
      vertex  0.000000e+000  5.840192e+001  3.150000e+001
    endloop
  endfacet
  facet normal  -0.000000e+000  7.071068e-001  7.071068e-001
    outer loop
      vertex  1.000000e+001  5.950000e+001  3.040192e+001
      vertex  0.000000e+000  5.840192e+001  3.150000e+001
      vertex  1.000000e+001  5.840192e+001  3.150000e+001
    endloop
  endfacet
  facet normal  0.000000e+000  9.659258e-001  2.588193e-001
    outer loop
      vertex  1.000000e+001  5.840192e+001  3.150000e+001
      vertex  0.000000e+000  5.840192e+001  3.150000e+001
      vertex  7.105427e-015  5.800000e+001  3.300000e+001
    endloop
  endfacet
  facet normal  -0.000000e+000  9.659258e-001  2.588193e-001
    outer loop
      vertex  1.000000e+001  5.840192e+001  3.150000e+001
      vertex  7.105427e-015  5.800000e+001  3.300000e+001
      vertex  1.000000e+001  5.800000e+001  3.300000e+001
    endloop
  endfacet
  facet normal  -0.000000e+000  0.000000e+000  1.000000e+000
    outer loop
      vertex  1.000000e+001  1.290000e+002  3.000000e+001
      vertex  0.000000e+000  1.290000e+002  3.000000e+001
      vertex  1.000000e+001  6.100000e+001  3.000000e+001
    endloop
  endfacet
  facet normal  0.000000e+000  0.000000e+000  1.000000e+000
    outer loop
      vertex  1.000000e+001  6.100000e+001  3.000000e+001
      vertex  0.000000e+000  1.290000e+002  3.000000e+001
      vertex  0.000000e+000  6.100000e+001  3.000000e+001
    endloop
  endfacet
  facet normal  0.000000e+000  2.588193e-001  9.659258e-001
    outer loop
      vertex  0.000000e+000  1.290000e+002  3.000000e+001
      vertex  1.000000e+001  1.290000e+002  3.000000e+001
      vertex  0.000000e+000  1.305000e+002  2.959808e+001
    endloop
  endfacet
  facet normal  -0.000000e+000  2.588193e-001  9.659258e-001
    outer loop
      vertex  0.000000e+000  1.305000e+002  2.959808e+001
      vertex  1.000000e+001  1.290000e+002  3.000000e+001
      vertex  1.000000e+001  1.305000e+002  2.959808e+001
    endloop
  endfacet
  facet normal  0.000000e+000  7.071043e-001  7.071093e-001
    outer loop
      vertex  0.000000e+000  1.305000e+002  2.959808e+001
      vertex  1.000000e+001  1.305000e+002  2.959808e+001
      vertex  0.000000e+000  1.315981e+002  2.850000e+001
    endloop
  endfacet
  facet normal  -0.000000e+000  7.071043e-001  7.071093e-001
    outer loop
      vertex  0.000000e+000  1.315981e+002  2.850000e+001
      vertex  1.000000e+001  1.305000e+002  2.959808e+001
      vertex  1.000000e+001  1.315981e+002  2.850000e+001
    endloop
  endfacet
  facet normal  0.000000e+000  9.659269e-001  2.588147e-001
    outer loop
      vertex  0.000000e+000  1.315981e+002  2.850000e+001
      vertex  1.000000e+001  1.315981e+002  2.850000e+001
      vertex  0.000000e+000  1.320000e+002  2.700000e+001
    endloop
  endfacet
  facet normal  -0.000000e+000  9.659269e-001  2.588147e-001
    outer loop
      vertex  0.000000e+000  1.320000e+002  2.700000e+001
      vertex  1.000000e+001  1.315981e+002  2.850000e+001
      vertex  1.000000e+001  1.320000e+002  2.700000e+001
    endloop
  endfacet
  facet normal  -0.000000e+000  0.000000e+000 -9.999999e-001
    outer loop
      vertex  0.000000e+000  1.290000e+002  0.000000e+000
      vertex  1.000000e+001  1.290000e+002  0.000000e+000
      vertex  7.105427e-015  5.800000e+001  0.000000e+000
    endloop
  endfacet
  facet normal  0.000000e+000  0.000000e+000 -1.000000e+000
    outer loop
      vertex  7.105427e-015  5.800000e+001  0.000000e+000
      vertex  1.000000e+001  1.290000e+002  0.000000e+000
      vertex  1.000000e+001  3.000000e+000  0.000000e+000
    endloop
  endfacet
  facet normal  0.000000e+000  0.000000e+000 -1.000000e+000
    outer loop
      vertex  7.105427e-015  5.800000e+001  0.000000e+000
      vertex  1.000000e+001  3.000000e+000  0.000000e+000
      vertex -1.000000e+001  5.800000e+001  0.000000e+000
    endloop
  endfacet
  facet normal  0.000000e+000  0.000000e+000 -1.000000e+000
    outer loop
      vertex -1.000000e+001  5.800000e+001  0.000000e+000
      vertex  1.000000e+001  3.000000e+000  0.000000e+000
      vertex -1.000000e+001  3.000000e+000  0.000000e+000
    endloop
  endfacet
  facet normal  0.000000e+000  1.000000e+000  0.000000e+000
    outer loop
      vertex  1.000000e+001  1.320000e+002  3.000000e+000
      vertex  0.000000e+000  1.320000e+002  3.000000e+000
      vertex  1.000000e+001  1.320000e+002  2.700000e+001
    endloop
  endfacet
  facet normal  0.000000e+000  1.000000e+000  0.000000e+000
    outer loop
      vertex  1.000000e+001  1.320000e+002  2.700000e+001
      vertex  0.000000e+000  1.320000e+002  3.000000e+000
      vertex  0.000000e+000  1.320000e+002  2.700000e+001
    endloop
  endfacet
  facet normal  0.000000e+000  9.659269e-001 -2.588147e-001
    outer loop
      vertex  0.000000e+000  1.320000e+002  3.000000e+000
      vertex  1.000000e+001  1.320000e+002  3.000000e+000
      vertex  0.000000e+000  1.315981e+002  1.500000e+000
    endloop
  endfacet
  facet normal  0.000000e+000  9.659269e-001 -2.588147e-001
    outer loop
      vertex  0.000000e+000  1.315981e+002  1.500000e+000
      vertex  1.000000e+001  1.320000e+002  3.000000e+000
      vertex  1.000000e+001  1.315981e+002  1.500000e+000
    endloop
  endfacet
  facet normal  0.000000e+000  7.071044e-001 -7.071091e-001
    outer loop
      vertex  0.000000e+000  1.315981e+002  1.500000e+000
      vertex  1.000000e+001  1.315981e+002  1.500000e+000
      vertex  0.000000e+000  1.305000e+002  4.019238e-001
    endloop
  endfacet
  facet normal  0.000000e+000  7.071044e-001 -7.071091e-001
    outer loop
      vertex  0.000000e+000  1.305000e+002  4.019238e-001
      vertex  1.000000e+001  1.315981e+002  1.500000e+000
      vertex  1.000000e+001  1.305000e+002  4.019238e-001
    endloop
  endfacet
  facet normal  0.000000e+000  2.588190e-001 -9.659258e-001
    outer loop
      vertex  0.000000e+000  1.305000e+002  4.019238e-001
      vertex  1.000000e+001  1.305000e+002  4.019238e-001
      vertex  0.000000e+000  1.290000e+002  0.000000e+000
    endloop
  endfacet
  facet normal  0.000000e+000  2.588190e-001 -9.659258e-001
    outer loop
      vertex  0.000000e+000  1.290000e+002  0.000000e+000
      vertex  1.000000e+001  1.305000e+002  4.019238e-001
      vertex  1.000000e+001  1.290000e+002  0.000000e+000
    endloop
  endfacet
  facet normal  0.000000e+000  2.588193e-001  9.659258e-001
    outer loop
      vertex -1.000000e+001  5.500000e+001  6.000000e+001
      vertex  1.000000e+001  5.500000e+001  6.000000e+001
      vertex -1.000000e+001  5.650000e+001  5.959808e+001
    endloop
  endfacet
  facet normal  -0.000000e+000  2.588193e-001  9.659258e-001
    outer loop
      vertex -1.000000e+001  5.650000e+001  5.959808e+001
      vertex  1.000000e+001  5.500000e+001  6.000000e+001
      vertex  1.000000e+001  5.650000e+001  5.959808e+001
    endloop
  endfacet
  facet normal  0.000000e+000  7.071068e-001  7.071068e-001
    outer loop
      vertex -1.000000e+001  5.650000e+001  5.959808e+001
      vertex  1.000000e+001  5.650000e+001  5.959808e+001
      vertex -1.000000e+001  5.759808e+001  5.850000e+001
    endloop
  endfacet
  facet normal  -0.000000e+000  7.071068e-001  7.071068e-001
    outer loop
      vertex -1.000000e+001  5.759808e+001  5.850000e+001
      vertex  1.000000e+001  5.650000e+001  5.959808e+001
      vertex  1.000000e+001  5.759808e+001  5.850000e+001
    endloop
  endfacet
  facet normal  0.000000e+000  9.659258e-001  2.588193e-001
    outer loop
      vertex -1.000000e+001  5.759808e+001  5.850000e+001
      vertex  1.000000e+001  5.759808e+001  5.850000e+001
      vertex -1.000000e+001  5.800000e+001  5.700000e+001
    endloop
  endfacet
  facet normal  -0.000000e+000  9.659258e-001  2.588193e-001
    outer loop
      vertex -1.000000e+001  5.800000e+001  5.700000e+001
      vertex  1.000000e+001  5.759808e+001  5.850000e+001
      vertex  1.000000e+001  5.800000e+001  5.700000e+001
    endloop
  endfacet
  facet normal  0.000000e+000 -1.000000e+000  0.000000e+000
    outer loop
      vertex  1.000000e+001  0.000000e+000  5.700000e+001
      vertex -1.000000e+001  0.000000e+000  5.700000e+001
      vertex  1.000000e+001  0.000000e+000  3.000000e+000
    endloop
  endfacet
  facet normal  0.000000e+000 -1.000000e+000  0.000000e+000
    outer loop
      vertex  1.000000e+001  0.000000e+000  3.000000e+000
      vertex -1.000000e+001  0.000000e+000  5.700000e+001
      vertex -1.000000e+001  0.000000e+000  3.000000e+000
    endloop
  endfacet
  facet normal  -0.000000e+000 -2.588190e-001 -9.659258e-001
    outer loop
      vertex -1.000000e+001  3.000000e+000  0.000000e+000
      vertex  1.000000e+001  3.000000e+000  0.000000e+000
      vertex -1.000000e+001  1.500000e+000  4.019238e-001
    endloop
  endfacet
  facet normal  0.000000e+000 -2.588190e-001 -9.659258e-001
    outer loop
      vertex -1.000000e+001  1.500000e+000  4.019238e-001
      vertex  1.000000e+001  3.000000e+000  0.000000e+000
      vertex  1.000000e+001  1.500000e+000  4.019238e-001
    endloop
  endfacet
  facet normal  -0.000000e+000 -7.071068e-001 -7.071068e-001
    outer loop
      vertex -1.000000e+001  1.500000e+000  4.019238e-001
      vertex  1.000000e+001  1.500000e+000  4.019238e-001
      vertex -1.000000e+001  4.019238e-001  1.500000e+000
    endloop
  endfacet
  facet normal  0.000000e+000 -7.071068e-001 -7.071068e-001
    outer loop
      vertex -1.000000e+001  4.019238e-001  1.500000e+000
      vertex  1.000000e+001  1.500000e+000  4.019238e-001
      vertex  1.000000e+001  4.019238e-001  1.500000e+000
    endloop
  endfacet
  facet normal  -0.000000e+000 -9.659258e-001 -2.588190e-001
    outer loop
      vertex -1.000000e+001  4.019238e-001  1.500000e+000
      vertex  1.000000e+001  4.019238e-001  1.500000e+000
      vertex -1.000000e+001  0.000000e+000  3.000000e+000
    endloop
  endfacet
  facet normal  0.000000e+000 -9.659258e-001 -2.588190e-001
    outer loop
      vertex -1.000000e+001  0.000000e+000  3.000000e+000
      vertex  1.000000e+001  4.019238e-001  1.500000e+000
      vertex  1.000000e+001  0.000000e+000  3.000000e+000
    endloop
  endfacet
  facet normal  -0.000000e+000  0.000000e+000  1.000000e+000
    outer loop
      vertex  1.000000e+001  5.500000e+001  6.000000e+001
      vertex -1.000000e+001  5.500000e+001  6.000000e+001
      vertex  1.000000e+001  3.000000e+000  6.000000e+001
    endloop
  endfacet
  facet normal  0.000000e+000  0.000000e+000  1.000000e+000
    outer loop
      vertex  1.000000e+001  3.000000e+000  6.000000e+001
      vertex -1.000000e+001  5.500000e+001  6.000000e+001
      vertex -1.000000e+001  3.000000e+000  6.000000e+001
    endloop
  endfacet
  facet normal  0.000000e+000 -9.659258e-001  2.588190e-001
    outer loop
      vertex -1.000000e+001  0.000000e+000  5.700000e+001
      vertex  1.000000e+001  0.000000e+000  5.700000e+001
      vertex -1.000000e+001  4.019238e-001  5.850000e+001
    endloop
  endfacet
  facet normal  0.000000e+000 -9.659258e-001  2.588190e-001
    outer loop
      vertex -1.000000e+001  4.019238e-001  5.850000e+001
      vertex  1.000000e+001  0.000000e+000  5.700000e+001
      vertex  1.000000e+001  4.019238e-001  5.850000e+001
    endloop
  endfacet
  facet normal  0.000000e+000 -7.071066e-001  7.071069e-001
    outer loop
      vertex -1.000000e+001  4.019238e-001  5.850000e+001
      vertex  1.000000e+001  4.019238e-001  5.850000e+001
      vertex -1.000000e+001  1.500000e+000  5.959808e+001
    endloop
  endfacet
  facet normal  0.000000e+000 -7.071066e-001  7.071069e-001
    outer loop
      vertex -1.000000e+001  1.500000e+000  5.959808e+001
      vertex  1.000000e+001  4.019238e-001  5.850000e+001
      vertex  1.000000e+001  1.500000e+000  5.959808e+001
    endloop
  endfacet
  facet normal  0.000000e+000 -2.588193e-001  9.659258e-001
    outer loop
      vertex -1.000000e+001  1.500000e+000  5.959808e+001
      vertex  1.000000e+001  1.500000e+000  5.959808e+001
      vertex -1.000000e+001  3.000000e+000  6.000000e+001
    endloop
  endfacet
  facet normal  0.000000e+000 -2.588193e-001  9.659258e-001
    outer loop
      vertex -1.000000e+001  3.000000e+000  6.000000e+001
      vertex  1.000000e+001  1.500000e+000  5.959808e+001
      vertex  1.000000e+001  3.000000e+000  6.000000e+001
    endloop
  endfacet
endsolid CATIA STL
