solid CATIA STL
  facet normal  0.000000e+000  2.588193e-001 -9.659258e-001
    outer loop
      vertex  1.000000e+001  1.750000e+001 -1.640192e+001
      vertex -1.000000e+001  1.900000e+001 -1.600000e+001
      vertex  1.000000e+001  1.900000e+001 -1.600000e+001
    endloop
  endfacet
  facet normal  0.000000e+000  2.588193e-001 -9.659258e-001
    outer loop
      vertex -1.000000e+001  1.900000e+001 -1.600000e+001
      vertex  1.000000e+001  1.750000e+001 -1.640192e+001
      vertex -1.000000e+001  1.750000e+001 -1.640192e+001
    endloop
  endfacet
  facet normal  0.000000e+000  7.071068e-001 -7.071068e-001
    outer loop
      vertex -1.000000e+001  1.750000e+001 -1.640192e+001
      vertex  1.000000e+001  1.750000e+001 -1.640192e+001
      vertex  1.000000e+001  1.640192e+001 -1.750000e+001
    endloop
  endfacet
  facet normal  0.000000e+000  7.071068e-001 -7.071068e-001
    outer loop
      vertex -1.000000e+001  1.750000e+001 -1.640192e+001
      vertex  1.000000e+001  1.640192e+001 -1.750000e+001
      vertex -1.000000e+001  1.640192e+001 -1.750000e+001
    endloop
  endfacet
  facet normal  0.000000e+000  9.659258e-001 -2.588193e-001
    outer loop
      vertex -1.000000e+001  1.640192e+001 -1.750000e+001
      vertex  1.000000e+001  1.640192e+001 -1.750000e+001
      vertex  1.000000e+001  1.600000e+001 -1.900000e+001
    endloop
  endfacet
  facet normal  0.000000e+000  9.659258e-001 -2.588193e-001
    outer loop
      vertex -1.000000e+001  1.640192e+001 -1.750000e+001
      vertex  1.000000e+001  1.600000e+001 -1.900000e+001
      vertex -1.000000e+001  1.600000e+001 -1.900000e+001
    endloop
  endfacet
  facet normal  0.000000e+000  0.000000e+000 -1.000000e+000
    outer loop
      vertex  2.916646e+000  2.659337e+001 -1.600000e+001
      vertex  1.423056e+000  2.800343e+001 -1.600000e+001
      vertex  5.543185e-001  3.705165e+001 -1.600000e+001
    endloop
  endfacet
  facet normal  0.000000e+000  -0.000000e+000 -1.000000e+000
    outer loop
      vertex -1.000000e+001  1.900000e+001 -1.600000e+001
      vertex -2.975335e+000  4.038390e+001 -1.600000e+001
      vertex -2.632748e+000  3.856172e+001 -1.600000e+001
    endloop
  endfacet
  facet normal  0.000000e+000  -0.000000e+000 -1.000000e+000
    outer loop
      vertex -1.000000e+001  1.900000e+001 -1.600000e+001
      vertex -2.632748e+000  3.856172e+001 -1.600000e+001
      vertex -1.284540e+000  3.728892e+001 -1.600000e+001
    endloop
  endfacet
  facet normal  0.000000e+000  0.000000e+000 -1.000000e+000
    outer loop
      vertex -1.000000e+001  1.900000e+001 -1.600000e+001
      vertex -1.284540e+000  3.728892e+001 -1.600000e+001
      vertex -2.416679e+000  2.728152e+001 -1.600000e+001
    endloop
  endfacet
  facet normal  0.000000e+000  0.000000e+000 -1.000000e+000
    outer loop
      vertex -1.000000e+001  1.900000e+001 -1.600000e+001
      vertex -2.416679e+000  2.728152e+001 -1.600000e+001
      vertex -3.296176e+000  2.542530e+001 -1.600000e+001
    endloop
  endfacet
  facet normal  0.000000e+000  -0.000000e+000 -1.000000e+000
    outer loop
      vertex -1.000000e+001  1.900000e+001 -1.600000e+001
      vertex -3.296176e+000  2.542530e+001 -1.600000e+001
      vertex -2.916646e+000  2.340663e+001 -1.600000e+001
    endloop
  endfacet
  facet normal  0.000000e+000  -0.000000e+000 -1.000000e+000
    outer loop
      vertex -1.000000e+001  1.900000e+001 -1.600000e+001
      vertex -2.916646e+000  2.340663e+001 -1.600000e+001
      vertex -1.423056e+000  2.199657e+001 -1.600000e+001
    endloop
  endfacet
  facet normal  0.000000e+000  -0.000000e+000 -1.000000e+000
    outer loop
      vertex -1.000000e+001  1.900000e+001 -1.600000e+001
      vertex -1.423056e+000  2.199657e+001 -1.600000e+001
      vertex  6.140926e-001  2.173373e+001 -1.600000e+001
    endloop
  endfacet
  facet normal  0.000000e+000  -0.000000e+000 -1.000000e+000
    outer loop
      vertex -1.000000e+001  1.900000e+001 -1.600000e+001
      vertex  6.140926e-001  2.173373e+001 -1.600000e+001
      vertex  1.000000e+001  1.900000e+001 -1.600000e+001
    endloop
  endfacet
  facet normal  0.000000e+000  0.000000e+000 -1.000000e+000
    outer loop
      vertex  1.000000e+001  4.700000e+001 -1.600000e+001
      vertex  1.000000e+001  1.900000e+001 -1.600000e+001
      vertex  2.632748e+000  4.143828e+001 -1.600000e+001
    endloop
  endfacet
  facet normal  0.000000e+000  0.000000e+000 -1.000000e+000
    outer loop
      vertex  1.000000e+001  4.700000e+001 -1.600000e+001
      vertex  2.632748e+000  4.143828e+001 -1.600000e+001
      vertex  1.284540e+000  4.271108e+001 -1.600000e+001
    endloop
  endfacet
  facet normal  0.000000e+000  0.000000e+000 -1.000000e+000
    outer loop
      vertex  1.000000e+001  4.700000e+001 -1.600000e+001
      vertex  1.284540e+000  4.271108e+001 -1.600000e+001
      vertex -5.543185e-001  4.294835e+001 -1.600000e+001
    endloop
  endfacet
  facet normal  0.000000e+000  0.000000e+000 -1.000000e+000
    outer loop
      vertex  1.000000e+001  4.700000e+001 -1.600000e+001
      vertex -5.543185e-001  4.294835e+001 -1.600000e+001
      vertex -1.000000e+001  4.700000e+001 -1.600000e+001
    endloop
  endfacet
  facet normal  -0.000000e+000  0.000000e+000 -1.000000e+000
    outer loop
      vertex -1.000000e+001  4.700000e+001 -1.600000e+001
      vertex -5.543185e-001  4.294835e+001 -1.600000e+001
      vertex -2.181446e+000  4.205944e+001 -1.600000e+001
    endloop
  endfacet
  facet normal  -0.000000e+000  0.000000e+000 -1.000000e+000
    outer loop
      vertex -1.000000e+001  4.700000e+001 -1.600000e+001
      vertex -2.181446e+000  4.205944e+001 -1.600000e+001
      vertex -2.975335e+000  4.038390e+001 -1.600000e+001
    endloop
  endfacet
  facet normal  -0.000000e+000  0.000000e+000 -1.000000e+000
    outer loop
      vertex -1.000000e+001  4.700000e+001 -1.600000e+001
      vertex -2.975335e+000  4.038390e+001 -1.600000e+001
      vertex -1.000000e+001  1.900000e+001 -1.600000e+001
    endloop
  endfacet
  facet normal  0.000000e+000  0.000000e+000 -1.000000e+000
    outer loop
      vertex  1.000000e+001  1.900000e+001 -1.600000e+001
      vertex  6.140926e-001  2.173373e+001 -1.600000e+001
      vertex  2.416679e+000  2.271848e+001 -1.600000e+001
    endloop
  endfacet
  facet normal  0.000000e+000  0.000000e+000 -1.000000e+000
    outer loop
      vertex  1.000000e+001  1.900000e+001 -1.600000e+001
      vertex  2.416679e+000  2.271848e+001 -1.600000e+001
      vertex  3.296176e+000  2.457470e+001 -1.600000e+001
    endloop
  endfacet
  facet normal  0.000000e+000  0.000000e+000 -1.000000e+000
    outer loop
      vertex  1.000000e+001  1.900000e+001 -1.600000e+001
      vertex  3.296176e+000  2.457470e+001 -1.600000e+001
      vertex  2.916646e+000  2.659337e+001 -1.600000e+001
    endloop
  endfacet
  facet normal  0.000000e+000  0.000000e+000 -1.000000e+000
    outer loop
      vertex  1.000000e+001  1.900000e+001 -1.600000e+001
      vertex  2.916646e+000  2.659337e+001 -1.600000e+001
      vertex  5.543185e-001  3.705165e+001 -1.600000e+001
    endloop
  endfacet
  facet normal  0.000000e+000  0.000000e+000 -1.000000e+000
    outer loop
      vertex  1.000000e+001  1.900000e+001 -1.600000e+001
      vertex  5.543185e-001  3.705165e+001 -1.600000e+001
      vertex  2.181446e+000  3.794056e+001 -1.600000e+001
    endloop
  endfacet
  facet normal  0.000000e+000  0.000000e+000 -9.999999e-001
    outer loop
      vertex  1.000000e+001  1.900000e+001 -1.600000e+001
      vertex  2.181446e+000  3.794056e+001 -1.600000e+001
      vertex  2.975335e+000  3.961610e+001 -1.600000e+001
    endloop
  endfacet
  facet normal  0.000000e+000  0.000000e+000 -1.000000e+000
    outer loop
      vertex  1.000000e+001  1.900000e+001 -1.600000e+001
      vertex  2.975335e+000  3.961610e+001 -1.600000e+001
      vertex  2.632748e+000  4.143828e+001 -1.600000e+001
    endloop
  endfacet
  facet normal  0.000000e+000  -0.000000e+000 -1.000000e+000
    outer loop
      vertex -2.416679e+000  2.728152e+001 -1.600000e+001
      vertex -1.284540e+000  3.728892e+001 -1.600000e+001
      vertex -6.140926e-001  2.826627e+001 -1.600000e+001
    endloop
  endfacet
  facet normal  0.000000e+000  0.000000e+000 -1.000000e+000
    outer loop
      vertex -6.140926e-001  2.826627e+001 -1.600000e+001
      vertex -1.284540e+000  3.728892e+001 -1.600000e+001
      vertex  5.543185e-001  3.705165e+001 -1.600000e+001
    endloop
  endfacet
  facet normal  0.000000e+000  -0.000000e+000 -1.000000e+000
    outer loop
      vertex -6.140926e-001  2.826627e+001 -1.600000e+001
      vertex  5.543185e-001  3.705165e+001 -1.600000e+001
      vertex  1.423056e+000  2.800343e+001 -1.600000e+001
    endloop
  endfacet
  facet normal  0.000000e+000  1.000000e+000  0.000000e+000
    outer loop
      vertex -1.000000e+001  1.600000e+001 -1.900000e+001
      vertex  1.000000e+001  1.600000e+001 -1.900000e+001
      vertex -1.000000e+001  1.600000e+001 -3.040000e+001
    endloop
  endfacet
  facet normal  0.000000e+000  1.000000e+000  0.000000e+000
    outer loop
      vertex -1.000000e+001  1.600000e+001 -3.040000e+001
      vertex  1.000000e+001  1.600000e+001 -1.900000e+001
      vertex  1.000000e+001  1.600000e+001 -3.040000e+001
    endloop
  endfacet
  facet normal -9.999999e-001  0.000000e+000  0.000000e+000
    outer loop
      vertex -1.000000e+001  1.900000e+001 -1.600000e+001
      vertex -1.000000e+001  5.000000e+001 -1.300000e+001
      vertex -1.000000e+001  4.959808e+001 -1.450000e+001
    endloop
  endfacet
  facet normal -9.999999e-001  0.000000e+000  0.000000e+000
    outer loop
      vertex -1.000000e+001  1.900000e+001 -1.600000e+001
      vertex -1.000000e+001  4.959808e+001 -1.450000e+001
      vertex -1.000000e+001  4.850000e+001 -1.559808e+001
    endloop
  endfacet
  facet normal -1.000000e+000  0.000000e+000  0.000000e+000
    outer loop
      vertex -1.000000e+001  1.900000e+001 -1.600000e+001
      vertex -1.000000e+001  4.850000e+001 -1.559808e+001
      vertex -1.000000e+001  4.700000e+001 -1.600000e+001
    endloop
  endfacet
  facet normal -1.000000e+000  -0.000000e+000  -0.000000e+000
    outer loop
      vertex -1.000000e+001  0.000000e+000  0.000000e+000
      vertex -1.000000e+001  5.000000e+001  0.000000e+000
      vertex -1.000000e+001  5.000000e+001 -1.300000e+001
    endloop
  endfacet
  facet normal -1.000000e+000  -0.000000e+000  0.000000e+000
    outer loop
      vertex -1.000000e+001  0.000000e+000  0.000000e+000
      vertex -1.000000e+001  5.000000e+001 -1.300000e+001
      vertex -1.000000e+001  1.900000e+001 -1.600000e+001
    endloop
  endfacet
  facet normal -1.000000e+000  -0.000000e+000  0.000000e+000
    outer loop
      vertex -1.000000e+001  0.000000e+000  0.000000e+000
      vertex -1.000000e+001  1.900000e+001 -1.600000e+001
      vertex -1.000000e+001  1.750000e+001 -1.640192e+001
    endloop
  endfacet
  facet normal -1.000000e+000  -0.000000e+000  0.000000e+000
    outer loop
      vertex -1.000000e+001  0.000000e+000  0.000000e+000
      vertex -1.000000e+001  1.750000e+001 -1.640192e+001
      vertex -1.000000e+001  1.640192e+001 -1.750000e+001
    endloop
  endfacet
  facet normal -1.000000e+000  -0.000000e+000  0.000000e+000
    outer loop
      vertex -1.000000e+001  0.000000e+000  0.000000e+000
      vertex -1.000000e+001  1.640192e+001 -1.750000e+001
      vertex -1.000000e+001  1.600000e+001 -1.900000e+001
    endloop
  endfacet
  facet normal -1.000000e+000  -0.000000e+000  -0.000000e+000
    outer loop
      vertex -1.000000e+001  0.000000e+000  0.000000e+000
      vertex -1.000000e+001  1.600000e+001 -1.900000e+001
      vertex -1.000000e+001  1.600000e+001 -3.040000e+001
    endloop
  endfacet
  facet normal -1.000000e+000  0.000000e+000  0.000000e+000
    outer loop
      vertex -1.000000e+001  0.000000e+000  0.000000e+000
      vertex -1.000000e+001  1.600000e+001 -3.040000e+001
      vertex -1.000000e+001  0.000000e+000 -3.040000e+001
    endloop
  endfacet
  facet normal  1.000000e+000  -0.000000e+000  0.000000e+000
    outer loop
      vertex  1.000000e+001  1.039887e+001 -2.570385e+001
      vertex  1.000000e+001  9.198564e+000 -2.719396e+001
      vertex  1.000000e+001  1.600000e+001 -3.040000e+001
    endloop
  endfacet
  facet normal  1.000000e+000  0.000000e+000  0.000000e+000
    outer loop
      vertex  1.000000e+001  1.600000e+001 -1.900000e+001
      vertex  1.000000e+001  1.640192e+001 -1.750000e+001
      vertex  1.000000e+001  8.703849e+000 -2.260113e+001
    endloop
  endfacet
  facet normal  1.000000e+000  -0.000000e+000  0.000000e+000
    outer loop
      vertex  1.000000e+001  1.600000e+001 -1.900000e+001
      vertex  1.000000e+001  8.703849e+000 -2.260113e+001
      vertex  1.000000e+001  1.019396e+001 -2.380144e+001
    endloop
  endfacet
  facet normal  1.000000e+000  -0.000000e+000  0.000000e+000
    outer loop
      vertex  1.000000e+001  1.600000e+001 -1.900000e+001
      vertex  1.000000e+001  1.019396e+001 -2.380144e+001
      vertex  1.000000e+001  1.039887e+001 -2.570385e+001
    endloop
  endfacet
  facet normal  1.000000e+000  -0.000000e+000  0.000000e+000
    outer loop
      vertex  1.000000e+001  1.600000e+001 -1.900000e+001
      vertex  1.000000e+001  1.039887e+001 -2.570385e+001
      vertex  1.000000e+001  1.600000e+001 -3.040000e+001
    endloop
  endfacet
  facet normal  1.000000e+000  0.000000e+000  -0.000000e+000
    outer loop
      vertex  1.000000e+001  1.750000e+001 -1.640192e+001
      vertex  1.000000e+001  1.900000e+001 -1.600000e+001
      vertex  1.000000e+001  5.000000e+001  0.000000e+000
    endloop
  endfacet
  facet normal  1.000000e+000  0.000000e+000  0.000000e+000
    outer loop
      vertex  1.000000e+001  1.750000e+001 -1.640192e+001
      vertex  1.000000e+001  5.000000e+001  0.000000e+000
      vertex  1.000000e+001  0.000000e+000  0.000000e+000
    endloop
  endfacet
  facet normal  1.000000e+000  0.000000e+000  0.000000e+000
    outer loop
      vertex  1.000000e+001  1.750000e+001 -1.640192e+001
      vertex  1.000000e+001  0.000000e+000  0.000000e+000
      vertex  1.000000e+001  6.801436e+000 -2.280604e+001
    endloop
  endfacet
  facet normal  1.000000e+000  0.000000e+000  0.000000e+000
    outer loop
      vertex  1.000000e+001  1.750000e+001 -1.640192e+001
      vertex  1.000000e+001  6.801436e+000 -2.280604e+001
      vertex  1.000000e+001  8.703849e+000 -2.260113e+001
    endloop
  endfacet
  facet normal  9.999999e-001  0.000000e+000  0.000000e+000
    outer loop
      vertex  1.000000e+001  1.750000e+001 -1.640192e+001
      vertex  1.000000e+001  8.703849e+000 -2.260113e+001
      vertex  1.000000e+001  1.640192e+001 -1.750000e+001
    endloop
  endfacet
  facet normal  1.000000e+000  0.000000e+000  -0.000000e+000
    outer loop
      vertex  1.000000e+001  1.900000e+001 -1.600000e+001
      vertex  1.000000e+001  4.700000e+001 -1.600000e+001
      vertex  1.000000e+001  4.850000e+001 -1.559808e+001
    endloop
  endfacet
  facet normal  9.999999e-001  0.000000e+000  -0.000000e+000
    outer loop
      vertex  1.000000e+001  1.900000e+001 -1.600000e+001
      vertex  1.000000e+001  4.850000e+001 -1.559808e+001
      vertex  1.000000e+001  4.959808e+001 -1.450000e+001
    endloop
  endfacet
  facet normal  9.999999e-001  0.000000e+000  -0.000000e+000
    outer loop
      vertex  1.000000e+001  1.900000e+001 -1.600000e+001
      vertex  1.000000e+001  4.959808e+001 -1.450000e+001
      vertex  1.000000e+001  5.000000e+001 -1.300000e+001
    endloop
  endfacet
  facet normal  1.000000e+000  0.000000e+000  -0.000000e+000
    outer loop
      vertex  1.000000e+001  1.900000e+001 -1.600000e+001
      vertex  1.000000e+001  5.000000e+001 -1.300000e+001
      vertex  1.000000e+001  5.000000e+001  0.000000e+000
    endloop
  endfacet
  facet normal  1.000000e+000  0.000000e+000  0.000000e+000
    outer loop
      vertex  1.000000e+001  0.000000e+000 -3.040000e+001
      vertex  1.000000e+001  1.600000e+001 -3.040000e+001
      vertex  1.000000e+001  9.198564e+000 -2.719396e+001
    endloop
  endfacet
  facet normal  1.000000e+000  0.000000e+000  0.000000e+000
    outer loop
      vertex  1.000000e+001  0.000000e+000 -3.040000e+001
      vertex  1.000000e+001  9.198564e+000 -2.719396e+001
      vertex  1.000000e+001  7.296151e+000 -2.739887e+001
    endloop
  endfacet
  facet normal  9.999999e-001  0.000000e+000  0.000000e+000
    outer loop
      vertex  1.000000e+001  0.000000e+000 -3.040000e+001
      vertex  1.000000e+001  7.296151e+000 -2.739887e+001
      vertex  1.000000e+001  5.806044e+000 -2.619856e+001
    endloop
  endfacet
  facet normal  1.000000e+000  0.000000e+000  0.000000e+000
    outer loop
      vertex  1.000000e+001  0.000000e+000 -3.040000e+001
      vertex  1.000000e+001  5.806044e+000 -2.619856e+001
      vertex  1.000000e+001  5.601126e+000 -2.429615e+001
    endloop
  endfacet
  facet normal  1.000000e+000  0.000000e+000  -0.000000e+000
    outer loop
      vertex  1.000000e+001  0.000000e+000 -3.040000e+001
      vertex  1.000000e+001  5.601126e+000 -2.429615e+001
      vertex  1.000000e+001  6.801436e+000 -2.280604e+001
    endloop
  endfacet
  facet normal  1.000000e+000  0.000000e+000  0.000000e+000
    outer loop
      vertex  1.000000e+001  0.000000e+000 -3.040000e+001
      vertex  1.000000e+001  6.801436e+000 -2.280604e+001
      vertex  1.000000e+001  0.000000e+000  0.000000e+000
    endloop
  endfacet
  facet normal  0.000000e+000  2.588193e-001 -9.659258e-001
    outer loop
      vertex  1.000000e+001  4.700000e+001 -1.600000e+001
      vertex -1.000000e+001  4.700000e+001 -1.600000e+001
      vertex  1.000000e+001  4.850000e+001 -1.559808e+001
    endloop
  endfacet
  facet normal  0.000000e+000  2.588193e-001 -9.659258e-001
    outer loop
      vertex  1.000000e+001  4.850000e+001 -1.559808e+001
      vertex -1.000000e+001  4.700000e+001 -1.600000e+001
      vertex -1.000000e+001  4.850000e+001 -1.559808e+001
    endloop
  endfacet
  facet normal  0.000000e+000  7.071068e-001 -7.071068e-001
    outer loop
      vertex  1.000000e+001  4.850000e+001 -1.559808e+001
      vertex -1.000000e+001  4.850000e+001 -1.559808e+001
      vertex  1.000000e+001  4.959808e+001 -1.450000e+001
    endloop
  endfacet
  facet normal  0.000000e+000  7.071068e-001 -7.071068e-001
    outer loop
      vertex  1.000000e+001  4.959808e+001 -1.450000e+001
      vertex -1.000000e+001  4.850000e+001 -1.559808e+001
      vertex -1.000000e+001  4.959808e+001 -1.450000e+001
    endloop
  endfacet
  facet normal  0.000000e+000  9.659258e-001 -2.588193e-001
    outer loop
      vertex  1.000000e+001  4.959808e+001 -1.450000e+001
      vertex -1.000000e+001  4.959808e+001 -1.450000e+001
      vertex  1.000000e+001  5.000000e+001 -1.300000e+001
    endloop
  endfacet
  facet normal  0.000000e+000  9.659258e-001 -2.588193e-001
    outer loop
      vertex  1.000000e+001  5.000000e+001 -1.300000e+001
      vertex -1.000000e+001  4.959808e+001 -1.450000e+001
      vertex -1.000000e+001  5.000000e+001 -1.300000e+001
    endloop
  endfacet
  facet normal  0.000000e+000  1.000000e+000  0.000000e+000
    outer loop
      vertex -1.000000e+001  5.000000e+001 -1.300000e+001
      vertex -1.000000e+001  5.000000e+001  0.000000e+000
      vertex  1.000000e+001  5.000000e+001 -1.300000e+001
    endloop
  endfacet
  facet normal  0.000000e+000  1.000000e+000  -0.000000e+000
    outer loop
      vertex  1.000000e+001  5.000000e+001 -1.300000e+001
      vertex -1.000000e+001  5.000000e+001  0.000000e+000
      vertex  1.000000e+001  5.000000e+001  0.000000e+000
    endloop
  endfacet
  facet normal  0.000000e+000 -1.000000e+000  -0.000000e+000
    outer loop
      vertex  1.000000e+001  0.000000e+000 -3.040000e+001
      vertex  1.000000e+001  0.000000e+000  0.000000e+000
      vertex -1.000000e+001  0.000000e+000 -3.040000e+001
    endloop
  endfacet
  facet normal  0.000000e+000 -1.000000e+000  0.000000e+000
    outer loop
      vertex -1.000000e+001  0.000000e+000 -3.040000e+001
      vertex  1.000000e+001  0.000000e+000  0.000000e+000
      vertex -1.000000e+001  0.000000e+000  0.000000e+000
    endloop
  endfacet
  facet normal -9.036935e-001  4.281798e-001  0.000000e+000
    outer loop
      vertex  2.181446e+000  7.940560e+000 -1.600000e+001
      vertex  2.975335e+000  9.616100e+000  0.000000e+000
      vertex  2.975335e+000  9.616100e+000 -1.600000e+001
    endloop
  endfacet
  facet normal -9.827812e-001 -1.847729e-001  0.000000e+000
    outer loop
      vertex  2.975335e+000  9.616100e+000 -1.600000e+001
      vertex  2.975335e+000  9.616100e+000  0.000000e+000
      vertex  2.632748e+000  1.143828e+001  0.000000e+000
    endloop
  endfacet
  facet normal -9.827812e-001 -1.847729e-001  -0.000000e+000
    outer loop
      vertex  2.975335e+000  9.616100e+000 -1.600000e+001
      vertex  2.632748e+000  1.143828e+001  0.000000e+000
      vertex  2.632748e+000  1.143828e+001 -1.600000e+001
    endloop
  endfacet
  facet normal -9.036935e-001  4.281798e-001  0.000000e+000
    outer loop
      vertex  2.975335e+000  9.616100e+000  0.000000e+000
      vertex  2.181446e+000  7.940560e+000 -1.600000e+001
      vertex  2.181446e+000  7.940560e+000  0.000000e+000
    endloop
  endfacet
  facet normal -4.794255e-001  8.775827e-001  0.000000e+000
    outer loop
      vertex  2.181446e+000  7.940560e+000  0.000000e+000
      vertex  2.181446e+000  7.940560e+000 -1.600000e+001
      vertex  5.543185e-001  7.051656e+000 -1.600000e+001
    endloop
  endfacet
  facet normal -4.794255e-001  8.775827e-001  0.000000e+000
    outer loop
      vertex  2.181446e+000  7.940560e+000  0.000000e+000
      vertex  5.543185e-001  7.051656e+000 -1.600000e+001
      vertex  5.543185e-001  7.051656e+000  0.000000e+000
    endloop
  endfacet
  facet normal  1.279666e-001  9.917784e-001  0.000000e+000
    outer loop
      vertex  5.543185e-001  7.051656e+000  0.000000e+000
      vertex  5.543185e-001  7.051656e+000 -1.600000e+001
      vertex -1.284540e+000  7.288919e+000 -1.600000e+001
    endloop
  endfacet
  facet normal  1.279666e-001  9.917784e-001  -0.000000e+000
    outer loop
      vertex  5.543185e-001  7.051656e+000  0.000000e+000
      vertex -1.284540e+000  7.288919e+000 -1.600000e+001
      vertex -1.284540e+000  7.288919e+000  0.000000e+000
    endloop
  endfacet
  facet normal  6.864801e-001  7.271487e-001  0.000000e+000
    outer loop
      vertex -1.284540e+000  7.288919e+000  0.000000e+000
      vertex -1.284540e+000  7.288919e+000 -1.600000e+001
      vertex -2.632748e+000  8.561724e+000 -1.600000e+001
    endloop
  endfacet
  facet normal  6.864801e-001  7.271487e-001  -0.000000e+000
    outer loop
      vertex -1.284540e+000  7.288919e+000  0.000000e+000
      vertex -2.632748e+000  8.561724e+000 -1.600000e+001
      vertex -2.632748e+000  8.561724e+000  0.000000e+000
    endloop
  endfacet
  facet normal  9.036936e-001 -4.281799e-001  0.000000e+000
    outer loop
      vertex -2.181446e+000  1.205944e+001 -1.600000e+001
      vertex -2.975335e+000  1.038390e+001  0.000000e+000
      vertex -2.975335e+000  1.038390e+001 -1.600000e+001
    endloop
  endfacet
  facet normal  9.827812e-001  1.847729e-001  -0.000000e+000
    outer loop
      vertex -2.975335e+000  1.038390e+001 -1.600000e+001
      vertex -2.975335e+000  1.038390e+001  0.000000e+000
      vertex -2.632748e+000  8.561724e+000  0.000000e+000
    endloop
  endfacet
  facet normal  9.827812e-001  1.847729e-001  0.000000e+000
    outer loop
      vertex -2.975335e+000  1.038390e+001 -1.600000e+001
      vertex -2.632748e+000  8.561724e+000  0.000000e+000
      vertex -2.632748e+000  8.561724e+000 -1.600000e+001
    endloop
  endfacet
  facet normal  9.036936e-001 -4.281799e-001  0.000000e+000
    outer loop
      vertex -2.975335e+000  1.038390e+001  0.000000e+000
      vertex -2.181446e+000  1.205944e+001 -1.600000e+001
      vertex -2.181446e+000  1.205944e+001  0.000000e+000
    endloop
  endfacet
  facet normal  4.794259e-001 -8.775824e-001  0.000000e+000
    outer loop
      vertex -2.181446e+000  1.205944e+001  0.000000e+000
      vertex -2.181446e+000  1.205944e+001 -1.600000e+001
      vertex -5.543185e-001  1.294834e+001 -1.600000e+001
    endloop
  endfacet
  facet normal  4.794259e-001 -8.775824e-001  0.000000e+000
    outer loop
      vertex -2.181446e+000  1.205944e+001  0.000000e+000
      vertex -5.543185e-001  1.294834e+001 -1.600000e+001
      vertex -5.543185e-001  1.294834e+001  0.000000e+000
    endloop
  endfacet
  facet normal -1.279669e-001 -9.917784e-001  -0.000000e+000
    outer loop
      vertex -5.543185e-001  1.294834e+001  0.000000e+000
      vertex -5.543185e-001  1.294834e+001 -1.600000e+001
      vertex  1.284540e+000  1.271108e+001 -1.600000e+001
    endloop
  endfacet
  facet normal -1.279669e-001 -9.917784e-001  0.000000e+000
    outer loop
      vertex -5.543185e-001  1.294834e+001  0.000000e+000
      vertex  1.284540e+000  1.271108e+001 -1.600000e+001
      vertex  1.284540e+000  1.271108e+001  0.000000e+000
    endloop
  endfacet
  facet normal -6.864801e-001 -7.271487e-001  -0.000000e+000
    outer loop
      vertex  1.284540e+000  1.271108e+001  0.000000e+000
      vertex  1.284540e+000  1.271108e+001 -1.600000e+001
      vertex  2.632748e+000  1.143828e+001 -1.600000e+001
    endloop
  endfacet
  facet normal -6.864801e-001 -7.271487e-001  0.000000e+000
    outer loop
      vertex  1.284540e+000  1.271108e+001  0.000000e+000
      vertex  2.632748e+000  1.143828e+001 -1.600000e+001
      vertex  2.632748e+000  1.143828e+001  0.000000e+000
    endloop
  endfacet
  facet normal  9.036936e-001 -4.281797e-001  0.000000e+000
    outer loop
      vertex -2.181446e+000  4.205944e+001 -1.600000e+001
      vertex -2.975335e+000  4.038390e+001  0.000000e+000
      vertex -2.975335e+000  4.038390e+001 -1.600000e+001
    endloop
  endfacet
  facet normal  9.827813e-001  1.847727e-001  -0.000000e+000
    outer loop
      vertex -2.975335e+000  4.038390e+001 -1.600000e+001
      vertex -2.975335e+000  4.038390e+001  0.000000e+000
      vertex -2.632748e+000  3.856172e+001 -3.608225e-016
    endloop
  endfacet
  facet normal  9.827813e-001  1.847727e-001  0.000000e+000
    outer loop
      vertex -2.975335e+000  4.038390e+001 -1.600000e+001
      vertex -2.632748e+000  3.856172e+001 -3.608225e-016
      vertex -2.632748e+000  3.856172e+001 -1.600000e+001
    endloop
  endfacet
  facet normal  9.036936e-001 -4.281797e-001  0.000000e+000
    outer loop
      vertex -2.975335e+000  4.038390e+001  0.000000e+000
      vertex -2.181446e+000  4.205944e+001 -1.600000e+001
      vertex -2.181446e+000  4.205944e+001  0.000000e+000
    endloop
  endfacet
  facet normal  4.794259e-001 -8.775824e-001  0.000000e+000
    outer loop
      vertex -2.181446e+000  4.205944e+001  0.000000e+000
      vertex -2.181446e+000  4.205944e+001 -1.600000e+001
      vertex -5.543185e-001  4.294835e+001 -1.600000e+001
    endloop
  endfacet
  facet normal  4.794259e-001 -8.775824e-001  0.000000e+000
    outer loop
      vertex -2.181446e+000  4.205944e+001  0.000000e+000
      vertex -5.543185e-001  4.294835e+001 -1.600000e+001
      vertex -5.543185e-001  4.294835e+001  0.000000e+000
    endloop
  endfacet
  facet normal -1.279684e-001 -9.917783e-001  -0.000000e+000
    outer loop
      vertex -5.543185e-001  4.294835e+001  0.000000e+000
      vertex -5.543185e-001  4.294835e+001 -1.600000e+001
      vertex  1.284540e+000  4.271108e+001 -1.600000e+001
    endloop
  endfacet
  facet normal -1.279684e-001 -9.917783e-001  0.000000e+000
    outer loop
      vertex -5.543185e-001  4.294835e+001  0.000000e+000
      vertex  1.284540e+000  4.271108e+001 -1.600000e+001
      vertex  1.284540e+000  4.271108e+001  0.000000e+000
    endloop
  endfacet
  facet normal -6.864790e-001 -7.271496e-001  -0.000000e+000
    outer loop
      vertex  1.284540e+000  4.271108e+001  0.000000e+000
      vertex  1.284540e+000  4.271108e+001 -1.600000e+001
      vertex  2.632748e+000  4.143828e+001 -1.600000e+001
    endloop
  endfacet
  facet normal -6.864790e-001 -7.271496e-001  0.000000e+000
    outer loop
      vertex  1.284540e+000  4.271108e+001  0.000000e+000
      vertex  2.632748e+000  4.143828e+001 -1.600000e+001
      vertex  2.632748e+000  4.143828e+001 -3.608225e-016
    endloop
  endfacet
  facet normal -9.036936e-001  4.281797e-001  0.000000e+000
    outer loop
      vertex  2.181446e+000  3.794056e+001 -1.600000e+001
      vertex  2.975335e+000  3.961610e+001  0.000000e+000
      vertex  2.975335e+000  3.961610e+001 -1.600000e+001
    endloop
  endfacet
  facet normal -9.827813e-001 -1.847727e-001  0.000000e+000
    outer loop
      vertex  2.975335e+000  3.961610e+001 -1.600000e+001
      vertex  2.975335e+000  3.961610e+001  0.000000e+000
      vertex  2.632748e+000  4.143828e+001 -3.608225e-016
    endloop
  endfacet
  facet normal -9.827813e-001 -1.847727e-001  -0.000000e+000
    outer loop
      vertex  2.975335e+000  3.961610e+001 -1.600000e+001
      vertex  2.632748e+000  4.143828e+001 -3.608225e-016
      vertex  2.632748e+000  4.143828e+001 -1.600000e+001
    endloop
  endfacet
  facet normal -9.036936e-001  4.281797e-001  0.000000e+000
    outer loop
      vertex  2.975335e+000  3.961610e+001  0.000000e+000
      vertex  2.181446e+000  3.794056e+001 -1.600000e+001
      vertex  2.181446e+000  3.794056e+001  0.000000e+000
    endloop
  endfacet
  facet normal -4.794259e-001  8.775824e-001  0.000000e+000
    outer loop
      vertex  2.181446e+000  3.794056e+001  0.000000e+000
      vertex  2.181446e+000  3.794056e+001 -1.600000e+001
      vertex  5.543185e-001  3.705165e+001 -1.600000e+001
    endloop
  endfacet
  facet normal -4.794259e-001  8.775824e-001  0.000000e+000
    outer loop
      vertex  2.181446e+000  3.794056e+001  0.000000e+000
      vertex  5.543185e-001  3.705165e+001 -1.600000e+001
      vertex  5.543185e-001  3.705165e+001  0.000000e+000
    endloop
  endfacet
  facet normal  1.279684e-001  9.917783e-001  0.000000e+000
    outer loop
      vertex  5.543185e-001  3.705165e+001  0.000000e+000
      vertex  5.543185e-001  3.705165e+001 -1.600000e+001
      vertex -1.284540e+000  3.728892e+001 -1.600000e+001
    endloop
  endfacet
  facet normal  1.279684e-001  9.917783e-001  -0.000000e+000
    outer loop
      vertex  5.543185e-001  3.705165e+001  0.000000e+000
      vertex -1.284540e+000  3.728892e+001 -1.600000e+001
      vertex -1.284540e+000  3.728892e+001  0.000000e+000
    endloop
  endfacet
  facet normal  6.864790e-001  7.271496e-001  0.000000e+000
    outer loop
      vertex -1.284540e+000  3.728892e+001  0.000000e+000
      vertex -1.284540e+000  3.728892e+001 -1.600000e+001
      vertex -2.632748e+000  3.856172e+001 -1.600000e+001
    endloop
  endfacet
  facet normal  6.864790e-001  7.271496e-001  -0.000000e+000
    outer loop
      vertex -1.284540e+000  3.728892e+001  0.000000e+000
      vertex -2.632748e+000  3.856172e+001 -1.600000e+001
      vertex -2.632748e+000  3.856172e+001 -3.608225e-016
    endloop
  endfacet
  facet normal  -0.000000e+000  0.000000e+000 -1.000000e+000
    outer loop
      vertex -1.000000e+001  1.600000e+001 -3.040000e+001
      vertex  1.000000e+001  1.600000e+001 -3.040000e+001
      vertex -1.000000e+001  0.000000e+000 -3.040000e+001
    endloop
  endfacet
  facet normal  0.000000e+000  0.000000e+000 -1.000000e+000
    outer loop
      vertex -1.000000e+001  0.000000e+000 -3.040000e+001
      vertex  1.000000e+001  1.600000e+001 -3.040000e+001
      vertex  1.000000e+001  0.000000e+000 -3.040000e+001
    endloop
  endfacet
  facet normal  0.000000e+000 -7.787678e-001  6.273122e-001
    outer loop
      vertex  4.440892e-016  9.198564e+000 -2.719396e+001
      vertex  1.000000e+001  1.039887e+001 -2.570385e+001
      vertex  4.440892e-016  1.039887e+001 -2.570385e+001
    endloop
  endfacet
  facet normal  0.000000e+000 -9.942488e-001 -1.070953e-001
    outer loop
      vertex  4.440892e-016  1.039887e+001 -2.570385e+001
      vertex  1.000000e+001  1.039887e+001 -2.570385e+001
      vertex  1.000000e+001  1.019396e+001 -2.380144e+001
    endloop
  endfacet
  facet normal  -0.000000e+000 -9.942488e-001 -1.070953e-001
    outer loop
      vertex  4.440892e-016  1.039887e+001 -2.570385e+001
      vertex  1.000000e+001  1.019396e+001 -2.380144e+001
      vertex  4.440892e-016  1.019396e+001 -2.380144e+001
    endloop
  endfacet
  facet normal  0.000000e+000 -7.787678e-001  6.273122e-001
    outer loop
      vertex  1.000000e+001  1.039887e+001 -2.570385e+001
      vertex  4.440892e-016  9.198564e+000 -2.719396e+001
      vertex  1.000000e+001  9.198564e+000 -2.719396e+001
    endloop
  endfacet
  facet normal  0.000000e+000 -1.070953e-001  9.942488e-001
    outer loop
      vertex  1.000000e+001  9.198564e+000 -2.719396e+001
      vertex  4.440892e-016  9.198564e+000 -2.719396e+001
      vertex  4.440892e-016  7.296151e+000 -2.739887e+001
    endloop
  endfacet
  facet normal  0.000000e+000 -1.070953e-001  9.942488e-001
    outer loop
      vertex  1.000000e+001  9.198564e+000 -2.719396e+001
      vertex  4.440892e-016  7.296151e+000 -2.739887e+001
      vertex  1.000000e+001  7.296151e+000 -2.739887e+001
    endloop
  endfacet
  facet normal  0.000000e+000  6.273122e-001  7.787678e-001
    outer loop
      vertex  1.000000e+001  7.296151e+000 -2.739887e+001
      vertex  4.440892e-016  7.296151e+000 -2.739887e+001
      vertex  4.440892e-016  5.806044e+000 -2.619856e+001
    endloop
  endfacet
  facet normal  -0.000000e+000  6.273122e-001  7.787678e-001
    outer loop
      vertex  1.000000e+001  7.296151e+000 -2.739887e+001
      vertex  4.440892e-016  5.806044e+000 -2.619856e+001
      vertex  1.000000e+001  5.806044e+000 -2.619856e+001
    endloop
  endfacet
  facet normal  0.000000e+000  7.787679e-001 -6.273121e-001
    outer loop
      vertex  4.440892e-016  6.801436e+000 -2.280604e+001
      vertex  1.000000e+001  5.601126e+000 -2.429615e+001
      vertex  4.440892e-016  5.601126e+000 -2.429615e+001
    endloop
  endfacet
  facet normal  -0.000000e+000  9.942488e-001  1.070953e-001
    outer loop
      vertex  4.440892e-016  5.601126e+000 -2.429615e+001
      vertex  1.000000e+001  5.601126e+000 -2.429615e+001
      vertex  1.000000e+001  5.806044e+000 -2.619856e+001
    endloop
  endfacet
  facet normal  0.000000e+000  9.942488e-001  1.070953e-001
    outer loop
      vertex  4.440892e-016  5.601126e+000 -2.429615e+001
      vertex  1.000000e+001  5.806044e+000 -2.619856e+001
      vertex  4.440892e-016  5.806044e+000 -2.619856e+001
    endloop
  endfacet
  facet normal  0.000000e+000  7.787679e-001 -6.273121e-001
    outer loop
      vertex  1.000000e+001  5.601126e+000 -2.429615e+001
      vertex  4.440892e-016  6.801436e+000 -2.280604e+001
      vertex  1.000000e+001  6.801436e+000 -2.280604e+001
    endloop
  endfacet
  facet normal  0.000000e+000  1.070952e-001 -9.942487e-001
    outer loop
      vertex  1.000000e+001  6.801436e+000 -2.280604e+001
      vertex  4.440892e-016  6.801436e+000 -2.280604e+001
      vertex  4.440892e-016  8.703849e+000 -2.260113e+001
    endloop
  endfacet
  facet normal  0.000000e+000  1.070952e-001 -9.942487e-001
    outer loop
      vertex  1.000000e+001  6.801436e+000 -2.280604e+001
      vertex  4.440892e-016  8.703849e+000 -2.260113e+001
      vertex  1.000000e+001  8.703849e+000 -2.260113e+001
    endloop
  endfacet
  facet normal  -0.000000e+000 -6.273122e-001 -7.787678e-001
    outer loop
      vertex  1.000000e+001  8.703849e+000 -2.260113e+001
      vertex  4.440892e-016  8.703849e+000 -2.260113e+001
      vertex  4.440892e-016  1.019396e+001 -2.380144e+001
    endloop
  endfacet
  facet normal  0.000000e+000 -6.273122e-001 -7.787678e-001
    outer loop
      vertex  1.000000e+001  8.703849e+000 -2.260113e+001
      vertex  4.440892e-016  1.019396e+001 -2.380144e+001
      vertex  1.000000e+001  1.019396e+001 -2.380144e+001
    endloop
  endfacet
  facet normal  0.000000e+000  0.000000e+000  1.000000e+000
    outer loop
      vertex -2.975335e+000  1.038390e+001 -1.600000e+001
      vertex  2.632748e+000  1.143828e+001 -1.600000e+001
      vertex -2.181446e+000  1.205944e+001 -1.600000e+001
    endloop
  endfacet
  facet normal  -0.000000e+000  0.000000e+000  1.000000e+000
    outer loop
      vertex -2.181446e+000  1.205944e+001 -1.600000e+001
      vertex  2.632748e+000  1.143828e+001 -1.600000e+001
      vertex  1.284540e+000  1.271108e+001 -1.600000e+001
    endloop
  endfacet
  facet normal  0.000000e+000  0.000000e+000  1.000000e+000
    outer loop
      vertex -2.181446e+000  1.205944e+001 -1.600000e+001
      vertex  1.284540e+000  1.271108e+001 -1.600000e+001
      vertex -5.543185e-001  1.294834e+001 -1.600000e+001
    endloop
  endfacet
  facet normal  -0.000000e+000  0.000000e+000  1.000000e+000
    outer loop
      vertex  2.632748e+000  1.143828e+001 -1.600000e+001
      vertex -2.975335e+000  1.038390e+001 -1.600000e+001
      vertex  2.975335e+000  9.616100e+000 -1.600000e+001
    endloop
  endfacet
  facet normal  0.000000e+000  0.000000e+000  1.000000e+000
    outer loop
      vertex  2.975335e+000  9.616100e+000 -1.600000e+001
      vertex -2.975335e+000  1.038390e+001 -1.600000e+001
      vertex -2.632748e+000  8.561724e+000 -1.600000e+001
    endloop
  endfacet
  facet normal  -0.000000e+000  0.000000e+000  1.000000e+000
    outer loop
      vertex  2.975335e+000  9.616100e+000 -1.600000e+001
      vertex -2.632748e+000  8.561724e+000 -1.600000e+001
      vertex  2.181446e+000  7.940560e+000 -1.600000e+001
    endloop
  endfacet
  facet normal  0.000000e+000  0.000000e+000  1.000000e+000
    outer loop
      vertex  2.181446e+000  7.940560e+000 -1.600000e+001
      vertex -2.632748e+000  8.561724e+000 -1.600000e+001
      vertex -1.284540e+000  7.288919e+000 -1.600000e+001
    endloop
  endfacet
  facet normal  -0.000000e+000  0.000000e+000  1.000000e+000
    outer loop
      vertex  2.181446e+000  7.940560e+000 -1.600000e+001
      vertex -1.284540e+000  7.288919e+000 -1.600000e+001
      vertex  5.543185e-001  7.051656e+000 -1.600000e+001
    endloop
  endfacet
  facet normal  8.480290e-001 -3.324440e-001 -4.127078e-001
    outer loop
      vertex -1.443376e+000  8.000000e+000 -2.500000e+001
      vertex  4.440892e-016  1.019396e+001 -2.380144e+001
      vertex  4.440892e-016  8.703849e+000 -2.260113e+001
    endloop
  endfacet
  facet normal  8.480291e-001  5.675511e-002 -5.269020e-001
    outer loop
      vertex -1.443376e+000  8.000000e+000 -2.500000e+001
      vertex  4.440892e-016  8.703849e+000 -2.260113e+001
      vertex  4.440892e-016  6.801436e+000 -2.280604e+001
    endloop
  endfacet
  facet normal  8.480290e-001  4.127079e-001 -3.324440e-001
    outer loop
      vertex -1.443376e+000  8.000000e+000 -2.500000e+001
      vertex  4.440892e-016  6.801436e+000 -2.280604e+001
      vertex  4.440892e-016  5.601126e+000 -2.429615e+001
    endloop
  endfacet
  facet normal  8.480290e-001  5.269019e-001  5.675511e-002
    outer loop
      vertex -1.443376e+000  8.000000e+000 -2.500000e+001
      vertex  4.440892e-016  5.601126e+000 -2.429615e+001
      vertex  4.440892e-016  5.806044e+000 -2.619856e+001
    endloop
  endfacet
  facet normal  8.480290e-001  3.324440e-001  4.127078e-001
    outer loop
      vertex -1.443376e+000  8.000000e+000 -2.500000e+001
      vertex  4.440892e-016  5.806044e+000 -2.619856e+001
      vertex  4.440892e-016  7.296151e+000 -2.739887e+001
    endloop
  endfacet
  facet normal  8.480290e-001 -5.675512e-002  5.269020e-001
    outer loop
      vertex -1.443376e+000  8.000000e+000 -2.500000e+001
      vertex  4.440892e-016  7.296151e+000 -2.739887e+001
      vertex  4.440892e-016  9.198564e+000 -2.719396e+001
    endloop
  endfacet
  facet normal  8.480290e-001 -4.127079e-001  3.324440e-001
    outer loop
      vertex -1.443376e+000  8.000000e+000 -2.500000e+001
      vertex  4.440892e-016  9.198564e+000 -2.719396e+001
      vertex  4.440892e-016  1.039887e+001 -2.570385e+001
    endloop
  endfacet
  facet normal  8.480290e-001 -5.269019e-001 -5.675511e-002
    outer loop
      vertex -1.443376e+000  8.000000e+000 -2.500000e+001
      vertex  4.440892e-016  1.039887e+001 -2.570385e+001
      vertex  4.440892e-016  1.019396e+001 -2.380144e+001
    endloop
  endfacet
  facet normal  9.036936e-001 -4.281797e-001  0.000000e+000
    outer loop
      vertex -2.416679e+000  2.728152e+001 -1.600000e+001
      vertex -3.296176e+000  2.542530e+001  0.000000e+000
      vertex -3.296176e+000  2.542530e+001 -1.600000e+001
    endloop
  endfacet
  facet normal  9.827812e-001  1.847730e-001  -0.000000e+000
    outer loop
      vertex -3.296176e+000  2.542530e+001 -1.600000e+001
      vertex -3.296176e+000  2.542530e+001  0.000000e+000
      vertex -2.916646e+000  2.340663e+001 -3.608225e-016
    endloop
  endfacet
  facet normal  9.827812e-001  1.847730e-001  0.000000e+000
    outer loop
      vertex -3.296176e+000  2.542530e+001 -1.600000e+001
      vertex -2.916646e+000  2.340663e+001 -3.608225e-016
      vertex -2.916646e+000  2.340663e+001 -1.600000e+001
    endloop
  endfacet
  facet normal  9.036936e-001 -4.281797e-001  0.000000e+000
    outer loop
      vertex -3.296176e+000  2.542530e+001  0.000000e+000
      vertex -2.416679e+000  2.728152e+001 -1.600000e+001
      vertex -2.416679e+000  2.728152e+001  0.000000e+000
    endloop
  endfacet
  facet normal  4.794253e-001 -8.775827e-001  0.000000e+000
    outer loop
      vertex -2.416679e+000  2.728152e+001  0.000000e+000
      vertex -2.416679e+000  2.728152e+001 -1.600000e+001
      vertex -6.140926e-001  2.826627e+001 -1.600000e+001
    endloop
  endfacet
  facet normal  4.794253e-001 -8.775827e-001  0.000000e+000
    outer loop
      vertex -2.416679e+000  2.728152e+001  0.000000e+000
      vertex -6.140926e-001  2.826627e+001 -1.600000e+001
      vertex -6.140926e-001  2.826627e+001  0.000000e+000
    endloop
  endfacet
  facet normal -1.279666e-001 -9.917786e-001  -0.000000e+000
    outer loop
      vertex -6.140926e-001  2.826627e+001  0.000000e+000
      vertex -6.140926e-001  2.826627e+001 -1.600000e+001
      vertex  1.423056e+000  2.800343e+001 -1.600000e+001
    endloop
  endfacet
  facet normal -1.279666e-001 -9.917786e-001  0.000000e+000
    outer loop
      vertex -6.140926e-001  2.826627e+001  0.000000e+000
      vertex  1.423056e+000  2.800343e+001 -1.600000e+001
      vertex  1.423056e+000  2.800343e+001  0.000000e+000
    endloop
  endfacet
  facet normal -6.864802e-001 -7.271485e-001  -0.000000e+000
    outer loop
      vertex  1.423056e+000  2.800343e+001  0.000000e+000
      vertex  1.423056e+000  2.800343e+001 -1.600000e+001
      vertex  2.916646e+000  2.659337e+001 -1.600000e+001
    endloop
  endfacet
  facet normal -6.864802e-001 -7.271485e-001  0.000000e+000
    outer loop
      vertex  1.423056e+000  2.800343e+001  0.000000e+000
      vertex  2.916646e+000  2.659337e+001 -1.600000e+001
      vertex  2.916646e+000  2.659337e+001 -3.608225e-016
    endloop
  endfacet
  facet normal  0.000000e+000  0.000000e+000  1.000000e+000
    outer loop
      vertex  1.423056e+000  2.800343e+001  0.000000e+000
      vertex  5.543185e-001  3.705165e+001  0.000000e+000
      vertex -6.140926e-001  2.826627e+001  0.000000e+000
    endloop
  endfacet
  facet normal  2.656608e-016  2.550659e-017  1.000000e+000
    outer loop
      vertex  5.543185e-001  3.705165e+001  0.000000e+000
      vertex  1.423056e+000  2.800343e+001  0.000000e+000
      vertex  2.916646e+000  2.659337e+001 -3.608225e-016
    endloop
  endfacet
  facet normal  -0.000000e+000  -0.000000e+000  1.000000e+000
    outer loop
      vertex  6.140926e-001  2.173373e+001  0.000000e+000
      vertex  1.284540e+000  1.271108e+001  0.000000e+000
      vertex  2.632748e+000  1.143828e+001  0.000000e+000
    endloop
  endfacet
  facet normal  -0.000000e+000  0.000000e+000  1.000000e+000
    outer loop
      vertex  1.000000e+001  5.000000e+001  0.000000e+000
      vertex -1.000000e+001  5.000000e+001  0.000000e+000
      vertex -5.543185e-001  4.294835e+001  0.000000e+000
    endloop
  endfacet
  facet normal  -0.000000e+000  0.000000e+000  9.999999e-001
    outer loop
      vertex  1.000000e+001  5.000000e+001  0.000000e+000
      vertex -5.543185e-001  4.294835e+001  0.000000e+000
      vertex  1.284540e+000  4.271108e+001  0.000000e+000
    endloop
  endfacet
  facet normal  1.257172e-016 -1.503217e-016  1.000000e+000
    outer loop
      vertex  1.000000e+001  5.000000e+001  0.000000e+000
      vertex  1.284540e+000  4.271108e+001  0.000000e+000
      vertex  2.632748e+000  4.143828e+001 -3.608225e-016
    endloop
  endfacet
  facet normal -2.290524e-016  1.549530e-016  1.000000e+000
    outer loop
      vertex  1.000000e+001  5.000000e+001  0.000000e+000
      vertex  2.632748e+000  4.143828e+001 -3.608225e-016
      vertex  2.975335e+000  3.961610e+001  0.000000e+000
    endloop
  endfacet
  facet normal  -0.000000e+000  0.000000e+000  1.000000e+000
    outer loop
      vertex  1.000000e+001  5.000000e+001  0.000000e+000
      vertex  2.975335e+000  3.961610e+001  0.000000e+000
      vertex  1.000000e+001  0.000000e+000  0.000000e+000
    endloop
  endfacet
  facet normal  0.000000e+000  0.000000e+000  1.000000e+000
    outer loop
      vertex -1.000000e+001  0.000000e+000  0.000000e+000
      vertex  1.000000e+001  0.000000e+000  0.000000e+000
      vertex  5.543185e-001  7.051656e+000  0.000000e+000
    endloop
  endfacet
  facet normal  0.000000e+000  0.000000e+000  9.999999e-001
    outer loop
      vertex -1.000000e+001  0.000000e+000  0.000000e+000
      vertex  5.543185e-001  7.051656e+000  0.000000e+000
      vertex -1.284540e+000  7.288919e+000  0.000000e+000
    endloop
  endfacet
  facet normal  0.000000e+000  0.000000e+000  1.000000e+000
    outer loop
      vertex -1.000000e+001  0.000000e+000  0.000000e+000
      vertex -1.284540e+000  7.288919e+000  0.000000e+000
      vertex -2.632748e+000  8.561724e+000  0.000000e+000
    endloop
  endfacet
  facet normal  0.000000e+000  0.000000e+000  1.000000e+000
    outer loop
      vertex -1.000000e+001  0.000000e+000  0.000000e+000
      vertex -2.632748e+000  8.561724e+000  0.000000e+000
      vertex -2.975335e+000  1.038390e+001  0.000000e+000
    endloop
  endfacet
  facet normal  0.000000e+000  -0.000000e+000  9.999999e-001
    outer loop
      vertex -1.000000e+001  0.000000e+000  0.000000e+000
      vertex -2.975335e+000  1.038390e+001  0.000000e+000
      vertex -2.181446e+000  1.205944e+001  0.000000e+000
    endloop
  endfacet
  facet normal  0.000000e+000  -0.000000e+000  1.000000e+000
    outer loop
      vertex -1.000000e+001  0.000000e+000  0.000000e+000
      vertex -2.181446e+000  1.205944e+001  0.000000e+000
      vertex -1.423056e+000  2.199657e+001  0.000000e+000
    endloop
  endfacet
  facet normal -1.765794e-016  6.885216e-017  1.000000e+000
    outer loop
      vertex -1.000000e+001  0.000000e+000  0.000000e+000
      vertex -1.423056e+000  2.199657e+001  0.000000e+000
      vertex -2.916646e+000  2.340663e+001 -3.608225e-016
    endloop
  endfacet
  facet normal  3.957311e-016 -1.043414e-016  1.000000e+000
    outer loop
      vertex -1.000000e+001  0.000000e+000  0.000000e+000
      vertex -2.916646e+000  2.340663e+001 -3.608225e-016
      vertex -3.296176e+000  2.542530e+001  0.000000e+000
    endloop
  endfacet
  facet normal  0.000000e+000  -0.000000e+000  1.000000e+000
    outer loop
      vertex -1.000000e+001  0.000000e+000  0.000000e+000
      vertex -3.296176e+000  2.542530e+001  0.000000e+000
      vertex -1.284540e+000  3.728892e+001  0.000000e+000
    endloop
  endfacet
  facet normal -2.192521e-016  5.124533e-017  1.000000e+000
    outer loop
      vertex -1.000000e+001  0.000000e+000  0.000000e+000
      vertex -1.284540e+000  3.728892e+001  0.000000e+000
      vertex -2.632748e+000  3.856172e+001 -3.608225e-016
    endloop
  endfacet
  facet normal  5.470735e-016 -9.516187e-017  1.000000e+000
    outer loop
      vertex -1.000000e+001  0.000000e+000  0.000000e+000
      vertex -2.632748e+000  3.856172e+001 -3.608225e-016
      vertex -2.975335e+000  4.038390e+001  0.000000e+000
    endloop
  endfacet
  facet normal  0.000000e+000  0.000000e+000  1.000000e+000
    outer loop
      vertex -1.000000e+001  5.000000e+001  0.000000e+000
      vertex -1.000000e+001  0.000000e+000  0.000000e+000
      vertex -2.975335e+000  4.038390e+001  0.000000e+000
    endloop
  endfacet
  facet normal  0.000000e+000  -0.000000e+000  1.000000e+000
    outer loop
      vertex -1.000000e+001  5.000000e+001  0.000000e+000
      vertex -2.975335e+000  4.038390e+001  0.000000e+000
      vertex -2.181446e+000  4.205944e+001  0.000000e+000
    endloop
  endfacet
  facet normal  0.000000e+000  -0.000000e+000  1.000000e+000
    outer loop
      vertex -1.000000e+001  5.000000e+001  0.000000e+000
      vertex -2.181446e+000  4.205944e+001  0.000000e+000
      vertex -5.543185e-001  4.294835e+001  0.000000e+000
    endloop
  endfacet
  facet normal  0.000000e+000  0.000000e+000  1.000000e+000
    outer loop
      vertex  1.000000e+001  0.000000e+000  0.000000e+000
      vertex  2.975335e+000  3.961610e+001  0.000000e+000
      vertex  2.181446e+000  3.794056e+001  0.000000e+000
    endloop
  endfacet
  facet normal  0.000000e+000  0.000000e+000  1.000000e+000
    outer loop
      vertex  1.000000e+001  0.000000e+000  0.000000e+000
      vertex  2.181446e+000  3.794056e+001  0.000000e+000
      vertex  5.543185e-001  3.705165e+001  0.000000e+000
    endloop
  endfacet
  facet normal -1.187570e-015 -3.027507e-016  1.000000e+000
    outer loop
      vertex  1.000000e+001  0.000000e+000  0.000000e+000
      vertex  5.543185e-001  3.705165e+001  0.000000e+000
      vertex  2.916646e+000  2.659337e+001 -3.608225e-016
    endloop
  endfacet
  facet normal  2.108230e-015  5.751118e-016  1.000000e+000
    outer loop
      vertex  1.000000e+001  0.000000e+000  0.000000e+000
      vertex  2.916646e+000  2.659337e+001 -3.608225e-016
      vertex  3.296176e+000  2.457470e+001  0.000000e+000
    endloop
  endfacet
  facet normal  0.000000e+000  0.000000e+000  1.000000e+000
    outer loop
      vertex  1.000000e+001  0.000000e+000  0.000000e+000
      vertex  3.296176e+000  2.457470e+001  0.000000e+000
      vertex  2.416679e+000  2.271848e+001  0.000000e+000
    endloop
  endfacet
  facet normal  0.000000e+000  0.000000e+000  1.000000e+000
    outer loop
      vertex  1.000000e+001  0.000000e+000  0.000000e+000
      vertex  2.416679e+000  2.271848e+001  0.000000e+000
      vertex  6.140926e-001  2.173373e+001  0.000000e+000
    endloop
  endfacet
  facet normal  0.000000e+000  0.000000e+000  1.000000e+000
    outer loop
      vertex  1.000000e+001  0.000000e+000  0.000000e+000
      vertex  6.140926e-001  2.173373e+001  0.000000e+000
      vertex  2.632748e+000  1.143828e+001  0.000000e+000
    endloop
  endfacet
  facet normal  0.000000e+000  0.000000e+000  1.000000e+000
    outer loop
      vertex  1.000000e+001  0.000000e+000  0.000000e+000
      vertex  2.632748e+000  1.143828e+001  0.000000e+000
      vertex  2.975335e+000  9.616100e+000  0.000000e+000
    endloop
  endfacet
  facet normal  0.000000e+000  0.000000e+000  1.000000e+000
    outer loop
      vertex  1.000000e+001  0.000000e+000  0.000000e+000
      vertex  2.975335e+000  9.616100e+000  0.000000e+000
      vertex  2.181446e+000  7.940560e+000  0.000000e+000
    endloop
  endfacet
  facet normal  0.000000e+000  0.000000e+000  1.000000e+000
    outer loop
      vertex  1.000000e+001  0.000000e+000  0.000000e+000
      vertex  2.181446e+000  7.940560e+000  0.000000e+000
      vertex  5.543185e-001  7.051656e+000  0.000000e+000
    endloop
  endfacet
  facet normal  0.000000e+000  -0.000000e+000  1.000000e+000
    outer loop
      vertex -3.296176e+000  2.542530e+001  0.000000e+000
      vertex -2.416679e+000  2.728152e+001  0.000000e+000
      vertex -1.284540e+000  3.728892e+001  0.000000e+000
    endloop
  endfacet
  facet normal  0.000000e+000  0.000000e+000  1.000000e+000
    outer loop
      vertex -1.284540e+000  3.728892e+001  0.000000e+000
      vertex -2.416679e+000  2.728152e+001  0.000000e+000
      vertex -6.140926e-001  2.826627e+001  0.000000e+000
    endloop
  endfacet
  facet normal  0.000000e+000  -0.000000e+000  1.000000e+000
    outer loop
      vertex -1.284540e+000  3.728892e+001  0.000000e+000
      vertex -6.140926e-001  2.826627e+001  0.000000e+000
      vertex  5.543185e-001  3.705165e+001  0.000000e+000
    endloop
  endfacet
  facet normal  0.000000e+000  0.000000e+000  1.000000e+000
    outer loop
      vertex  1.284540e+000  1.271108e+001  0.000000e+000
      vertex  6.140926e-001  2.173373e+001  0.000000e+000
      vertex -5.543185e-001  1.294834e+001  0.000000e+000
    endloop
  endfacet
  facet normal  0.000000e+000  -0.000000e+000  1.000000e+000
    outer loop
      vertex -5.543185e-001  1.294834e+001  0.000000e+000
      vertex  6.140926e-001  2.173373e+001  0.000000e+000
      vertex -1.423056e+000  2.199657e+001  0.000000e+000
    endloop
  endfacet
  facet normal  0.000000e+000  0.000000e+000  1.000000e+000
    outer loop
      vertex -5.543185e-001  1.294834e+001  0.000000e+000
      vertex -1.423056e+000  2.199657e+001  0.000000e+000
      vertex -2.181446e+000  1.205944e+001  0.000000e+000
    endloop
  endfacet
  facet normal -9.036936e-001  4.281797e-001  0.000000e+000
    outer loop
      vertex  2.416679e+000  2.271848e+001 -1.600000e+001
      vertex  3.296176e+000  2.457470e+001  0.000000e+000
      vertex  3.296176e+000  2.457470e+001 -1.600000e+001
    endloop
  endfacet
  facet normal -9.827812e-001 -1.847730e-001  0.000000e+000
    outer loop
      vertex  3.296176e+000  2.457470e+001 -1.600000e+001
      vertex  3.296176e+000  2.457470e+001  0.000000e+000
      vertex  2.916646e+000  2.659337e+001 -3.608225e-016
    endloop
  endfacet
  facet normal -9.827812e-001 -1.847730e-001  -0.000000e+000
    outer loop
      vertex  3.296176e+000  2.457470e+001 -1.600000e+001
      vertex  2.916646e+000  2.659337e+001 -3.608225e-016
      vertex  2.916646e+000  2.659337e+001 -1.600000e+001
    endloop
  endfacet
  facet normal -9.036936e-001  4.281797e-001  0.000000e+000
    outer loop
      vertex  3.296176e+000  2.457470e+001  0.000000e+000
      vertex  2.416679e+000  2.271848e+001 -1.600000e+001
      vertex  2.416679e+000  2.271848e+001  0.000000e+000
    endloop
  endfacet
  facet normal -4.794253e-001  8.775827e-001  0.000000e+000
    outer loop
      vertex  2.416679e+000  2.271848e+001  0.000000e+000
      vertex  2.416679e+000  2.271848e+001 -1.600000e+001
      vertex  6.140926e-001  2.173373e+001 -1.600000e+001
    endloop
  endfacet
  facet normal -4.794253e-001  8.775827e-001  0.000000e+000
    outer loop
      vertex  2.416679e+000  2.271848e+001  0.000000e+000
      vertex  6.140926e-001  2.173373e+001 -1.600000e+001
      vertex  6.140926e-001  2.173373e+001  0.000000e+000
    endloop
  endfacet
  facet normal  1.279666e-001  9.917786e-001  0.000000e+000
    outer loop
      vertex  6.140926e-001  2.173373e+001  0.000000e+000
      vertex  6.140926e-001  2.173373e+001 -1.600000e+001
      vertex -1.423056e+000  2.199657e+001 -1.600000e+001
    endloop
  endfacet
  facet normal  1.279666e-001  9.917786e-001  -0.000000e+000
    outer loop
      vertex  6.140926e-001  2.173373e+001  0.000000e+000
      vertex -1.423056e+000  2.199657e+001 -1.600000e+001
      vertex -1.423056e+000  2.199657e+001  0.000000e+000
    endloop
  endfacet
  facet normal  6.864802e-001  7.271485e-001  0.000000e+000
    outer loop
      vertex -1.423056e+000  2.199657e+001  0.000000e+000
      vertex -1.423056e+000  2.199657e+001 -1.600000e+001
      vertex -2.916646e+000  2.340663e+001 -1.600000e+001
    endloop
  endfacet
  facet normal  6.864802e-001  7.271485e-001  -0.000000e+000
    outer loop
      vertex -1.423056e+000  2.199657e+001  0.000000e+000
      vertex -2.916646e+000  2.340663e+001 -1.600000e+001
      vertex -2.916646e+000  2.340663e+001 -3.608225e-016
    endloop
  endfacet
endsolid CATIA STL
